<?xml version="1.0" encoding="UTF-8" standalone="no"?>
<!-- Created with Inkscape (http://www.inkscape.org/) -->

<svg
   width="210mm"
   height="297mm"
   viewBox="0 0 210 297"
   version="1.1"
   id="svg5"
   xml:space="preserve"
   inkscape:version="1.2 (dc2aedaf03, 2022-05-15)"
   sodipodi:docname="arduino.svg"
   xmlns:inkscape="http://www.inkscape.org/namespaces/inkscape"
   xmlns:sodipodi="http://sodipodi.sourceforge.net/DTD/sodipodi-0.dtd"
   xmlns="http://www.w3.org/2000/svg"
   xmlns:svg="http://www.w3.org/2000/svg"><sodipodi:namedview
     id="namedview7"
     pagecolor="#505050"
     bordercolor="#eeeeee"
     borderopacity="1"
     inkscape:showpageshadow="0"
     inkscape:pageopacity="0"
     inkscape:pagecheckerboard="0"
     inkscape:deskcolor="#505050"
     inkscape:document-units="mm"
     showgrid="false"
     inkscape:zoom="1.3656843"
     inkscape:cx="313.396"
     inkscape:cy="112.76398"
     inkscape:window-width="1366"
     inkscape:window-height="697"
     inkscape:window-x="760"
     inkscape:window-y="592"
     inkscape:window-maximized="1"
     inkscape:current-layer="layer1" /><defs
     id="defs2" /><g
     inkscape:label="Capa 1"
     inkscape:groupmode="layer"
     id="layer1"><path
       style="fill:#000000;stroke-width:0.264583"
       d="M 73.590312,53.734493 C 72.150625,53.318203 71.92481,52.704221 71.92481,49.206059 v -3.116128 h 0.79375 0.79375 v 2.663227 c 0,3.036994 0.225473,3.686773 1.279309,3.686773 1.214008,0 1.366524,-0.389794 1.366524,-3.4925 v -2.8575 h 0.79375 0.79375 v 3.116128 c 0,3.561112 -0.215304,4.106659 -1.793737,4.545031 -1.131546,0.314262 -1.219505,0.313642 -2.361594,-0.01659 z m 31.407418,-0.170492 c -1.74774,-0.873091 -2.36947,-3.531212 -1.35063,-5.774439 0.60341,-1.328563 1.64024,-1.825273 3.3968,-1.627283 1.5763,0.17767 2.33022,0.992603 2.57678,2.785311 0.33155,2.410696 -0.54985,4.349832 -2.18336,4.8035 -1.29155,0.358698 -1.35711,0.353669 -2.43959,-0.187089 z m 2.39801,-1.541145 c 0.45171,-0.54428 0.43166,-3.672811 -0.0271,-4.225563 -0.49991,-0.602361 -1.63625,-0.373264 -2.03017,0.409305 -0.39853,0.791713 -0.4409,2.612575 -0.0827,3.554651 0.19518,0.513355 0.44509,0.678682 1.02593,0.678682 0.42235,0 0.92367,-0.187684 1.11405,-0.417075 z m -51.604642,1.541555 c 0.0032,-0.109141 0.519713,-1.805782 1.147742,-3.770313 l 1.141869,-3.571875 1.046616,-0.07869 1.046615,-0.07869 1.211151,3.849005 1.211151,3.849002 h -0.90573 c -0.768487,0 -0.947657,-0.120274 -1.182432,-0.79375 -0.251254,-0.720751 -0.38443,-0.79375 -1.448059,-0.79375 -1.089841,0 -1.182404,0.05524 -1.330107,0.79375 -0.138759,0.693796 -0.271198,0.79375 -1.051719,0.79375 -0.491132,0 -0.890326,-0.0893 -0.887097,-0.198437 z m 3.823367,-4.062265 c -0.195909,-0.742656 -0.415432,-1.40952 -0.487829,-1.481915 -0.0724,-0.0724 -0.264396,0.386403 -0.426666,1.019556 -0.16227,0.633153 -0.344952,1.300014 -0.405961,1.481915 -0.07419,0.221205 0.185062,0.330729 0.782865,0.330729 h 0.89379 z m 4.372845,0.397918 v -3.862785 l 2.404336,0.09247 c 2.25294,0.08665 2.444532,0.139216 3.042708,0.834829 0.36732,0.427154 0.638373,1.078699 0.638373,1.534494 0,0.886589 -0.666637,2.353357 -1.069585,2.353357 -0.144235,0 0.03742,0.591355 0.403669,1.314122 0.366254,0.722765 0.665916,1.377609 0.665916,1.455209 0,0.0776 -0.446485,0.140639 -0.992188,0.140094 -0.926566,-0.0011 -1.024544,-0.07967 -1.481416,-1.190625 -0.388059,-0.943621 -0.620597,-1.189633 -1.12448,-1.189633 -0.5765,0 -0.63525,0.110112 -0.63525,1.190625 0,1.184325 -0.0049,1.190625 -0.926041,1.190625 H 63.98731 Z m 4.017692,-0.44068 c 0.44074,-0.693893 0.225082,-1.526878 -0.463041,-1.788501 -1.38894,-0.528074 -1.702568,-0.364405 -1.702568,0.888492 0,0.630592 0.08847,1.234998 0.196601,1.343128 0.275781,0.275783 1.718629,-0.04893 1.969008,-0.443119 z M 79.86231,49.92639 v -3.836459 h 1.72829 c 3.193008,0 4.431816,1.016731 4.454647,3.656074 0.02498,2.887731 -1.209863,4.015698 -4.396999,4.016433 l -1.785938,4.1e-4 z m 3.645294,2.101665 c 0.502201,-0.351756 0.58804,-0.656006 0.58804,-2.084272 0,-1.891209 -0.282692,-2.296242 -1.646349,-2.358837 l -0.867193,-0.03981 -0.07608,2.447396 -0.07607,2.447395 h 0.744808 c 0.409643,0 1.009425,-0.185345 1.332843,-0.411876 z m 4.292206,1.089308 c 0,-0.554911 0.139229,-0.657011 0.992188,-0.727604 l 0.992187,-0.08212 v -2.380314 -2.380316 l -0.992187,0.08548 c -0.950056,0.08185 -0.992188,0.05092 -0.992188,-0.728538 v -0.814023 h 2.910417 2.910417 v 0.814023 c 0,0.779558 -0.04201,0.810376 -0.992188,0.727956 l -0.992187,-0.08606 -0.07608,2.447044 -0.07607,2.447041 h 1.06826 c 0.963092,0 1.068264,0.06512 1.068264,0.661459 v 0.661458 h -2.910417 c -2.908853,0 -2.910417,-2.64e-4 -2.910417,-0.645485 z m 7.672917,-3.206946 v -3.852429 l 0.984057,0.08212 c 0.947346,0.07905 1.031039,0.170964 2.243267,2.463369 l 1.259208,2.38125 0.0057,-2.447396 0.0057,-2.447396 h 0.859891 0.8599 v 3.836459 3.836458 l -0.92604,-0.0026 c -0.89537,-0.0026 -0.969861,-0.08359 -2.24896,-2.447396 l -1.322916,-2.444789 -0.07608,2.447396 -0.07607,2.447395 h -0.783823 -0.78382 V 49.910377 Z M 65.57481,41.679364 c -0.363802,-0.05785 -1.494896,-0.400875 -2.513542,-0.762288 -8.016265,-2.844163 -11.37275,-12.513438 -6.798439,-19.584771 4.08179,-6.309957 12.4667,-8.229578 19.33121,-4.425642 1.83788,1.018453 5.080092,3.943355 6.262555,5.649649 l 0.74554,1.075817 0.673235,-0.875786 c 1.385133,-1.801867 3.648398,-4.016159 5.151567,-5.040093 5.94935,-4.052605 13.476054,-3.590275 18.530874,1.138264 2.95848,2.767515 4.2626,6.063935 4.06384,10.272201 -0.14487,3.067509 -0.78012,4.893421 -2.49707,7.177472 -4.14542,5.514629 -12.032514,7.123766 -18.445839,3.763349 -1.934457,-1.013603 -5.384044,-4.045905 -6.549308,-5.757057 -0.343427,-0.504313 -0.700202,-0.917746 -0.792832,-0.91874 -0.09263,-10e-4 -0.850414,0.831792 -1.683962,1.850636 -2.513137,3.071801 -6.088138,5.421857 -9.455841,6.215874 -1.534196,0.361723 -4.461619,0.469212 -6.021988,0.221115 z m 6.182214,-5.123876 c 2.829473,-1.058642 5.755537,-3.736569 7.731099,-7.075489 l 0.669666,-1.131806 -1.183018,-1.77861 c -2.142863,-3.221691 -4.774983,-5.492087 -7.46196,-6.436483 -1.967145,-0.691396 -4.935091,-0.671325 -6.853234,0.04634 -1.939731,0.725747 -4.141615,2.755917 -5.088852,4.692001 -1.496111,3.057939 -0.773425,7.032643 1.734718,9.540786 2.739999,2.739999 6.691101,3.550232 10.451581,2.143257 z M 67.16231,31.140973 v -1.455208 h -1.455208 -1.455209 v -1.322917 -1.322917 h 1.455209 1.455208 v -1.322917 -1.322916 h 1.322917 1.322916 v 1.322916 1.322917 h 1.455209 1.455208 v 1.322917 1.322917 h -1.455208 -1.455209 v 1.455208 1.455208 H 68.485227 67.16231 Z m 33.44196,5.493448 c 3.82394,-1.495303 6.24539,-5.107544 5.9092,-8.815146 -0.28267,-3.117335 -2.23185,-5.873389 -5.17661,-7.319498 -1.33549,-0.655835 -1.786332,-0.735888 -4.144341,-0.735888 -2.408312,0 -2.800697,0.07339 -4.370917,0.817518 -2.177995,1.032152 -4.641726,3.301677 -6.339012,5.839331 l -1.31763,1.970022 0.696097,1.110523 c 2.691903,4.294546 5.858455,6.846957 9.418445,7.591778 1.435295,0.300291 3.934433,0.08503 5.324768,-0.45864 z m -7.877556,-8.205222 0.03211,-1.256976 4.135078,-0.07287 4.135078,-0.07286 v 1.329635 1.329636 l -4.167191,2.05e-4 -4.167187,2.05e-4 z M 109.28264,17.118056 c 0.005,-0.436562 0.0647,-0.583125 0.13177,-0.325694 0.0671,0.257431 0.0627,0.614619 -0.01,0.79375 -0.0725,0.179132 -0.12735,-0.03149 -0.12195,-0.468056 z m 0.80126,0.01907 c 0.0292,-0.353311 0.13579,-0.591317 0.23678,-0.528903 0.17864,0.110402 0.005,1.171287 -0.19147,1.171287 -0.0542,0 -0.0745,-0.289072 -0.0453,-0.642383 z"
       id="path181" /></g></svg>
