<?xml version="1.0" encoding="UTF-8" standalone="no"?>
<!-- Created with Inkscape (http://www.inkscape.org/) -->

<svg
   width="129.65625mm"
   height="20.117729mm"
   viewBox="0 0 129.65625 20.117729"
   version="1.1"
   id="svg5"
   xml:space="preserve"
   inkscape:version="1.2 (dc2aedaf03, 2022-05-15)"
   sodipodi:docname="arduino.svg"
   inkscape:export-filename="arduino.png"
   inkscape:export-xdpi="96"
   inkscape:export-ydpi="96"
   xmlns:inkscape="http://www.inkscape.org/namespaces/inkscape"
   xmlns:sodipodi="http://sodipodi.sourceforge.net/DTD/sodipodi-0.dtd"
   xmlns="http://www.w3.org/2000/svg"
   xmlns:svg="http://www.w3.org/2000/svg"><sodipodi:namedview
     id="namedview7"
     pagecolor="#505050"
     bordercolor="#eeeeee"
     borderopacity="1"
     inkscape:showpageshadow="0"
     inkscape:pageopacity="0"
     inkscape:pagecheckerboard="0"
     inkscape:deskcolor="#505050"
     inkscape:document-units="mm"
     showgrid="false"
     inkscape:zoom="0.96568463"
     inkscape:cx="417.32051"
     inkscape:cy="193.645"
     inkscape:window-width="1366"
     inkscape:window-height="697"
     inkscape:window-x="760"
     inkscape:window-y="592"
     inkscape:window-maximized="1"
     inkscape:current-layer="layer1" /><defs
     id="defs2" /><g
     inkscape:label="Capa 1"
     inkscape:groupmode="layer"
     id="layer1"
     transform="translate(-36.091744,-59.673002)"><path
       style="fill:#ffffff;stroke-width:0.264583"
       d="m 87.684095,79.588914 c -2.152928,-0.817196 -4.37927,-3.652344 -5.337302,-6.796818 -0.717114,-2.353725 -0.772277,-6.535187 -0.110006,-8.338427 0.563494,-1.534285 1.564915,-2.822797 2.616713,-3.366884 1.353206,-0.700001 5.075703,-0.47289 7.986355,0.487251 1.793619,0.591664 1.509091,1.043693 -1.507789,2.395406 -2.514155,1.126469 -2.747563,1.294557 -3.05772,2.202022 -0.259094,0.758056 -0.269071,1.351877 -0.04369,2.59981 0.636818,3.526043 2.035167,5.453809 3.956042,5.453809 1.305563,0 1.473293,-0.29216 0.62348,-1.086019 -1.131395,-1.056901 -1.519841,-2.074256 -1.509101,-3.9524 0.01119,-1.958747 0.274836,-2.608734 1.635207,-4.031582 2.296067,-2.401523 6.678878,-2.319318 8.971866,0.168277 1.13774,1.234304 1.25246,1.476942 1.613,3.41162 l 0.23421,1.256771 h -4.199178 c -4.684559,0 -4.922125,0.1115 -3.425772,1.607852 0.902712,0.902717 1.807402,0.987528 2.605232,0.244231 0.46389,-0.432182 0.93371,-0.529166 2.563428,-0.529166 1.09749,0 1.99544,0.09763 1.99544,0.216958 0,0.119327 -0.41629,0.703303 -0.9251,1.297722 -1.00181,1.170395 -2.704858,1.924593 -4.347548,1.925323 -0.7992,3.44e-4 -1.22571,0.265108 -2.763418,1.715344 -2.790309,2.631581 -5.700815,3.830044 -7.574349,3.1189 z M 99.210052,67.113396 c -0.81847,-1.582751 -3.178491,-1.475985 -3.700077,0.16739 -0.184907,0.58259 -0.146442,0.594297 1.952667,0.594297 h 2.14129 z m -17.57752,8.238209 C 80.809159,74.872838 79.95215,74.64151 78.659044,74.548989 77.65985,74.477499 76.730673,74.284468 76.594206,74.120035 76.457739,73.955603 76.307528,71.95435 76.260403,69.672806 l -0.08568,-4.148262 1.297183,-0.178033 c 1.531842,-0.21024 2.670122,-0.653657 3.643284,-1.419244 l 0.707133,-0.556302 -0.293034,0.995288 c -0.417298,1.417358 -0.388919,6.281906 0.04671,8.006747 0.202142,0.800364 0.583364,1.961224 0.847161,2.579687 0.263798,0.618464 0.454097,1.11257 0.422887,1.098014 -0.03121,-0.01456 -0.577289,-0.329149 -1.213515,-0.699096 z M 65.277543,74.238252 c -0.463655,-0.28271 -0.969671,-0.750688 -1.124479,-1.03995 -0.473559,-0.884852 -0.340206,-2.795935 0.247206,-3.542707 0.57037,-0.725107 2.535475,-1.515929 3.76692,-1.515929 1.226683,0 3.145515,-0.571305 3.303744,-0.983642 0.428487,-1.116617 -2.085793,-1.701517 -2.785332,-0.647955 -0.334116,0.503207 -0.62324,0.573264 -2.365809,0.573264 h -1.985177 l 0.164708,-0.859896 c 0.09059,-0.472942 0.505445,-1.170676 0.921899,-1.550519 1.47932,-1.349263 6.201066,-1.680861 8.429868,-0.59201 1.634016,0.798275 1.925862,1.716138 1.926344,6.058363 2.64e-4,2.538034 0.101139,3.818124 0.31791,4.034896 0.246943,0.246944 -0.194027,0.3175 -1.984375,0.3175 -2.125485,0 -2.301875,-0.04055 -2.301875,-0.529167 0,-0.560238 -0.385281,-0.711449 -0.663935,-0.260575 -0.65401,1.058207 -4.444635,1.40598 -5.867617,0.538327 z m 5.718599,-2.562392 c 0.301603,-0.383427 0.54837,-0.981007 0.54837,-1.327957 0,-0.554054 -0.08854,-0.609596 -0.727604,-0.456422 -1.808081,0.433371 -2.578259,0.79184 -2.664595,1.240203 -0.174639,0.906914 0.16157,1.241316 1.248026,1.241316 0.816422,0 1.168376,-0.153754 1.595803,-0.69714 z m 36.399408,2.707847 c -1.99071,-0.877368 -2.92558,-2.854348 -2.72882,-5.770653 0.14407,-2.135311 0.82061,-3.516193 2.15554,-4.399603 1.41854,-0.938749 3.45894,-0.982942 4.65216,-0.10076 l 0.81591,0.603234 V 62.194462 59.673 h 2.11667 2.11667 v 7.408333 7.408334 h -1.85209 c -1.83136,0 -1.85208,-0.0079 -1.85208,-0.707579 v -0.707579 l -0.59531,0.542224 c -0.32743,0.298223 -0.85538,0.676165 -1.17324,0.83987 -0.77242,0.397825 -2.67338,0.359916 -3.65541,-0.0729 z m 4.36254,-3.013335 c 0.79251,-0.641737 1.01347,-2.573476 0.42462,-3.712194 -1.27758,-2.470554 -4.09226,-0.225417 -3.31875,2.647199 0.40977,1.521761 1.73005,2.007605 2.89413,1.064995 z m 9.40086,2.961065 c -1.33459,-0.488501 -2.68637,-1.789414 -3.07128,-2.95571 -0.50873,-1.541441 -0.20414,-4.321232 0.60792,-5.548351 1.31841,-1.99224 4.39315,-2.886736 7.15901,-2.082679 2.62423,0.762883 4.14487,2.670676 4.15701,5.215383 0.0172,3.603559 -2.30454,5.808191 -6.0796,5.772942 -0.94589,-0.0088 -2.19376,-0.189545 -2.77306,-0.401585 z m 3.24668,-2.392555 c 1.36196,-0.364837 1.90249,-3.590826 0.83009,-4.954159 -0.62822,-0.798652 -1.819,-0.937803 -2.46836,-0.288446 -1.16789,1.167894 -1.06536,4.138352 0.17278,5.005578 0.65663,0.459921 0.64215,0.45758 1.46549,0.237027 z m 19.16875,2.462184 c -2.25327,-0.817192 -3.50279,-2.61975 -3.50279,-5.053113 0,-2.732029 1.20097,-4.531826 3.63057,-5.440857 1.67501,-0.6267 2.72054,-0.66354 4.4091,-0.155358 2.41448,0.72665 3.86356,2.489321 4.20004,5.108946 l 0.14359,1.117893 -4.14113,0.07273 c -3.97118,0.06975 -4.13785,0.09445 -4.06139,0.601899 0.10948,0.726514 1.27383,1.719792 2.016,1.719792 0.33606,0 0.91375,-0.238125 1.28375,-0.529167 0.5291,-0.41619 1.07336,-0.529166 2.54922,-0.529166 1.03208,0 1.8765,0.101455 1.8765,0.225455 0,0.124001 -0.27228,0.630017 -0.60507,1.12448 -1.16895,1.736826 -5.27586,2.651311 -7.79839,1.736464 z m 4.69929,-6.802593 c 0,-0.152135 -0.29224,-0.568854 -0.64943,-0.926042 -1.11861,-1.118616 -3.31932,-0.644909 -3.31932,0.714493 0,0.431098 0.23196,0.488159 1.98438,0.488159 1.20404,0 1.98437,-0.108773 1.98437,-0.27661 z m 7.86885,6.790182 c -1.23195,-0.455186 -1.71161,-0.844721 -2.19775,-1.784808 -0.61669,-1.192551 -0.50721,-1.28918 1.46063,-1.28918 1.60995,0 1.92277,0.08272 2.50151,0.661458 0.71651,0.716511 1.22825,0.814413 2.02582,0.387566 0.63791,-0.341398 0.66592,-1.218141 0.0488,-1.525825 -0.25466,-0.12696 -1.1774,-0.383367 -2.05052,-0.569795 -2.20279,-0.470334 -3.43091,-1.149309 -3.8325,-2.118829 -0.51006,-1.231398 -0.17807,-2.658309 0.81365,-3.497176 2.77423,-2.346619 9.23655,-1.101066 9.23655,1.780258 0,0.298264 -0.40084,0.384426 -1.78843,0.384426 -1.51862,0 -1.83974,-0.08214 -2.12845,-0.544436 -0.4761,-0.762366 -2.30082,-0.64534 -2.30082,0.147561 0,0.553822 0.3937,0.72559 3.67713,1.604291 2.03195,0.543784 3.07012,1.538199 3.06875,2.939419 -10e-4,1.342981 -0.76248,2.528567 -2.01829,3.143667 -1.32096,0.647007 -5.08642,0.809623 -6.51604,0.281403 z M 38.006157,73.961929 c -1.327526,-0.809402 -1.913736,-1.984599 -1.914411,-3.837887 -6.99e-4,-1.920572 0.576821,-3.196677 1.823665,-4.029622 0.866175,-0.578643 1.110269,-0.600587 6.680729,-0.600587 h 5.781706 v 4.497917 4.497917 l -5.754688,-9.79e-4 c -5.275558,-9e-4 -5.826482,-0.04476 -6.617001,-0.526749 z m 2.419481,-2.417001 c 0.360814,-0.164397 0.800721,-0.64823 0.977571,-1.075184 0.446572,-1.078121 -0.339339,-2.16355 -1.648504,-2.276766 -1.779655,-0.153904 -2.550963,1.852156 -1.169136,3.040754 0.811675,0.698173 0.942273,0.72026 1.840069,0.311196 z M 50.907012,67.081333 V 59.673 h 2.116667 2.116666 v 2.68684 c 0,2.537165 0.02579,2.664225 0.463021,2.280865 1.485342,-1.302347 3.210419,-1.566295 4.981009,-0.762125 1.734648,0.787845 2.058083,1.762732 2.181757,6.576191 l 0.103671,4.034896 h -2.144937 -2.144937 v -3.248421 c 0,-3.785772 -0.248271,-4.424496 -1.719792,-4.424496 -1.471521,0 -1.719792,0.638724 -1.719792,4.424496 v 3.248421 h -2.116666 -2.116667 z m 80.168748,2.13757 v -5.270764 l 1.98499,-0.08705 1.98499,-0.08705 2.7e-4,1.058334 2.6e-4,1.058333 0.53397,-0.875817 c 0.53395,-0.87543 1.88152,-1.637725 2.89535,-1.637725 0.49569,0 0.53767,0.165238 0.53767,2.116667 v 2.116667 h -0.99946 c -2.02478,0 -2.70063,1.207237 -2.70323,4.828646 l -0.001,2.050521 h -2.11667 -2.11666 z m 33.53593,-5.752382 c 0.37617,-0.151787 0.45439,-0.883105 0.0945,-0.883105 -0.12995,0 -0.31705,0.20836 -0.41577,0.463021 -0.16999,0.438487 -0.19804,0.437835 -0.52949,-0.0123 -0.7199,-0.977675 0.21039,-2.033553 1.44612,-1.641348 1.06016,0.336485 0.42228,2.337673 -0.71021,2.228071 -0.11871,-0.01149 -0.067,-0.08094 0.11489,-0.154341 z m 0.0837,-1.676855 c 0.28138,0 0.5116,0.115326 0.5116,0.25628 0,0.140954 -0.20836,0.184467 -0.46302,0.0967 -0.37324,-0.128637 -0.36041,-0.0793 0.0661,0.254396 0.54792,0.428646 0.82207,0.192811 0.56243,-0.483809 -0.0819,-0.213481 -0.38662,-0.388147 -0.67711,-0.388147 -0.60705,0 -1.07937,0.739314 -0.84517,1.322917 0.10461,0.260656 0.18918,0.147141 0.24641,-0.330729 0.0614,-0.512841 0.23814,-0.727605 0.59872,-0.727605 z"
       id="path177" /></g></svg>
