<?xml version="1.0" encoding="UTF-8" standalone="no"?>
<!-- Created with Inkscape (http://www.inkscape.org/) -->

<svg
   width="97.603958mm"
   height="22.607758mm"
   viewBox="0 0 97.603958 22.607758"
   version="1.1"
   id="svg5"
   xml:space="preserve"
   inkscape:version="1.2 (dc2aedaf03, 2022-05-15)"
   sodipodi:docname="arduino.svg"
   inkscape:export-filename="arduino.png"
   inkscape:export-xdpi="96"
   inkscape:export-ydpi="96"
   xmlns:inkscape="http://www.inkscape.org/namespaces/inkscape"
   xmlns:sodipodi="http://sodipodi.sourceforge.net/DTD/sodipodi-0.dtd"
   xmlns="http://www.w3.org/2000/svg"
   xmlns:svg="http://www.w3.org/2000/svg"><sodipodi:namedview
     id="namedview7"
     pagecolor="#505050"
     bordercolor="#eeeeee"
     borderopacity="1"
     inkscape:showpageshadow="0"
     inkscape:pageopacity="0"
     inkscape:pagecheckerboard="0"
     inkscape:deskcolor="#505050"
     inkscape:document-units="mm"
     showgrid="false"
     inkscape:zoom="0.96568463"
     inkscape:cx="417.32051"
     inkscape:cy="193.645"
     inkscape:window-width="1366"
     inkscape:window-height="697"
     inkscape:window-x="760"
     inkscape:window-y="592"
     inkscape:window-maximized="1"
     inkscape:current-layer="layer1" /><defs
     id="defs2" /><g
     inkscape:label="Capa 1"
     inkscape:groupmode="layer"
     id="layer1"
     transform="translate(-54.78066,-38.878413)"><path
       style="fill:#ffffff;stroke-width:0.264583"
       d="m 64.275792,61.242653 c -3.416962,-0.60694 -6.114633,-2.43643 -7.860151,-5.33057 -1.587178,-2.6316 -2.057905,-5.935251 -1.239823,-8.701324 0.620451,-2.097853 0.852346,-2.465719 1.313217,-2.08323 0.303444,0.251836 0.378424,1.292644 0.378424,5.252998 v 4.938936 l 1.435884,0.82473 c 0.789736,0.4536 1.504111,0.7565 1.5875,0.67311 0.33537,-0.33537 0.117222,-1.58838 -0.472044,-2.71136 -0.863998,-1.64654 -1.036681,-2.54737 -0.689795,-3.59844 0.591146,-1.79119 2.341514,-1.95311 4.05358,-0.374983 1.813583,1.671703 2.348616,4.386573 1.096333,5.563033 -0.537299,0.50476 -0.661458,0.87384 -0.661458,1.96627 0,1.31099 0.03,1.36299 1.190625,2.06403 0.782255,0.4725 1.190625,0.9029 1.190625,1.25485 0,0.29462 -0.02977,0.52167 -0.06615,0.50456 -0.03638,-0.0171 -0.601927,-0.12629 -1.256771,-0.24261 z m 2.203388,-0.14649 c -0.07349,-0.19151 -0.0615,-0.46487 0.02663,-0.60748 0.08814,-0.1426 2.063217,-1.35554 4.38907,-2.69542 l 4.228824,-2.43614 v -1.80285 -1.80286 l -0.767502,0.44048 c -0.422126,0.24227 -0.963085,0.88379 -1.202132,1.4256 -0.667576,1.5131 -2.065538,2.60722 -3.331239,2.60722 -1.428273,0 -2.108272,-0.70518 -2.104876,-2.18281 0.0071,-3.092253 3.014758,-6.083128 4.884966,-4.857721 0.599684,0.392929 0.723234,0.391383 1.585572,-0.01984 0.921861,-0.439604 0.935211,-0.469357 0.935211,-2.084361 0,-1.111664 0.123865,-1.74119 0.385285,-1.958149 0.559556,-0.46439 0.875233,-0.150705 1.305124,1.296893 1.689143,5.687968 -0.524247,11.197618 -5.481462,13.644658 -2.16544,1.06893 -4.637725,1.59501 -4.853476,1.03278 z m 18.418663,-2.47377 c -1.88299,-0.57897 -2.63038,-1.59591 -2.63038,-3.57905 0,-0.99825 0.15194,-1.37345 0.8763,-2.16386 0.73088,-0.79753 1.09793,-0.97752 2.21172,-1.08454 1.46497,-0.14076 3.26198,0.49421 3.26198,1.15263 0,0.47865 -0.0894,0.46574 -1.11809,-0.16145 -3.12917,-1.907856 -6.40183,2.2684 -3.61512,4.61327 0.93325,0.78527 2.92422,0.92816 3.79159,0.27212 0.28247,-0.21366 0.684,-0.38846 0.89229,-0.38846 0.31755,0 0.32183,0.0685 0.0265,0.42443 -0.63699,0.76752 -2.5978,1.2528 -3.69674,0.91491 z m 5.25937,-0.61174 c -0.1594,-1.12234 0.0894,-4.43177 0.33323,-4.43177 0.13403,0 0.24368,1.13109 0.24368,2.51354 0,1.38245 -0.11078,2.51354 -0.24618,2.51354 -0.1354,0 -0.28423,-0.26789 -0.33073,-0.59531 z m 2.429,0.0662 c -0.4351,-0.43509 -0.52917,-0.88194 -0.52917,-2.51354 0,-1.14653 0.11171,-1.98438 0.26458,-1.98438 0.15062,0 0.26459,0.78008 0.26459,1.81108 0,2.0186 0.41175,2.68684 1.65558,2.68684 1.16439,0 1.51942,-0.62263 1.51942,-2.66473 0,-1.04574 0.11365,-1.83319 0.26458,-1.83319 0.15287,0 0.26458,0.83785 0.26458,1.98438 0,2.40831 -0.44132,3.04271 -2.11666,3.04271 -0.70556,0 -1.23473,-0.17639 -1.5875,-0.52917 z m 5.95185,-0.10951 c -0.35127,-0.35127 -0.71653,-0.94889 -0.81169,-1.32805 -0.21194,-0.84444 0.29749,-2.15353 1.04059,-2.67402 0.72286,-0.50631 2.280267,-0.49314 3.020787,0.0255 0.58444,0.40936 0.58804,0.40369 0.58804,-0.92604 0,-0.73586 0.11906,-1.33792 0.26458,-1.33792 0.16282,0 0.26459,1.32292 0.26459,3.43958 0,2.11667 -0.10177,3.43959 -0.26459,3.43959 -0.14552,0 -0.26458,-0.18535 -0.26458,-0.41188 0,-0.37278 -0.0558,-0.37278 -0.58804,0 -0.91306,0.63953 -2.493667,0.52922 -3.249687,-0.2268 z m 3.289357,-0.58763 c 0.3016,-0.38343 0.54837,-0.96268 0.54837,-1.28724 0,-0.95393 -0.98075,-1.98437 -1.88868,-1.98437 -1.119337,0 -1.715397,0.39055 -2.046747,1.34108 -0.22378,0.64192 -0.20201,0.9873 0.0989,1.56918 0.44123,0.85324 0.72529,1.00844 1.899107,1.0376 0.60837,0.0151 0.99222,-0.17176 1.38906,-0.67625 z m 3.17385,0.45291 c -1.0415,-1.0415 -1.05525,-2.34239 -0.0368,-3.48222 0.57832,-0.64725 0.95129,-0.82438 1.73587,-0.82438 0.58148,0 1.2138,0.19414 1.51237,0.46434 0.46896,0.4244 0.64015,0.34848 0.53615,-0.23779 -0.0218,-0.12279 0.11295,-0.17269 0.2994,-0.11089 0.23501,0.0779 0.36233,0.85656 0.41507,2.53834 0.066,2.10564 0.0186,2.426 -0.35903,2.426 -0.27807,0 -0.38015,-0.14325 -0.28282,-0.39688 0.0838,-0.21828 0.0515,-0.39687 -0.0716,-0.39687 -0.12313,0 -0.3721,0.17859 -0.55326,0.39687 -0.19116,0.23034 -0.76841,0.39688 -1.37566,0.39688 -0.80365,0 -1.22565,-0.17936 -1.81969,-0.7734 z m 3.33873,-0.29718 c 0.68745,-0.75963 0.60809,-2.34287 -0.14812,-2.95522 -0.88668,-0.71799 -2.22688,-0.61351 -2.88647,0.22502 -1.12091,1.425 -0.24802,3.27161 1.54649,3.27161 0.66963,0 1.15938,-0.17819 1.4881,-0.54141 z m 3.53786,0.73143 c -1.22674,-0.94186 -1.39532,-2.93294 -0.33787,-3.9904 0.83119,-0.83119 2.53739,-0.96477 3.31653,-0.25965 0.4628,0.41883 0.48385,0.37854 0.48385,-0.92605 0,-0.75015 0.11906,-1.36392 0.26459,-1.36392 0.16281,0 0.26458,1.32292 0.26458,3.43958 0,2.11667 -0.10177,3.43959 -0.26458,3.43959 -0.14553,0 -0.26459,-0.19705 -0.26459,-0.43789 0,-0.40745 -0.0336,-0.40745 -0.48385,0 -0.56694,0.51308 -2.36152,0.57256 -2.97866,0.0987 z m 2.93335,-0.71919 c 0.32758,-0.32758 0.52916,-0.88194 0.52916,-1.45521 0,-1.17895 -0.77165,-1.98437 -1.90117,-1.98437 -1.78074,0 -2.72815,2.10159 -1.5281,3.38969 0.70073,0.75215 2.17253,0.77747 2.90011,0.0499 z m 5.55625,-2.41894 v -3.47727 l 1.65364,0.16821 c 1.71142,0.17409 2.57969,0.75627 2.57969,1.72969 0,0.7251 -0.76564,1.59455 -1.59478,1.81101 l -0.77732,0.20293 1.20749,1.52135 c 0.79669,1.00379 1.07114,1.52136 0.80673,1.52136 -0.22042,0 -0.96201,-0.71438 -1.64797,-1.5875 -0.68597,-0.87313 -1.34871,-1.5875 -1.47277,-1.5875 -0.12405,0 -0.22555,0.71437 -0.22555,1.5875 0,0.88194 -0.11759,1.5875 -0.26458,1.5875 -0.16297,0 -0.26458,-1.33548 -0.26458,-3.47728 z m 2.92781,-0.50078 c 0.57206,-0.30616 0.68034,-1.30379 0.19427,-1.78986 -0.17463,-0.17463 -0.82947,-0.3175 -1.45521,-0.3175 h -1.13771 v 1.19062 c 0,1.18851 0.002,1.19063 0.94344,1.19063 0.51889,0 1.17373,-0.12325 1.45521,-0.27389 z m 3.2385,3.33951 c -0.60911,-0.52394 -0.74236,-0.85254 -0.74236,-1.83077 0,-1.63722 0.85244,-2.55777 2.3685,-2.55777 1.30451,0 2.11138,0.51101 2.48098,1.57125 0.23868,0.68466 0.20592,0.80735 -0.25463,0.95352 -0.2907,0.0923 -1.26487,0.12748 -2.16482,0.0783 -1.48379,-0.0812 -1.64353,-0.0388 -1.71407,0.45427 -0.19244,1.34513 2.09026,2.00359 3.23093,0.93198 0.36348,-0.34146 0.69596,-0.47871 0.79022,-0.3262 0.0895,0.14481 -0.15212,0.51095 -0.53693,0.81365 -0.97782,0.76915 -2.50642,0.73016 -3.45782,-0.0882 z m 3.62327,-2.65374 c 0,-1.03834 -2.3122,-1.58958 -3.22031,-0.76775 -0.95296,0.86242 -0.61115,1.14962 1.36823,1.14962 1.43756,0 1.85208,-0.0855 1.85208,-0.38187 z m 2.64583,1.04333 c 0,-2.07257 -0.0415,-2.24896 -0.52916,-2.24896 -0.29105,0 -0.52917,-0.11906 -0.52917,-0.26458 0,-0.14552 0.23812,-0.26459 0.52917,-0.26459 0.42837,0 0.52916,-0.17639 0.52916,-0.92604 0,-0.50932 0.11906,-0.92604 0.26459,-0.92604 0.14552,0 0.26458,0.41672 0.26458,0.92604 0,0.74965 0.10079,0.92604 0.52917,0.92604 0.29104,0 0.52916,0.11907 0.52916,0.26459 0,0.14552 -0.23812,0.26458 -0.52916,0.26458 -0.48767,0 -0.52917,0.17639 -0.52917,2.24896 0,1.32291 -0.10895,2.24896 -0.26458,2.24896 -0.15564,0 -0.26459,-0.92605 -0.26459,-2.24896 z m 3.06623,1.43491 c -0.95837,-1.13896 -0.92529,-2.42593 0.0884,-3.43964 2.05389,-2.05389 5.23273,0.1983 4.09593,2.90195 -0.40926,0.97334 -1.09431,1.35174 -2.44716,1.35174 -0.85014,0 -1.18376,-0.15634 -1.73719,-0.81405 z m 3.28377,-0.24429 c 0.3161,-0.3161 0.52917,-0.88194 0.52917,-1.40532 0,-1.86044 -2.00656,-2.69759 -3.31932,-1.38483 -0.79367,0.79367 -0.8285,1.69739 -0.10106,2.62218 0.68712,0.87353 2.10337,0.95581 2.89121,0.16797 z m 2.43225,-1.36729 c 0.0551,-1.6444 0.18781,-2.46105 0.41202,-2.53559 0.1819,-0.0605 0.33073,0.097 0.33073,0.34997 0,0.42881 0.0327,0.4303 0.48386,0.022 0.59238,-0.5361 1.88223,-0.56848 2.57139,-0.0645 0.41467,0.30321 0.52882,0.77531 0.60776,2.51354 0.0657,1.44562 0.002,2.14021 -0.19541,2.14021 -0.17729,0 -0.2926,-0.55793 -0.2926,-1.41573 0,-0.77865 -0.13071,-1.79068 -0.29047,-2.24895 -0.24537,-0.70389 -0.42383,-0.83324 -1.14961,-0.83324 -1.33563,0 -1.78369,0.69911 -1.76789,2.75841 0.0106,1.38595 -0.0684,1.73951 -0.38886,1.73951 -0.33655,0 -0.38894,-0.39595 -0.32092,-2.42563 z m 6.73723,2.12598 c -0.26829,-0.15596 -0.64442,-0.65839 -0.83584,-1.1165 -1.14945,-2.75103 2.15368,-4.9693 4.16792,-2.79905 0.95834,1.03257 0.97416,2.29409 0.0426,3.40115 -0.56602,0.67267 -0.87618,0.81265 -1.78594,0.806 -0.60552,-0.004 -1.32047,-0.13565 -1.58877,-0.2916 z m 2.91816,-0.80481 c 0.76186,-0.71573 0.78705,-1.7771 0.064,-2.69632 -1.1461,-1.45703 -3.42038,-0.56794 -3.42038,1.33712 0,1.76083 2.04665,2.58964 3.35639,1.3592 z m -61.253387,-5.42206 c 0.12873,-0.663774 0.747,-0.754917 0.747,-0.11012 0,0.325 -0.17084,0.55122 -0.41627,0.55122 -0.24639,0 -0.38137,-0.18002 -0.33073,-0.4411 z m 52.179977,0.12865 c -0.21879,-0.35053 0.40162,-0.48638 1.74283,-0.38162 1.30551,0.10197 2.08425,0.3835 1.30631,0.47225 -1.074,0.12252 -2.95092,0.0667 -3.04914,-0.0906 z M 82.267463,44.847636 v -3.439583 h 1.5875 c 1.51694,0 1.5875,0.0294 1.5875,0.661458 0,0.597197 -0.10461,0.661459 -1.07674,0.661459 -0.96528,0 -1.06798,0.06162 -0.99219,0.595312 0.0679,0.478189 0.27975,0.611469 1.07674,0.67743 0.77728,0.06433 0.99219,0.193275 0.99219,0.595312 0,0.422339 -0.18737,0.513196 -1.05834,0.513196 h -1.05833 v 1.5875 c 0,1.411111 -0.0588,1.5875 -0.52917,1.5875 -0.50203,0 -0.52916,-0.176389 -0.52916,-3.439584 z m 4.10731,2.976563 c 0.10735,-0.254662 0.69835,-1.772709 1.31334,-3.373438 0.96646,-2.515572 1.20553,-2.921051 1.76221,-2.988802 0.59619,-0.07256 0.737,0.163452 1.89432,3.175 0.68763,1.789362 1.24829,3.342682 1.24591,3.451823 -0.0121,0.55402 -1.09324,0.113061 -1.45955,-0.595312 -0.37053,-0.716519 -0.5354,-0.79375 -1.69449,-0.79375 -1.17724,0 -1.31136,0.06601 -1.6128,0.79375 -0.24061,0.580876 -0.50516,0.79375 -0.98645,0.79375 -0.52432,0 -0.61809,-0.09389 -0.46249,-0.463021 z m 3.62746,-3.375317 c -0.4228,-1.140757 -0.45526,-1.16659 -0.74811,-0.595313 -0.16837,0.328456 -0.38852,0.865083 -0.48923,1.192505 -0.16586,0.539279 -0.0954,0.595312 0.74811,0.595312 h 0.9312 z m 3.90689,0.398754 v -3.439583 h 0.62839 c 1.33853,0 2.33233,0.359971 2.74887,0.995689 0.39847,0.608143 0.39825,0.714858 -0.003,1.413814 -0.3474,0.605303 -0.36548,0.796524 -0.0907,0.959196 0.72946,0.431811 1.01523,1.390453 0.6659,2.233814 -0.38321,0.925126 -1.14764,1.276654 -2.7762,1.276654 h -1.1734 z m 2.86262,1.389489 c 0.0626,-0.440529 -0.0977,-0.66414 -0.61752,-0.861788 -0.90804,-0.34524 -1.18676,-0.150874 -1.18676,0.827594 0,0.737427 0.0622,0.788905 0.85989,0.71199 0.65886,-0.06353 0.87965,-0.22199 0.94439,-0.677796 z m -0.52911,-2.778551 c -0.0543,-0.382576 -0.29728,-0.625526 -0.67986,-0.679861 -0.48485,-0.06886 -0.59531,0.04161 -0.59531,0.595313 0,0.553703 0.12615,0.67986 0.67986,0.67986 0.5537,0 0.66417,-0.110468 0.59531,-0.595312 z m 3.22274,1.402266 c 0,-3.276398 0.027,-3.452787 0.52917,-3.452787 0.495367,0 0.529167,0.176389 0.529167,2.762153 v 2.762154 l 0.99218,0.08212 c 0.78843,0.06525 0.99219,0.19079 0.99219,0.611284 0,0.458614 -0.20284,0.539747 -1.52135,0.608517 l -1.521357,0.07935 z m 3.703527,3.227942 c -2.7e-4,-0.109141 0.56519,-1.661732 1.25677,-3.450203 1.15378,-2.983781 1.30941,-3.24544 1.88837,-3.175 0.54361,0.06614 0.80914,0.531659 1.91822,3.362965 0.70801,1.80741 1.28728,3.325457 1.28728,3.373437 0,0.04798 -0.28964,0.08724 -0.64363,0.08724 -0.43603,0 -0.70355,-0.192014 -0.82941,-0.595313 -0.25367,-0.812858 -0.58565,-0.983412 -1.92338,-0.988136 -1.03355,-0.0036 -1.17721,0.07475 -1.44707,0.789699 -0.21227,0.562356 -0.47553,0.79375 -0.90306,0.79375 -0.3319,0 -0.60374,-0.0893 -0.60409,-0.198439 z m 3.96939,-2.627048 c 0,-0.387686 -0.6453,-1.937014 -0.80677,-1.937014 -0.0942,0 -0.35837,0.47625 -0.58702,1.058333 l -0.41573,1.058333 h 0.90476 c 0.49762,0 0.90476,-0.08084 0.90476,-0.179652 z m 3.43958,-0.61596 v -3.505047 l 1.3256,0.127374 c 0.75027,0.07209 1.5541,0.334164 1.85208,0.603836 0.56161,0.508246 0.70342,1.699184 0.25565,2.146951 -0.18472,0.184724 -0.1006,0.424894 0.26459,0.755382 0.70771,0.640476 0.70582,2.01839 -0.004,2.660464 -0.35372,0.320107 -1.08155,0.527101 -2.11667,0.601975 l -1.5776,0.114112 z m 3.02413,1.67468 c 0.19483,-0.507735 -0.24053,-1.005876 -1.1059,-1.265376 -0.53947,-0.161772 -0.59531,-0.08998 -0.59531,0.765354 0,0.8646 0.0643,0.943871 0.76544,0.943871 0.47232,0 0.83067,-0.169969 0.93577,-0.443849 z m -0.51059,-3.128026 c 0,-0.347326 -0.20457,-0.558221 -0.59531,-0.613715 -0.48833,-0.06935 -0.59531,0.04093 -0.59531,0.613715 0,0.572786 0.10698,0.683069 0.59531,0.613714 0.39074,-0.05549 0.59531,-0.266389 0.59531,-0.613714 z m -49.476487,3.419633 c -1.248913,-0.651202 -1.720381,-1.194874 -1.720381,-1.983853 0,-0.550925 -0.229452,-0.872972 -0.930807,-1.306433 l -0.930806,-0.57527 -1.283156,0.823399 c -1.226905,0.787302 -2.146898,0.873527 -2.146898,0.201213 0,-0.550029 3.14937,-3.305342 4.550326,-3.980977 4.375494,-2.110157 9.617896,-1.158792 13.030624,2.364734 0.807977,0.834209 1.46905,1.604548 1.46905,1.711863 0,0.704432 -1.133895,0.36301 -3.669301,-1.104845 -1.547145,-0.895709 -3.50236,-2.024693 -4.344922,-2.508854 l -1.531932,-0.880293 -1.587851,0.880063 -1.587852,0.880063 0.654171,0.428629 c 0.424527,0.278161 1.194629,0.42248 2.193741,0.411112 1.866793,-0.02124 2.745158,0.289842 3.4892,1.235738 0.984351,1.2514 0.541499,2.477503 -1.224732,3.390856 -1.055155,0.545642 -3.393645,0.55243 -4.428474,0.01285 z"
       id="path5115"
       inkscape:export-filename="..\Desktop\Pagina robotica\images\path5115.png"
       inkscape:export-xdpi="96"
       inkscape:export-ydpi="96" /></g></svg>
