<?xml version="1.0" encoding="UTF-8"?>
<svg id="Capa_2" data-name="Capa 2" xmlns="http://www.w3.org/2000/svg" viewBox="0 0 160.48 181.78">
  <defs>
    <style>
      .cls-1 {
        fill: #009640;
      }

      .cls-2 {
        fill: #009fe3;
      }
    </style>
  </defs>
  <g id="Capa_1-2" data-name="Capa 1">
    <g>
      <path class="cls-2" d="m40.25,176.27c-3.16,2.39-6.16,6-7.53,5.46-5.38-2.11.05-5.7-.33-9.09-2.61-1.28-5.42-2.62-8.19-4.04-6.16-3.17-7.95-8.06-5.17-14.45,1.78-4.1,3.99-8.02,5.53-12.2.53-1.43.14-3.82-.79-5.03-2.31-3.01-5.07-5.7-7.84-8.3-2.31-2.17-2.84-4.35-.98-6.97,3.46-4.86,4.23-9.77.52-14.91-.65-.9-1.04-2.12-1.19-3.24-.78-5.77-4.1-8.97-9.7-10.12-3.76-.77-4.84-3.13-4.51-6.94.49-5.6.56-11.27.42-16.9-.09-3.62,1.26-5.9,4.72-6.37,6-.83,9.26-4.19,10.41-9.98.19-.95.61-1.95,1.2-2.71,3.73-4.9,3.84-9.81.41-14.92-1.76-2.62-1.16-4.83,1.21-6.96,4.44-3.99,8.78-8.09,12.94-12.38,2.48-2.56,4.83-3.24,7.79-1.07,4.58,3.35,9.23,3.83,14.03.38.78-.56,1.8-.97,2.75-1.11,6.16-.91,10.09-4.06,11.24-10.43.56-3.13,2.71-4.13,5.85-3.98,5.96.29,11.94.38,17.9.33,3.28-.02,5.58,1.04,6.11,4.43.95,6.01,4.12,9.77,10.25,10.84.79.14,1.61.53,2.25,1.01,5.05,3.83,10.13,3.92,15.41.45,2.69-1.77,4.87-.85,6.94,1.44,4.01,4.42,8.11,8.77,12.38,12.94,2.36,2.31,3.27,4.56,1.12,7.34-3.79,4.89-3.84,9.81-.4,14.9.54.8.93,1.81,1.07,2.76.89,6.08,4.33,9.51,10.36,10.67,3.01.58,4.24,2.62,4.04,5.84-.38,6.29-.19,12.62-.81,18.87-.17,1.76-2.1,4.45-3.65,4.79-6.29,1.39-10.21,4.67-11.48,11.07-.22,1.1-.78,2.23-1.48,3.13-3.37,4.35-3.12,8.66-.19,13.09,2.22,3.36,1.42,5.99-1.63,8.59-4.16,3.54-8.11,7.36-11.89,11.31-2.54,2.65-4.95,3.71-8.17,1.33-4.52-3.33-9.13-4.04-13.93-.44-.89.67-2.11,1.06-3.23,1.23-6.09.9-9.56,4.41-10.78,10.35-.7,3.41-2.94,4.42-6.23,4.17-4.63-.35-9.3-.24-13.9-.76-3.26-.37-4.77.93-5.91,3.74-1.49,3.68-3.26,7.25-5.03,10.8-3.17,6.36-8.37,8.19-14.88,5.31-2.72-1.2-5.39-2.51-7.03-3.27Zm32.18-22.63c3.23,0,6.11-.39,8.84.09,4.94.86,6.95-1.46,8.49-5.76.83-2.31,2.89-4.8,5.05-5.87,5.3-2.61,10.96-4.52,16.54-6.51,1.4-.5,3.66-.91,4.56-.17,6.94,5.65,11.8,2.45,16.32-3.3.91-1.16,2.36-1.94,3.13-3.17.66-1.07,1.41-3,.91-3.73-4.24-6.29-2.73-11.86,1.16-17.68,1.79-2.68,2.17-6.26,3.69-9.16.96-1.83,2.57-3.88,4.39-4.62,8.05-3.29,8.11-3.14,8.21-11.67,0-.66-.08-1.35.05-1.99,1.08-5.23-.67-8.5-6.19-9.51-3.7-.68-5.15-3.16-6.09-6.82-1.22-4.76-3.75-9.16-5.31-13.85-.66-1.97-.98-4.58-.24-6.4,3.24-8,3.4-7.94-2.48-14.04-.92-.96-2-1.8-2.73-2.89-2.14-3.18-4.57-3.77-7.85-1.59-3.94,2.63-7.63,2.48-11.86-.28-3.81-2.48-8.55-3.49-12.67-5.57-1.84-.93-4.27-2.69-4.55-4.38-1.13-6.89-5.25-8.74-11.44-8.16-1.31.12-2.68.09-3.97-.16-3.95-.78-6.35.62-7.1,4.64-.89,4.79-3.71,7.09-8.56,8.17-4.45.99-8.54,3.49-12.9,4.97-1.83.62-4.63,1.24-5.85.33-6.17-4.59-10.71-2.72-14.86,2.73-.79,1.04-1.81,1.98-2.9,2.71-2.9,1.96-3.27,4.25-1.34,7.09,2.95,4.33,2.5,8.28-.36,12.75-2.37,3.69-3.33,8.26-5.28,12.25-.85,1.75-2.48,4.13-4.02,4.36-7.7,1.11-9.35,5.86-8.57,12.54.13,1.14.12,2.35-.09,3.47-.71,3.79.87,5.61,4.54,6.68,2.97.87,6.3,1.4,7.43,5.6,1.45,5.38,4.08,10.44,5.74,15.77.66,2.1.8,4.89-.05,6.83-3.15,7.26-3.32,7.15,2.08,12.81.79.83,1.29,1.94,2,3.04,8.06-12.48,10.28-24.33,5.25-38.01-2.56-6.95-2.8-15.47-1.7-22.93,3.45-23.37,24.05-40.41,47.63-40.66,23.83-.26,44.1,16.43,48.73,40.12,4.46,22.78-8.11,46.64-30.19,54.38-13.65,4.79-21.17,13.88-25.6,27.56Zm-8.09-60.58c-2.06-.47-3.82-.81-5.55-1.28-7.81-2.12-12.84-7.92-11.8-15.54.9-6.61,3.35-13.05,5.48-19.44.3-.9,3.21-1.96,4.06-1.47,5.14,2.96,10.52,5.8,14.9,9.71,8.12,7.24,7.7,16.76-.25,24.24-1.16,1.09-2.66,2.35-2.93,3.74-.89,4.69-1.29,9.47-1.94,14.71,4.72-4.31,10.04-7.04,11.44-14.21,1.43-7.3,7.46-11.36,14.86-10.36,6.76.91,13.31,3.53,19.85,5.71.73.25,1.52,3.02,1.02,3.85-3.26,5.34-6.28,11.01-10.49,15.54-6.87,7.39-17.61,6.43-23.99-1.34-.79-.96-1.56-1.93-2.38-2.95-13.59,9.2-18.28,23.73-24.85,37.46,5.33,2.53,10.21,4.83,15.8,7.49,4.7-16.61,16.96-24.15,31.71-30.54,19.63-8.5,28.12-31.67,21.07-51.63-7.31-20.69-28.04-32.3-49.48-27.73-25.32,5.39-39.68,31.61-30.8,56.52,2.62,7.35,4.22,14.77,2.04,22.38-1.53,5.35-3.93,10.45-6.12,16.1,4.09,1.93,8.16,3.85,12.45,5.87,6.77-15.47,15.58-29.57,15.89-46.82Zm-1.87,64.29c.43-.18.86-.37,1.29-.55-.38-1.05-.46-2.7-1.18-3.05-9.19-4.51-18.45-8.87-27.77-13.1-.8-.36-2.15.52-4.15,1.07,1.64,1.17,2.01,1.51,2.43,1.74,2.25,1.21,5.74,2,3.93,5.41-.53,1.01-4.11.31-6.27.6-1.21.17-2.36.76-3.54,1.17,5.2,3.67,10,5.87,14.73,8.2,2.12,1.05,5.38,2.04,3.31,5.18-.68,1.04-4.09,1.13-5.81.48-5-1.89-9.77-4.37-14.86-6.73.39,5,2.74,6.49,24.91,15.71,1.66.69,3.76.32,5.11.41-1.53-3.04-2.69-5.34-3.84-7.63,2.62-.3,5.23-.59,8.9-1.01-.48-.78-.89-2.37-1.88-2.9-3.91-2.12-8.14-3.69-11.95-5.96-1.26-.75-1.61-3.02-2.38-4.6,1.72-.34,3.73-1.41,5.11-.87,4.76,1.85,9.31,4.26,13.93,6.45Zm-7.92-99.4c-1.57,6.96-3.64,12.91-4.08,18.98-.52,7.17,6,12.26,14.19,11.43-1.83-5.49-3.61-10.81-5.38-16.12.78-.27,1.55-.54,2.33-.81,2.28,5.07,4.56,10.14,6.94,15.42,4.33-2.88,5.54-7.34,4.56-11.97-1.97-9.28-10.29-12.01-18.56-16.93Zm56.45,33.95c-8.68-3.67-16.16-7.61-24.66-3.89-3.79,1.66-5.72,5.07-6.08,9.42,5.84-.49,11.2-4,16.7-.37-2.75,1.33-5.61,1.54-8.38,2.17-2.83.64-5.57,1.7-8.46,2.62,5.39,9.1,13.88,10.51,20.7,3.43,3.62-3.76,6.4-8.34,10.18-13.37Z"/>
      <path class="cls-1" d="m54.54,57.95c8.27,4.92,16.58,7.65,18.56,16.93.99,4.64-.23,9.09-4.56,11.97-2.38-5.29-4.66-10.36-6.94-15.42-.78.27-1.55.54-2.33.81,1.77,5.32,3.55,10.63,5.38,16.12-8.19.83-14.71-4.25-14.19-11.43.44-6.07,2.51-12.02,4.08-18.98Z"/>
      <path class="cls-1" d="m111,91.9c-3.78,5.03-6.56,9.61-10.18,13.37-6.82,7.09-15.3,5.67-20.7-3.43,2.9-.91,5.63-1.97,8.46-2.62,2.76-.63,5.63-.84,8.38-2.17-5.5-3.63-10.86-.12-16.7.37.35-4.35,2.29-7.76,6.08-9.42,8.5-3.72,15.98.22,24.66,3.89Z"/>
    </g>
  </g>
</svg>