<?xml version="1.0" encoding="UTF-8"?>
<svg id="Capa_2" data-name="Capa 2" xmlns="http://www.w3.org/2000/svg" viewBox="0 0 462.52 462.65">
  <defs>
    <style>
      .cls-1 {
        fill: #009fe3;
      }
    </style>
  </defs>
  <g id="Capa_1-2" data-name="Capa 1">
    <g>
      <path class="cls-1" d="m2.89,271.22c-2.06-4.78.04-10.1-1.96-14.89-.18-.43-.16-.96-.19-1.45-.81-16.13-1.17-32.27.06-48.39.35-4.56,1.22-9.08,1.93-13.6.23-1.47.51-2.9.24-4.39.78-3.92,1.57-7.85,2.35-11.77,1.16-3.95,2.32-7.9,3.48-11.85.88-3.85,2.25-7.57,3.45-11.3,1.21-3.78,3.04-7.41,4.35-11.2,2.17-4.71,4.34-9.41,6.5-14.12,1.82-3.5,3.63-7.01,5.45-10.51h-.03c.17-.22.34-.44.52-.66,2.23-3.56,4.56-7.05,6.35-10.86,3.54-3.34,5.38-7.92,8.47-11.58,1.25-1.04,2.06-2.41,2.86-3.78l7.09-8.64c5.48-5.73,10.96-11.46,16.42-17.2.32-.34.72-.71.27-1.24,2.9-.76,4.35-3.28,6.29-5.2,1.79-1.59,3.59-3.17,5.38-4.76,3.31-2.75,6.63-5.49,9.94-8.24,1.09-.69,2.33-1.18,3.13-2.26,3.63-2.64,7.52-4.93,10.91-7.9,4.04-1.96,7.87-4.26,11.46-6.96,3.66-1.44,7.08-3.35,10.46-5.34.44-.23.89-.46,1.33-.69,4.16-1.9,8.33-3.8,12.49-5.7,7.46-2.63,14.74-5.78,22.38-7.91.33.09.57,0,.68-.33v.04c3.91-.86,7.82-1.73,11.73-2.59,3.92-.78,7.85-1.57,11.77-2.35,7.3-1.24,14.7-1.63,22.02-2.49C219.83-.02,229.11.47,238.39.04c6.58-.31,12.99,1.38,19.56,1.51,4.63.09,9.32.72,13.85,2,2.64-.15,5.03,1.43,7.69,1.14.78.06,1.55.11,2.33.17,0,0,0,0,0,0,4.17,1.81,8.7,2.2,13.02,3.44,4.93,1.76,10.09,2.75,14.98,4.71,2.38.95,4.58,2.7,7.38,2.51,4.7,2.23,9.31,4.66,14.22,6.42.83.4,1.65.8,2.48,1.2,2.9,1.58,5.55,3.64,8.74,4.68,3.49,2.04,6.74,4.5,10.45,6.16.7.76,1.55,1.27,2.51,1.62,2.98,2.39,6.12,4.56,9.41,6.52,12.74,9.74,24.84,20.2,35.76,31.97,8.14,8.77,15.51,18.13,22.38,27.95,7.83,11.19,14.76,22.86,20.06,35.42,4.09,9.69,7.92,19.49,10.58,29.73,1.82,6.97,3.01,14.06,4.76,21.01,2.19,8.73,2.21,17.6,2.85,26.44.37,5.08,1.31,10.1,1.09,15.23-.51,11.94-.8,23.86-2.68,35.75-2.22,14.02-5.11,27.85-9.54,41.31-3.52,10.71-8.1,21.03-13.41,30.98-8.12,15.23-17.81,29.42-29.01,42.54-7.64,8.95-15.87,17.37-24.77,25.06-9.25,7.99-18.95,15.36-29.3,21.97-9.21,5.88-18.74,11.06-28.62,15.58-8.24,3.77-16.75,6.95-25.46,9.52-3.7,1.09-7.37,2.3-11.12,3.18-5.05,1.18-10.14,2.2-15.25,3.09-4.04.71-8.13,1.13-12.19,1.69-.48.07-.95.25-1.43.29-8.81.68-17.53,2.02-26.45,1.78-10.62-.29-21.19-.72-31.73-2.08-4.44-.57-8.98-.43-13.35-1.55-8.03-2.05-16.24-3.21-24.19-5.77-5.72-1.85-11.38-3.86-17.01-5.94-9.27-3.43-18.14-7.78-26.8-12.56-13.87-7.67-26.73-16.86-38.71-27.15-10.74-9.22-20.68-19.34-29.65-30.34-3.28-4.02-6.48-8.11-9.71-12.17-2.37-3.41-4.74-6.81-7.11-10.22-.38-.54-.76-1.08-1.13-1.62-2.04-3.52-4.07-7.04-6.11-10.56.06-.35-.09-.55-.44-.61h0c-1.14-2.84-2.55-5.54-4.2-8.11l-.05-.12c.06-.76-.37-1.12-1.04-1.29-.05-.93.04-1.93-1.13-2.32-.96-4.18-2.95-7.95-4.81-11.76-.04-.2-.08-.4-.13-.61-.14-.23-.28-.47-.41-.7-.25-2.64-2.03-4.72-2.6-7.29-.92-4.15-3.21-7.88-4.04-12.08-.33-3.39-1.74-6.48-2.79-9.65-.88-2.67-.02-5.68-1.82-8.09.08-3.02-1.52-5.77-1.38-8.8Zm197.91,30.66l.08-.06c.18-.18.35-.35.53-.53l.05-.06c4.26-3.96,8.43-8.01,12.28-12.37,0,0,.12-.1.12-.1.16-.16.31-.31.47-.47l.1-.12c3.95-3.47,7.65-7.18,11.12-11.12l.12-.11c.15-.15.3-.31.45-.46,0,0,.12-.14.12-.14,1.56-1.46,3.23-2.82,4.66-4.4,1.66-1.82,3-1.72,4.6.07,1.92,2.15,3.73,4.45,6.25,5.98.01.13.08.2.22.22,1.51,2.28,3.41,4.17,5.69,5.69.01.13.09.2.22.22,4.27,5.03,8.92,9.69,13.96,13.96.01.13.08.2.21.21,2.33,2.92,4.75,5.75,7.97,7.76,7.43,7.85,16.43,13.43,26.33,17.5,7.46,3.07,15.23,5.2,23.34,5.87,2.01.11,4.02.33,6.03.3,5.24-.06,10.5.47,15.69-.67,6.13-.3,12.02-1.86,17.75-3.85,15.15-5.27,28.05-13.94,38.53-26.15,4.41-5.13,8.45-10.56,11.42-16.59,2.76-5.6,5.45-11.25,6.89-17.49,1.3-5.59,2.38-11.16,2.82-16.87.84-4.5.95-9.01.02-13.51.27-4.13-.47-8.23-1.33-12.17-2.51-11.63-6.8-22.55-13.8-32.39-8.42-11.85-18.83-21.36-31.53-28.34-10.48-5.76-21.88-8.76-33.7-9.77-10.92-.94-21.82-.2-32.48,2.64-9.17,2.44-17.54,6.59-25.39,11.87-8.87,5.97-15.93,13.93-23.53,21.31-7.61,7.38-14.72,15.26-22.68,22.28-1.59,1.4-2.54,1.13-3.92-.22-2.85-2.82-5.52-5.81-8.44-8.57-5.78-5.47-11.44-11.08-16.91-16.86-12.23-12.92-25.82-23.66-43.38-28.47-4.97-1.36-9.86-2.92-15.08-2.85-.33-.8-1.04-.8-1.73-.84-6.1-.36-12.19-.32-18.29,0-.62.03-1.17.17-1.42.83-6.13-.17-11.8,1.73-17.62,3.42-10.25,2.99-19.13,8.27-27.24,14.91-12.07,9.89-21.79,21.69-27.57,36.38-2.23,5.67-4.36,11.41-4.77,17.59-.56,2.03-1.02,4.07-.78,6.2-.71,4.35-.6,8.73-.35,13.11-.1.19-.08.38.05.55,0,.6.02,1.21.02,1.81-.13.18-.13.37,0,.55.18,7.4,1.49,14.52,3.75,21.65,3.51,11.1,9.19,20.86,16.64,29.57,8.95,10.47,19.74,18.61,32.43,24.3,8.49,3.81,17.33,6.36,26.47,6.97,12.64.84,25.27.36,37.5-3.94,10.38-3.65,19.9-8.65,28.24-15.85,1.71-.83,2.95-2.18,4.09-3.66.22-.22.45-.44.67-.65.18-.17.35-.34.53-.51l.67-.61c.19-.19.38-.37.57-.56l.02-.02c.19-.19.39-.38.58-.57,0,0,.01-.01.01-.01.19-.19.37-.39.56-.58l.02-.02c.18-.19.36-.39.54-.58l.04-.05c.17-.18.34-.36.51-.54Z"/>
      <path class="cls-1" d="m151.88,287.73c-.38.07-.76.14-1.14.2-1.14-.1-2.13.23-2.99.98-.97.04-1.95.09-2.92.13-5.07,1.22-10.22.59-15.34.65-13.21-1.34-23.36-8.11-31.76-17.96-9.09-10.66-11.92-23.16-10.38-36.75,1.62-14.34,8.87-25.46,20.43-33.9,5.57-4.07,11.72-6.74,18.55-7.84.86-.14,1.69-.43,2.54-.65,5.74-.02,11.51-.58,17.14,1.09.78.05,1.55.1,2.33.15,1.6,1.48,3.82,1.17,5.65,1.98,0,0,.16,0,.16-.01.64.63,1.38,1.04,2.28,1.18,0,0,.05-.01.05-.02,1.27,1.54,3.28,1.72,4.89,2.64.18.06.37.11.56.14.2.19.4.38.6.57.19.5.61.68,1.08.8.42,1,1.41,1.29,2.25,1.76,0,0,.04.03.04.02.46,1.17,1.62,1.51,2.54,2.14,0,0,.01.01.01.01.19.6.63.93,1.2,1.11,0,0,.04.04.04.04.15.61.61.92,1.14,1.16,0,0,.02.03.02.03,8.33,9.75,18.12,18.08,26.77,27.52.35.38,1.06.44,1.6.65,0,0,.13.13.13.13.53.96,1.27,1.71,2.24,2.24,0,0,.13.13.13.13.64,1.16,2.07,1.97,1.59,3.63-.19.25-.39.49-.58.74-.16.16-.31.31-.47.47,0,0-.11.09-.11.09-.17.17-.34.33-.51.5,0,0-.08.1-.08.1-.16.16-.32.32-.47.48-.23.23-.47.47-.7.7-1.58,1.12-2.95,2.45-4.04,4.05-.23.23-.47.46-.7.69-.16.16-.32.32-.47.47-.23.23-.46.46-.69.7-1.99,1.5-3.72,3.26-5.24,5.24,0,0-.08.06-.08.06-.17.17-.34.34-.5.51,0,0-.09.11-.09.11-.16.16-.31.31-.47.47-.24.23-.47.46-.71.7-.78.34-1.35.9-1.69,1.7,0,0-.09.08-.09.08-.16.16-.33.33-.49.49,0,0-.1.11-.1.11-.16.16-.32.31-.48.47-.23.23-.46.46-.69.7-.8.32-1.32.92-1.67,1.69-.23.22-.46.44-.69.67-.79.35-1.34.92-1.69,1.7,0,0-.09.08-.09.08-.17.17-.33.33-.5.5,0,0-.08.09-.08.09-1.21.71-2.15,1.68-2.87,2.87-.23.23-.47.46-.7.69-.16.16-.31.31-.47.47-.23.23-.46.46-.69.7-1.59,1.11-2.93,2.46-4.04,4.05-.23.23-.47.46-.7.69-.16.16-.32.31-.48.47-.24.24-.47.48-.7.72-.15.15-.31.31-.46.46-.24.23-.47.46-.71.69-.78.35-1.35.91-1.68,1.7,0,0-.09.08-.09.08-.16.16-.33.33-.49.49,0,0-.08.09-.08.09-.7.56-1.4,1.13-2.11,1.69-.48.29-.96.58-1.45.87-.41.3-.82.6-1.22.9-.39.22-.78.45-1.17.67-.77-.09-1.02.45-1.25,1.03-.37.06-.74.11-1.1.17-.4.19-.8.37-1.2.56-.39.2-.78.4-1.17.59-1.03-.19-1.73.39-2.39,1.05Zm-37.15-38.37c.97.67,2.08.49,3.14.49,14.84.01,29.68.02,44.51,0,5.12,0,8.61-3.54,8.95-8.53.35-5.06-3.28-9.1-8.56-9.16-15.23-.16-30.46-.04-45.69-.05-5.98,0-7.77,3.22-8.71,7.23-.78,3.33.89,7.85,5.73,9.91.2.04.41.07.61.11Z"/>
      <path class="cls-1" d="m378.31,246.43c-1.07,17.75-15.68,36.28-35.2,41.32-10.47,2.7-20.72,2.36-30.91-1.53-6.43-2.46-11.71-6.4-16.49-11.18-11-10.98-21.98-21.99-33.04-32.91-1.16-1.14-1.12-1.39.06-2.59,10.97-11.1,22.27-21.86,32.97-33.24,5.9-6.27,13.1-10.5,21.72-12.68,9.1-2.3,17.97-2.2,26.79.29,9.3,2.62,16.83,8.16,23.22,15.4,5.21,5.9,8.61,12.73,10.31,20.26,1.16,5.11,1.64,10.43,1.19,15.75-.77.05-.73.57-.63,1.12Zm-55.8-29.58c-.68.95-.46,2.05-.47,3.1-.05,4.26-.06,8.52-.08,12.79-4.19.06-8.38.05-12.56.2-1.84.07-3.78-.52-5.53.54-3.69.34-6.56,5.4-6.55,8.37,0,4.17,3.36,8.08,7.1,8.65l.11.18.15-.11c4.98.79,10,.21,15,.31,1.77.04,2.44.55,2.39,2.37-.1,3.83.11,7.68-.06,11.51-.21,4.5,4.88,9.42,9.3,8.88,4.35-.53,8.39-4.3,8.53-8.93.11-3.54.21-7.09-.03-10.62-.19-2.72.84-3.39,3.36-3.21,2.84.21,5.7.09,8.55.04,4.34-.08,8.02-3.31,8.56-7.68.49-4.01-1.71-9.15-5.95-9.76-1.56-.84-3.26-.43-4.9-.54-3.21-.23-6.47.45-9.65-.43.03-3.71.08-7.42.08-11.13,0-7.34-2.05-9.65-9.21-10.38-3.63-.37-5.91.9-7.48,4.16-.56.45-.66,1.07-.66,1.73Z"/>
    </g>
  </g>
</svg>