<?xml version="1.0" encoding="UTF-8"?>
<svg id="Capa_2" data-name="Capa 2" xmlns="http://www.w3.org/2000/svg" viewBox="0 0 531.29 531.29">
  <defs>
    <style>
      .cls-1 {
        fill: #5fc0c4;
      }

      .cls-2 {
        fill: none;
        stroke: #5fc0c4;
        stroke-miterlimit: 10;
        stroke-width: 24px;
      }

      .cls-3 {
        fill: #1d1d1b;
      }
    </style>
  </defs>
  <g id="Capa_1-2" data-name="Capa 1">
    <g>
      <circle class="cls-2" cx="265.64" cy="265.64" r="253.64"/>
      <path class="cls-3" d="m450.05,288.79c0,77.96-82.56,160.12-184.41,160.12s-184.41-82.17-184.41-160.12,82.56-206.42,184.41-206.42,184.41,128.46,184.41,206.42Z"/>
      <path class="cls-1" d="m353.67,233.77c0,25.57-14.61,46.29-32.63,46.29s-32.63-20.72-32.63-46.29,14.61-46.29,32.63-46.29,32.63,20.73,32.63,46.29Z"/>
      <path class="cls-1" d="m242.88,233.77c0,25.57-14.61,46.29-32.63,46.29s-32.63-20.72-32.63-46.29,14.61-46.29,32.63-46.29,32.63,20.73,32.63,46.29Z"/>
    </g>
  </g>
</svg>