<?xml version="1.0" encoding="UTF-8"?>
<svg id="Capa_2" data-name="Capa 2" xmlns="http://www.w3.org/2000/svg" viewBox="0 0 311.99 301.62">
  <defs>
    <style>
      .cls-1 {
        fill: #fff;
      }

      .cls-2 {
        fill: #262324;
      }

      .cls-3 {
        fill: #009fe3;
      }
    </style>
  </defs>
  <g id="Capa_1-2" data-name="Capa 1">
    <g>
      <path class="cls-2" d="m209.53,263.05c-.01-.48-.01-.96-.01-1.44v1.44c.01.57.02,1.14.02,1.71,0-.57-.01-1.14-.01-1.71Z"/>
      <path class="cls-1" d="m193.28,170.36c0,6.4-.01,12.8.01,19.19,0,.49-.11.67-.62.76-2.81.52-5.6,1.11-8.4,1.65-5.77,1.11-11.55,2.22-17.32,3.31-3.52.66-7.04,1.29-10.56,1.94-2.95.54-5.91,1.08-8.86,1.66-.8.16-1.02-.04-1.02-.86-.04-12.72-.09-25.43-.16-38.15,0-.62.05-.9.83-1.08,3.12-.7,6.29-1.15,9.43-1.78,2.35-.48,4.77-.74,7.09-1.34,4.9-1.28,9.95-1.71,14.89-2.77,4.5-.97,9.03-1.77,13.55-2.64.75-.14,1.37-.07,1.31.93-.38,6.39-.16,12.79-.17,19.18Z"/>
      <path class="cls-1" d="m130.38,273.74c-.49,4.69-1.36,9.27-2.89,13.72-.57,1.68-1.36,3.29-2.02,4.94-.28.72-.78,1.1-1.53,1.25-5.94,1.21-11.88,2.43-17.82,3.65-.85.17-1.68.36-2.88.62,2.31-2.91,3.69-5.9,4.66-9.03.84-2.67,1.5-5.38,1.86-8.2.52-3.98.9-7.96.64-11.96-.24-3.73-.65-7.43-1.6-11.09-.94-3.62-2.13-7.09-4.1-10.28-.94-1.55-2.1-2.91-3.53-4.04-.23-.17-.65-.32-.51-.69.1-.27.45-.22.73-.27,2.76-.45,5.52-.94,8.28-1.4.91-.16,1.71.12,2.43.67,1.33,1.03,2.68,2.02,3.98,3.08.59.48,1.13.63,1.83.29,1.56-.75,3.29-.67,4.94-.97.68-.13,1,.28,1.28.8,1.52,2.8,2.7,5.75,3.73,8.75.87,2.56,1.56,5.18,1.98,7.84.65,4.08.97,8.16.54,12.32Z"/>
      <path class="cls-1" d="m73.18,231.56c-.18,5.46-.87,10.84-2.62,16.04-.47,1.41-1.11,2.76-1.65,4.14-.2.53-.57.81-1.11.92-3.75.75-7.49,1.54-11.25,2.24-2.4.45-4.76,1.13-7.46,1.42,2.44-3.62,3.67-7.42,4.33-11.4.28-1.74.59-3.47.67-5.26.07-1.78.29-3.57.17-5.35-.33-5.12-.79-10.19-2.3-15.16-1.37-4.47-3.12-8.66-6.08-12.3-.85-1.05-1.93-1.87-3.13-2.93,1.75-.33,3.25-.63,4.75-.9,4.02-.73,8.04-1.48,12.07-2.15,1.13-.19,2.09.01,3.04,1.01,3.5,3.68,5.63,8.06,7.27,12.77.78,2.24,1.52,4.49,2.1,6.79.41,1.64.59,3.33.78,5.02.2,1.69.48,3.38.42,5.1Z"/>
      <path class="cls-1" d="m290.86,241.79c-.3,4.12-.85,8.22-2.05,12.19-.58,1.89-1.39,3.7-2.16,5.53-.37.87-1.16.94-1.83,1.04-3.13.48-6.2,1.24-9.3,1.86-2.78.55-5.57,1.06-8.62,1.64,1.12-1.88,2-3.57,2.65-5.4,1.17-3.25,1.8-6.58,2.18-10.02.36-3.23.42-6.43.17-9.64-.42-5.47-1.49-10.8-3.48-15.97-1.29-3.36-2.94-6.43-5.34-9.1-.55-.62-1.24-1.12-1.86-1.68-.17-.15-.47-.27-.34-.55.06-.14.31-.24.49-.27,2.54-.47,5.09-.91,7.63-1.42.93-.18,1.98.11,2.87.53,1.53.72,3.17,1.13,4.73,1.72,1.16.44,2.55.22,3.78-.18,1.21-.39,2.05-.22,2.83.88,1.41,2.02,2.43,4.22,3.33,6.47,1.17,2.93,2.27,5.89,3,8.98,1.04,4.41,1.66,8.87,1.32,13.39Z"/>
      <path class="cls-1" d="m211.96,143.88c-.01.1-.02.21-.04.31-3.86.73-7.74,1.44-11.6,2.19-1.13.22-2.27.29-3.38.81-.76.36-1.77.32-2.69-.31-5.55-3.77-11.16-7.47-16.73-11.21-.67-.46-1.36-.41-2.06-.26-6.07,1.36-12.13,2.73-18.19,4.11-5.66,1.29-11.32,2.62-16.99,3.9-3.76.85-7.53,1.62-11.26,2.61-1.67.44-3.3.53-4.99-.65-2.24-1.57-4.79-2.68-7.21-4-.62-.33-1.23-.7-2.14-1.22,1.99-.46,3.64-.86,5.31-1.21,5.24-1.09,10.5-2.06,15.71-3.29,3.34-.78,6.74-1.32,10.1-1.99,3.48-.7,6.96-1.37,10.41-2.17,6.4-1.48,12.87-2.56,19.27-4.03,6.13-1.42,12.34-2.52,18.51-3.77,1.37-.28,2.66-.23,3.9.57.96.63,2,1.16,3.04,1.66.82.39,1.15.9,1.13,1.85-.07,3.11.04,6.23-.06,9.35-.04,1.25.43,1.85,1.51,2.32,2.93,1.27,5.67,2.89,8.45,4.43Z"/>
      <path class="cls-1" d="m150.45,267.32c-.22,4.84-.64,9.68-2.21,14.3-.73,2.18-1.59,4.34-2.87,6.31-.64.99-1.42,1.67-2.57,1.9-4.82.97-9.65,1.94-14.47,2.9-.11.02-.23-.04-.32-.06,7.09-16.77,6.8-33.19-2.35-49.26,1.62-.38,3.11-.73,4.61-1.07.69-.16,1.18-.37,1.06-1.29-.13-.95-.04-1.92-.05-2.88,0-.4-.05-.79.53-.88,2.44-.37,4.8-1.34,7.35-.73.58.13,1.03.37,1.47.7,2.93,2.22,4.66,5.24,6.07,8.58.89,2.12,1.53,4.29,2.12,6.49.42,1.58.73,3.2.93,4.83.4,3.37.86,6.76.7,10.16Z"/>
      <path class="cls-1" d="m91.91,231.62c-.32,3.58-.82,7.15-1.98,10.58-.3.89-.71,1.75-1.05,2.63-1.07,2.82-2.83,4.5-6.09,4.82-3.27.32-6.49,1.25-9.73,1.92-.47.1-.94.19-1.54.09,2.05-4.44,3.14-9.02,3.67-13.78.33-2.92.68-5.84.42-8.77-.4-4.44-1.18-8.81-2.66-13.05-1.93-5.57-4.38-10.84-8.45-15.21-.17-.19-.5-.37-.32-.69.15-.27.46-.24.74-.29,2.92-.5,5.84-1.04,8.76-1.55,1.71-.29,3.42-.56,5.14-.83,1.63-.25,2.95.38,4.13,1.46,3.03,2.79,4.8,6.35,6.07,10.16.83,2.48,1.64,4.98,2.05,7.58.76,4.95,1.29,9.92.84,14.93Z"/>
      <path class="cls-1" d="m309.8,237.51c-.35,5.32-.98,10.59-3.36,15.48-.28.57-.62,1.11-.91,1.68-.7,1.41-1.83,2.06-3.38,2.34-3.81.68-7.6,1.52-11.4,2.29-.42.08-.96.32-1.25,0-.31-.33.16-.7.31-1.05,1.68-3.73,2.46-7.67,3.05-11.69.32-2.23.57-4.49.54-6.69-.04-2.36-.12-4.76-.52-7.15-.47-2.81-1.12-5.55-1.96-8.26-1.4-4.55-3.34-8.82-6.04-12.74-.07-.1-.11-.21-.23-.44,1.87-.64,3.74-.86,5.57-1.27.68-.14.93-.37.93-1.07-.01-.94-.45-2.13.21-2.73.58-.52,1.72-.45,2.62-.59,1.31-.2,2.61-.63,3.98-.4,1.73.28,2.88,1.4,3.96,2.64,2.56,2.93,4.1,6.39,5.26,10.05,1.14,3.57,1.89,7.2,2.21,10.95.24,2.88.6,5.76.41,8.65Z"/>
      <path class="cls-1" d="m221.14,111.02c0,.64-.01,1.28.02,1.92.15,3.34-2.15,5.88-5.5,6.08-1.79.1-3.38-.4-4.76-1.53-1.17-.96-1.74-2.12-1.74-3.73.05-16.58.04-33.17.03-49.76,0-3.43-.07-6.87-.12-10.3,0-.49-.09-.94.62-1.06,3.4-.57,6.8-1.18,10.21-1.76.97-.17,1.42.07,1.41,1.27-.06,10.35-.04,20.7-.04,31.05h-.13v27.82Z"/>
      <path class="cls-1" d="m192.52,121.27c-.03.11-.05.22-.08.32-4.53.84-9.03,1.82-13.54,2.76-4.14.85-8.28,1.69-12.41,2.6-3.35.73-6.71,1.41-10.07,2.11-4.2.87-8.41,1.75-12.61,2.62-6.5,1.33-13,2.64-19.49,3.98-3.95.82-7.89,1.66-11.83,2.49-.72.15-1.42.14-2.1-.23-8.93-4.84-17.87-9.67-26.8-14.51-.02-.01-.01-.08-.04-.26,2.17-.49,4.34-1.03,6.53-1.48,2.07-.42,4.15-.78,6.23-1.15,1.6-.28,1.69-.2,1.72,1.41.03,1.76.08,3.51.07,5.27,0,.78.32,1.28,1.02,1.6,1.94.89,3.87,1.79,5.8,2.71.66.31,1.3.32,1.98.11,2.52-.76,5.04-1.54,7.57-2.26.91-.26,1.35-.75,1.35-1.69.01-2.11.04-4.23.07-6.35.01-.26-.11-.62.15-.77.37-.2.56.2.79.39,1.94,1.6,3.89,3.19,5.8,4.83.69.58,1.31.72,2.25.53,4.03-.83,8.1-1.46,12.14-2.27,2.24-.45,4.53-.7,6.72-1.4,1.22-.4,1.32-.67.32-1.52-2.07-1.76-4.42-3.15-6.63-4.72-1.3-.92-2.63-1.81-3.94-2.72-.18-.13-.51-.25-.39-.52.07-.17.36-.28.58-.33,2.32-.5,4.65-.99,6.99-1.47.45-.09.75.03.72.62-.08,1.39.02,2.77.18,4.15.09.72.3,1.14.94,1.48,4.84,2.6,9.65,5.25,14.49,7.86,1.01.54,2.09.32,3.15.08,4.73-1.06,9.46-2.11,14.19-3.17,2.19-.49,4.37-.99,6.55-1.5,1.04-.25,1.75-.77,1.53-2.01-.06-.35-.01-.72-.01-1.08,0-1.73.08-1.79,1.6-.99,2.84,1.48,5.67,2.99,8.51,4.48Z"/>
      <path class="cls-1" d="m42.99,195.07c-.1,1.8-.34,3.59-.49,5.39-.07.85-.68,1-1.32,1.09-5.12.7-8.76,3.38-11,8.07-.86,1.8-1.45,3.68-2.03,5.57-.14.48-.27.73-.73.86-2.27.64-4.57,1.14-7.09,1.33.29-.67.46-1.28.8-1.78,2.37-3.55,3.17-7.6,3.88-11.71.63-3.58.75-7.18.46-10.79-.5-6.3-1.61-12.44-4.57-18.12-1.3-2.5-2.91-4.75-5.32-6.48,1.21-.59,2.45-.52,3.63-.71,2.37-.38,4.77-.66,7.15-.99.63-.09,1.17.15,1.71.43,2.95,1.5,5.81,3.17,8.86,4.47.45.19.65.52.84.93,2.22,5.04,4.15,10.15,4.77,15.69.25,2.25.58,4.48.45,6.75Z"/>
      <path class="cls-1" d="m249.32,203.8c-.18,2.68-.63,6.04-1.33,9.38-.49,2.33-1.34,4.5-2.24,6.66-.16.38-.4.57-.79.65-3.92.79-7.84,1.61-11.76,2.37-.53.1-1.2.33-1.65-.26-.5-.68-.32-1.3.01-2.06,1.51-3.41,1.92-7.06,2.34-10.72.25-2.19.32-4.37.15-6.56-.43-5.54-1.52-10.91-3.93-15.96-.65-1.37-.61-1.29.85-1.61,2.9-.64,2.78.22,2.81-3.19,0-.91.05-1.84-.02-2.75-.06-.79.36-1.08.99-1.21,1.28-.25,2.56-.47,3.84-.69.67-.12,1.22.1,1.7.57,2.65,2.55,4.38,5.67,5.65,9.07.75,2.02,1.61,4.02,2.06,6.15.65,3.12,1.3,6.23,1.32,10.16Z"/>
      <path class="cls-1" d="m127.2,221.44c-3.07.51-6.14.98-9.31,1.48-.45.1-.68-.21-.87-.67-1.26-3.16-2.54-6.32-3.83-9.48-1.26-3.1-2.57-6.18-3.83-9.28-1.14-2.81-2.2-5.66-3.34-8.47-1.22-3-2.51-5.97-3.73-8.98-1.22-3-2.39-6.03-3.57-9.05-.11-.29-.37-.74.25-.84,3.1-.5,6.13-1.44,9.28-1.71.76-.06,1.11.22,1.38.94,1.06,2.79,2.19,5.55,3.29,8.33,1.17,2.94,2.32,5.88,3.5,8.82.98,2.44,2.02,4.86,2.96,7.32,1.88,4.84,3.89,9.62,5.73,14.47.78,2.06,1.64,4.11,2.56,6.12.28.6.08.91-.47,1Z"/>
      <path class="cls-1" d="m108.97,237.56c.03.9-.34,1.31-1.14,1.39-2.98.32-5.89,1.05-8.85,1.43-2.22.28-4.2,1.13-6.13,2.15-.23.12-.49.18-.85.32.32-1.97,1.1-3.71,1.28-5.59.15-1.52.49-3.03.57-4.56.04-.76.32-1.46.31-2.21-.01-.46.41-.54.74-.67,1.66-.63,3.31-1.27,4.98-1.87.64-.22,1-.49.97-1.26-.04-.77-.14-1.49-.38-2.22-2.25-6.65-4.48-13.31-6.7-19.98-1.59-4.77-3.15-9.55-4.73-14.33-1.59-4.81-3.17-9.62-4.76-14.44-.4-1.22-.32-1.33,1.04-1.53.24-.03.46-.12.7-.16,1.81-.3,1.94-.24,2.47,1.45.25.81.59,1.62,1.13,2.19,2.04,2.14,2.46,5,3.51,7.58.87,2.16,1.66,4.35,2.48,6.53,1.33,3.54,2.65,7.09,3.98,10.63.87,2.33,1.76,4.65,2.6,6.99,1.92,5.35,4.03,10.62,5.88,15.99.44,1.26.71,2.47.73,3.78.04,2.8.06,5.59.17,8.39Z"/>
      <path class="cls-1" d="m109.89,142.02c-.19,2.85-.36,5.71-.42,8.56-.03,1.79-.11,3.57-.23,5.36-.03.55-.32.69-.73.74-3.78.42-7.54,1.09-11.33,1.5-1.86.2-3.76.36-5.59.75-1.03.22-.96-.19-.96-.85,0-1.12-.02-2.24-.02-3.35-.03-5.16-.11-10.31-.06-15.47.01-2.04-.72-3.41-2.59-4.32-1.92-.93-3.73-2.11-5.61-3.15-1.01-.55-1.54-1.25-1.45-2.48.1-1.46.02-2.94.02-4.61,3.36,1.82,6.54,3.56,9.72,5.28,3.38,1.82,6.76,3.63,10.13,5.45,2.59,1.39,5.14,2.88,7.78,4.16,1.16.56,1.41,1.29,1.34,2.43Z"/>
      <path class="cls-1" d="m60.52,194.01c-.07.99-.15,1.98-.28,2.96-.11.9-.75,1.26-1.59,1.41-3.61.64-7.22,1.36-10.84,1.96-2.68.45-2.67.4-2.43-2.3.32-3.56.17-7.09-.41-10.65-.85-5.31-2.47-10.32-4.85-15.11-.45-.91-.01-1.11.75-1.19,2.07-.24,4.14-.49,6.21-.73.47-.05.62-.26.75-.73.35-1.34.18-2.69.24-4.02.04-.76.24-.93.92-.54,2.11,1.21,4.23,2.4,6.36,3.58.67.37,1.02.99,1.31,1.65,1.71,3.97,3.09,8.02,3.37,12.37.09,1.25.37,2.49.56,3.72.3,2.55.09,5.09-.07,7.62Z"/>
      <path class="cls-1" d="m238.62,30.35c-.07-3.72.14-7.45-.28-11.17-.08-.74-.4-.73-.91-.69-3.07.22-6.12.57-9.15,1.11-1.78.31-2.2-.03-2.19-1.88.01-2.04,0-4.07.06-6.11.03-.89-.25-1.22-1.16-1.05-1.82.35-3.65.65-5.48.97-5.67.96-11.34,1.94-17.03,2.85-.85.14-1.04.47-1.03,1.23.02,3.95.01,7.91.01,11.86h.03c0,3.88-.01,7.75,0,11.63,0,1.67.01,1.67,1.7,1.38,3.26-.55,6.52-1.08,9.77-1.64,4.04-.69,8.06-1.43,12.1-2.11,2.66-.45,5.34-.8,8-1.23,1.55-.26,3.09-.59,4.63-.91.26-.05.73.05.63-.47-.23-1.28.32-2.5.3-3.77Zm-22.02,4.07c-2.98,3.52-7.76,3.67-10.75-.07-3.73-4.69-3.71-11.14-.14-15.78,3.37-4.38,8.86-3.74,11.75.91,1.27,2.06,1.57,4.44,1.95,6.49-.21,3.27-.81,6.09-2.81,8.45Zm9.93-2.03c-.67.82-1.51,1.22-2.55,1.21-1.84-.01-3.64-2.27-3.4-4.29.1-.9.3-1.79.56-2.67.51-1.7,2.3-2.62,3.95-1.95,1.14.46,1.91,1.2,2.17,2.53.37,1.84.59,3.58-.73,5.17Zm8.29-.48c-.41.77-2.31.68-3.2.12-2.28-1.42-2.61-5.1-.87-7.39,1.11-1.46,1.84-1.76,3.55-1.11,1.46.55,1.92,1.97,2.22,3.37.08.38.01.8.01,1.33.41,1.56-1.05,2.47-1.71,3.68Z"/>
      <path class="cls-1" d="m286.28,189.85c-.09.34-.6.32-.93.41-2.15.61-4.31,1.16-6.45,1.81-.98.29-1.69,0-2.39-.64-3.06-2.74-6.14-5.48-9.21-8.21-8.13-7.22-16.25-14.43-24.38-21.64-2.66-2.36-5.29-4.75-7.98-7.06-.83-.71-1.32-1.41-1.15-2.54.08-.58.01-1.19.01-1.79h-.04c0-.84-.02-1.68.01-2.52.02-.27-.23-.66.22-.82.37-.13.59.14.84.34,2.93,2.41,5.86,4.81,8.78,7.22,10.82,8.91,21.63,17.83,32.45,26.74,3.17,2.62,6.36,5.22,9.53,7.84.28.24.8.43.69.86Z"/>
      <path class="cls-1" d="m260.81,259.66c-.07.44-.6.42-.96.52-2.08.62-4.15,1.26-6.23,1.83-5.43,1.47-10.79,3.21-16.25,4.59-2.01.51-3.96,1.22-5.93,1.86-1.28.41-2.36.28-3.56-.53-4.9-3.31-9.88-6.48-14.83-9.7-.36-.24-.78-.41-1.15-1,2.23-.66,4.37-1.3,6.52-1.92,1.28-.36,2.58-.66,3.84-1.07.88-.3,1.04.06.99.82-.02.48.12.97.06,1.44-.28,2.08.84,3.26,2.53,4.14.92.47,1.75,1.14,2.69,1.52,1.12.46,2.28.91,3.56.33,1.18-.54,2.42-.96,3.65-1.37.98-.33,1.37-.97,1.35-1.98-.05-2.72-.02-5.44-.1-8.16-.03-.83.21-1.16,1.03-1.34,1.37-.28,2.71-.69,4.04-1.11.94-.31,1.74-.2,2.57.35,5.01,3.28,10.04,6.53,15.07,9.79.13.09.28.16.4.26.26.23.77.34.71.73Z"/>
      <path class="cls-1" d="m134.34,110.28c-2.61.55-5.22,1.07-7.84,1.59-.56.01-.82-.1-1.08-.75-1.44-3.62-3.01-7.19-4.51-10.78-.91-2.18-1.75-4.38-2.66-6.55-1.09-2.63-2.24-5.23-3.33-7.85-1.04-2.48-2-4.99-3.06-7.45-1-2.33-1.83-4.73-2.98-7-.25-.51-.46-1.01.56-1.23,2.18-.48,4.42-.6,6.59-1.11.6-.15.95.13,1.19.69,1.18,2.68,2.39,5.36,3.58,8.04,1.13,2.52,2.27,5.04,3.37,7.57,2.13,4.91,4.38,9.76,6.47,14.69,1.29,3.05,2.78,6.02,4.04,9.1.23.57.31.91-.34,1.04Z"/>
      <path class="cls-1" d="m230.61,230.99c-1.39.07-2.76.23-4.08.72-.59.21-.57-.4-.64-.6-1.68-4.69-3.18-9.44-5-14.08-1.93-4.92-3.49-9.97-5.26-14.95-1.66-4.61-3.31-9.23-4.94-13.86-1.69-4.78-3.36-9.58-5.03-14.37-.35-1-.6-2.05-1.01-3.03-.3-.68-.12-1.03.47-1.34.82-.42,1.68-.71,2.37-.78,2.25-.03,2.99.5,3.64,2.38,2.06,5.97,4.2,11.91,6.19,17.91,1.7,5.12,3.61,10.17,5.24,15.32.81,2.56,2.07,4.97,2.9,7.54,1.15,3.62,2.31,7.23,3.51,10.83.77,2.3,1.57,4.59,2.45,6.85.37.95.19,1.41-.81,1.46Z"/>
      <path class="cls-1" d="m123.35,112.39c-2.26.76-4.58.97-6.82,1.52-.84.21-.63-.42-.64-.75-.08-2.6-.2-5.2-.14-7.79.04-1.54-.43-2.54-1.89-3.17-1.39-.59-2.67-1.44-4.05-2.05-1.15-.51-1.79-1.36-2.25-2.47-1.58-3.8-3.15-7.6-4.79-11.36-1.69-3.85-3.09-7.82-5.01-11.57-.04-.06-.03-.15-.05-.22-.88-2.69-.86-2.68,2.61-3.02,1.59-.15,3.19-.28,4.75-.69.75-.2,1.17.31,1.44.96.75,1.82,1.5,3.65,2.26,5.48,1.01,2.43,2.08,4.84,3.04,7.3,1.74,4.43,3.61,8.81,5.42,13.21,1.88,4.55,3.8,9.1,5.74,13.63.13.33.25.66.38.99Z"/>
      <path class="cls-1" d="m273.75,192.19c-2.07.03-3.7-.73-5.42-1.05-1.82-.33-3.62-.71-5.42-1.12-.65-.15-1.25-.48-1.78-.9-8.89-7.06-17.78-14.11-26.67-21.15-.47-.38-.7-.77-.69-1.41.04-2.79.01-5.59.03-8.39,0-.32-.23-.78.21-.95.4-.15.63.27.89.49,8.73,7.74,17.46,15.48,26.19,23.22,3.78,3.34,7.55,6.69,11.32,10.04.38.34.76.69,1.34,1.22Z"/>
      <path class="cls-1" d="m222.9,233.24c-.98.54-1.94,1.15-2.77,1.88-.94.83-1.21.29-1.48-.52-.82-2.5-1.64-5.01-2.47-7.51-1.27-3.83-2.54-7.66-3.82-11.5-2.08-6.24-4.17-12.49-6.25-18.74-1.77-5.29-3.55-10.56-5.29-15.86-.85-2.59-.53-5.14.62-7.59.22-.46.49-.91,1.06-1.19.67,1.88,1.33,3.72,1.98,5.57,1.84,5.21,3.67,10.41,5.51,15.61,1.66,4.67,3.23,9.37,5.04,13.97,1.03,2.63,2.1,5.26,2.88,7.96.69,2.41,1.53,4.76,2.32,7.13,1.01,3.04,2.13,6.05,3.26,9.05.31.82.21,1.29-.59,1.74Z"/>
      <path class="cls-1" d="m238.4,41.27h.04c0,1.03,0,2.07,0,3.11.01.65-.21.98-.92,1.09-4.05.65-8.09,1.35-12.13,2.04-2.94.5-5.88,1.01-8.82,1.5-3.3.55-6.6,1.07-9.9,1.62-1.5.25-3.01.49-4.48.85-.69.17-.81-.11-.81-.61-.02-2.23-.02-4.47,0-6.71,0-1.56,1.44-1.28,2.2-1.38,6.13-.85,12.2-2.06,18.31-2.99,4.45-.68,8.86-1.56,13.29-2.34.23-.04.48-.02.72,0,.8.02,1.82-.76,2.33-.06.41.56.16,1.61.18,2.45.02.48,0,.96,0,1.44Z"/>
      <path class="cls-1" d="m124.21,65.59c-3.03.43-6.05.89-9.08,1.35-2.83.44-5.66.91-8.5,1.33-3.1.46-6.21.87-9.32,1.33-2.71.4-5.43.8-8.13,1.3-.69.12-1.42.02-2.09.34-.24.11-.55.09-.73-.35-.95-2.3-1.96-4.57-2.96-6.84-.25-.57.19-.62.52-.67,1.9-.27,3.81-.51,5.71-.77,2.57-.34,5.14-.69,7.71-1.03,2.1-.28,4.19-.57,6.29-.84,2.37-.31,4.74-.61,7.11-.91,2.18-.27,4.36-.56,6.54-.79.79-.08,1.49-.6,2.53-.32,2.3-1.25,2.54.87,3.22,2.31.57,1.23,1.06,2.49,1.63,3.72.26.55.18.75-.45.84Z"/>
      <path class="cls-1" d="m135.08,154.86c-.06,12.47-.12,24.94-.17,37.42-.01.69-.11.95-.85.59-2-1-3.91-2.17-5.82-3.32-.57-.33-.56-.79-.56-1.32,0-6.2,0-12.39,0-19.69-.09-5.13.14-11.36-.1-17.58-.01-.4.12-.56.54-.44,2.42.73,4.5,2.13,6.66,3.37.4.22.3.62.3.97Z"/>
      <path class="cls-1" d="m141.59,106.39q0,2.46-2.26,2.78c-1.82.27-1.83.27-2.56-1.37-2.96-6.63-5.9-13.27-8.87-19.9-2.74-6.11-5.5-12.22-8.27-18.32-.22-.49-.05-.74.4-.85,1.8-.44,3.64-.65,5.48-.85.67-.07.77.5.93.91,1.27,3.32,2.91,6.47,4.21,9.78,1.22,3.12,2.74,6.12,4.1,9.19,2.18,4.92,4.39,9.82,6.44,14.8.5,1.19.5,2.62.4,3.83Z"/>
      <path class="cls-1" d="m262.9,263.03c-.05,1.04-.01,2.08-.01,3.11h-.1c0,1-.05,2,.02,3,.05.78-.25,1.1-.99,1.31-4.63,1.37-9.25,2.75-13.89,4.1-4.1,1.2-8.21,2.38-12.31,3.58-1.21.36-2.44.64-3.64,1.02-.81.26-1.14.15-1.11-.8.06-1.8.02-3.59.02-5.39,0-1.95-.01-1.97,1.83-2.5,5.49-1.58,10.97-3.15,16.46-4.7,4.21-1.2,8.44-2.35,12.63-3.58.95-.28,1.12,0,1.09.85Z"/>
      <path class="cls-1" d="m144.04,177.64h-.17c0,5.91,0,11.83,0,17.74,0,.75-.11,1.51-.09,2.26.01.66-.33.67-.74.45-1.74-.9-3.45-1.84-5.07-2.94-.51-.34-.35-.85-.35-1.31-.02-8.63-.02-17.26-.04-25.9-.01-3.88-.03-7.75-.09-11.63-.01-.82.16-1.01.91-.58,1.56.88,3.14,1.74,4.74,2.56.68.36.92.82.92,1.6-.03,5.92-.02,11.83-.02,17.75Z"/>
      <path class="cls-1" d="m250.91,212.69c2.49-12.8-.22-24.27-7.86-34.72.65.49,1.29.98,1.94,1.47,4.77,3.61,9.41,7.4,14.14,11.07,1.2.92,1.43,2.02,1.39,3.22-.16,3.84.01,7.68-.1,11.51-.03,1.08.4,1.54,1.33,1.87.75.26,1.66.2,2.42,1.14-4.66.92-9.41,1.2-13.26,4.44Z"/>
      <path class="cls-1" d="m93.69,215.13c-.67.14-.9-.11-1-.57-.49-2.33-1.1-4.63-1.95-6.85-1.42-3.7-3.16-7.21-6.1-9.98-1.21-1.13-2.52-2.1-4.18-2.45-.89-.18-1.1-.85-1.33-1.58-.85-2.8-1.74-5.58-2.6-8.38-.88-2.84-1.71-5.7-2.64-8.52-.25-.76.01-.91.63-1,2.03-.31,4.06-.62,6.09-.93.71-.14,1.03.26,1.21.87,1.42,4.8,3.08,9.54,4.69,14.28,2.62,7.73,5.17,15.48,7.69,23.24.18.56,1.01,1.54-.51,1.87Z"/>
      <path class="cls-1" d="m235.75,246.42c-1.82,2.82-4.48,4.16-8.17,4.35-.47.1-1.23-.23-2.03-.42-1.81-.42-2.3-1.93-2.8-3.39-.93-2.72-1.75-5.46-2.69-8.17-.18-.51-.08-.71.27-1.05,2.82-2.72,6.25-4.15,10.06-4.73,1.58-.24,2.35.33,2.86,1.83,1,2.98,1.97,5.97,3.01,8.93.37,1.03,0,1.87-.51,2.65Z"/>
      <path class="cls-1" d="m245.5,246.48c-1.86-1.55-3.53-.3-5.22.03-.63.12-1.37.73-1.83.29-.32-.3.14-1.13.3-1.73.27-.96-.09-1.88-.4-2.77-1.08-3.2-2.22-6.38-3.33-9.57-.77-2.22-1.48-4.46-2.31-6.65-.3-.79.04-1.03.61-1.15,2.51-.53,5.02-1.03,7.52-1.52.97-.19,1.96-.28,2.9-.56.76-.24,1.47-.18,2.29-.12-1.88,7.87-1.81,15.74-.53,23.75Z"/>
      <path class="cls-1" d="m104.05,100.07c-1.22.42-2.49.71-3.67,1.22-.86.38-1.17.09-1.49-.66-1.73-4.08-3.5-8.13-5.24-12.2-1.68-3.92-3.39-7.83-4.99-11.78-.32-.8-.53-1.66-.9-2.45-.27-.58.01-.7.48-.77,1.68-.26,3.37-.52,5.05-.78.8-.15,1.23.15,1.53.93,1.85,4.91,4.08,9.66,6.07,14.52,1.33,3.25,2.7,6.51,4.17,9.72.74,1.63.7,1.66-1.01,2.25Z"/>
      <path class="cls-1" d="m114.19,224.04c-.86.32-1.71.68-2.58.95-.68.22-1.15.05-1.43-.75-1.84-5.13-3.71-10.24-5.62-15.33-1.59-4.26-3.28-8.48-4.87-12.73-1.33-3.56-2.59-7.15-3.89-10.73-.72-1.99-1.45-3.98-2.21-5.96-.2-.51-.15-.83.19-1.29.6-.82,1.06-1.75,1.67-2.78.97,2.37,1.9,4.62,2.81,6.89,1.83,4.59,3.63,9.19,5.51,13.76,1.52,3.68,3,7.38,4.53,11.06,1.82,4.37,3.68,8.73,5.29,13.18.28.8.65,1.62,1.07,2.38.39.67.23,1.09-.47,1.35Z"/>
      <path class="cls-1" d="m233.73,6.61c-3.4.7-6.84,1.26-10.28,1.8-2.94.46-5.87.99-8.8,1.5-3.41.6-6.83,1.08-10.21,1.82-1.15.25-2.23-.31-3.3-.69-3.23-1.18-6.63-1.89-10.04-3.36,1.31-.26,2.4-.54,3.5-.7,3.77-.52,7.5-1.21,11.24-1.9,3.37-.62,6.77-1.13,10.15-1.69,1.44-.23,2.86-.54,4.31-.7.94-.11,1.89-.14,2.84.17,3.43,1.15,6.87,2.26,10.3,3.38.17.06.3.09.29.37Z"/>
      <path class="cls-1" d="m176.58,105.16c-.06.2-.49.33-.78.4-4.44,1-8.94,1.78-13.3,3.04-2.99.86-5.4.24-7.88-1.33-2.23-1.42-4.61-2.59-6.93-3.87-.34-.19-.67-.4-1.3-.77,1.59-.59,2.91-1.11,4.24-1.57,2.9-.99,5.83-1.88,8.7-2.94,1.56-.58,2.92-.52,4.39.25,4.06,2.12,8.16,4.15,12.25,6.22.25.13.74.17.61.57Z"/>
      <path class="cls-1" d="m225.5,140.67c0,.72-.18,1.05-.96,1.18-2.41.4-4.81.88-7.21,1.38-1.02.21-.88-.44-.88-1.04-.02-4.83-.04-9.67-.06-14.51-.01-1.03-.02-2.07-.07-3.11-.03-.62.16-.9.8-1.07,2.46-.67,4.92-1.38,7.35-2.16.87-.28.93.05.92.75-.01,3.12,0,6.23,0,9.35h.1c0,3.08-.01,6.15.01,9.23Z"/>
      <path class="cls-1" d="m276.26,208.13c.04,1.1-.28,1.3-1.28.94-2.91-1.04-5.84-2-8.75-3.02-3.17-1.1-3.16-1.11-3.16-4.51,0-2.67.02-5.35-.04-8.02-.01-.83.34-.98.99-.84,3.69.79,7.37,1.64,11.08,2.37.95.19,1.19.55,1.15,1.47-.08,1.92-.02,3.83-.02,5.75h.01c0,1.95-.05,3.91.02,5.86Z"/>
      <path class="cls-1" d="m126.22,240.68c-2.43.57-4.83,1.25-7.25,1.86-.75.18-.92-.28-.86-.89.38-4.52.1-9.03-.24-13.54,0-.04,0-.08-.01-.12-.26-2.31-.01-2.82,2.35-3.09,2.19-.26,4.35-.7,6.53-1,1.38-.19,1.48-.08,1.46,1.33,0,.24-.02.48-.04.72.22,3.71.36,7.43.53,11.15.14,3,.28,2.95-2.47,3.58Z"/>
      <path class="cls-1" d="m124.09,173.39c-.26.8-.71,1.24-1.68,1.37-3.14.42-6.26,1-9.38,1.55-.38.07-.54-.07-.63-.35-.4-1.25-1.24-2.36-.79-3.85.72-2.38.02-4.68-.7-6.94-.28-.88-.22-1.16.8-1.37,3.6-.76,7.25-1.24,10.8-2.25.69-.2,1.02.33,1.22.86.77,2.11,1.35,4.26,1.36,6.8.14,1.32-.52,2.73-1,4.18Z"/>
      <path class="cls-1" d="m213.97,126.09c-.12,2.31-.03,4.63-.03,6.95h-.06c0,2.63-.02,5.27.01,7.9.01.88-.25,1.07-1.03.66-2.6-1.38-5.2-2.75-7.83-4.08-.42-.21-.32-.5-.33-.78-.07-5.55-.13-11.1-.19-16.65,0-1.19.72-.54,1.1-.34,2.23,1.15,4.4,2.44,6.67,3.49,1.33.62,1.76,1.43,1.69,2.85Z"/>
      <path class="cls-1" d="m108.06,171.99c-2.76.46-5.51,1.03-8.27,1.53-2.29.41-3.06-.14-3.51-2.47-.2-1.01-.35-2.02-.22-3.15-.05-2.09-.35-4.24-1.27-6.24-.27-.59-.18-.85.4-.87,3.07-.15,6.08-.88,9.15-1,.84-.03,1.35.31,1.83.88,1.72,2.02,2.37,4.5,3.06,6.95.23.84.16,1.73.26,2.58.14,1.2-.33,1.6-1.43,1.79Z"/>
      <path class="cls-1" d="m198.76,26.61c0,4.23-.02,8.47.02,12.7.01.94-.2,1.21-1.14.85-1.2-.46-2.44-.85-3.69-1.16-.93-.22-1-.78-1-1.57.01-6.67.01-13.34-.01-20.01,0-1.75-.07-3.51-.13-5.26-.03-.92.17-1.35,1.22-.93,1.4.57,2.83,1.06,4.29,1.46.81.22.55.79.55,1.23.02,4.23.02,8.46.02,12.69h-.13Z"/>
      <path class="cls-1" d="m288.7,206.83c.01.71-.16,1.09-.92,1.23-2.7.53-5.4,1.11-8.09,1.69-.82.18-1.05-.13-1.01-.92.22-4.43.04-8.85-.05-13.28-.02-.73.21-1.02.94-1.21,2.79-.73,5.55-1.55,8.33-2.34.65-.19.8.06.79.7-.03,2.4,0,4.79,0,7.19s-.02,4.63.02,6.94Z"/>
      <path class="cls-1" d="m228.69,272.45c-.1,1.82.03,3.63-.16,5.46-.15,1.34-.59.97-1.3.51-2.24-1.47-4.49-2.9-6.73-4.35-3.41-2.2-6.81-4.42-10.23-6.6-.58-.36-.79-.76-.76-1.43.03-.42.03-.85.03-1.28,0-.57-.01-1.14-.02-1.71v-1.44c0-.47,0-.95.01-1.43.01-.34-.17-.79.17-.99.41-.23.73.19,1.05.39,1.95,1.25,3.89,2.51,5.83,3.77,3.57,2.32,7.14,4.66,10.73,6.96.81.52,1.44,1.11,1.38,2.14Z"/>
      <path class="cls-1" d="m88.13,138.58c-.25,6.71-.18,13.42-.25,20.23-1.96-.77-3.89-.42-5.81-.25-.83.07-1.12-.18-1.12-1.04.02-7.63.02-15.26,0-22.9,0-.9.29-.94.96-.51,1.89,1.19,3.79,2.37,5.7,3.51.41.24.54.52.52.96Z"/>
      <path class="cls-1" d="m125.13,156.6c-.03.94,0,1.88,0,3.19-.84-.9-1.49-1.47-2-2.15-1.73-2.3-4.05-2.71-6.64-2.07-1.27.32-2.57.28-3.83.62-.56.16-.82-.07-.83-.74-.08-4.14.27-8.26.3-12.4,0-1.03.43-1.24,1.36-.74,3.54,1.91,7.06,3.85,10.6,5.75.76.4,1.08.72,1.06,1.8-.04,2.24.04,4.49-.01,6.74Z"/>
      <path class="cls-1" d="m70.97,195.97c-2.63.52-5.26,1.01-7.89,1.5-.43.08-.7-.05-.64-.56.1-.91.17-1.82.25-2.72.25-3.15.07-6.26-.2-9.4-.36-4.12-1.13-8.11-2.45-12.01-.15-.44-.32-.88-.48-1.32,1.59.55,3.32.83,3.94,2.71.16.47.43,1,.81,1.3,2.02,1.6,2.15,4.06,2.88,6.22.95,2.79,1.75,5.63,2.61,8.46.52,1.71,1.03,3.44,1.59,5.15.15.48-.14.62-.42.67Z"/>
      <path class="cls-1" d="m139.41,120.88c-.05.49-.57.36-.87.42-3.74.7-7.48,1.36-11.23,2.04-.18.03-.35.15-.54.2-1.64.46-2.97.19-4.38-.99-1.93-1.62-3.9-3.19-5.76-4.91-.28-.26-.77-.43-.65-.9.12-.46.67-.44.99-.51,2.99-.63,5.99-1.21,8.99-1.77.88-.16,1.71-.59,2.65-.46.65-.09,1.23.04,1.79.43,2.79,1.95,5.59,3.86,8.39,5.79.25.17.66.29.62.66Z"/>
      <path class="cls-1" d="m113.37,106.43c-.09,6.63-.14,13.27-.17,19.91-.01.69-.29.98-.88,1.2-1.54.58-3.11.97-4.81,1.2,0-5.31.01-10.63,0-15.94,0-1.24.03-2.46-.18-3.7-.28-1.7.01-2.13,1.71-2.71,1.08-.36,2.22-.56,3.34-.8.63-.13,1,0,.99.84Z"/>
      <path class="cls-1" d="m179.86,117.45c-.1,1.19-.7,1.39-1.58,1.58-3.28.7-6.55,1.42-9.82,2.14-2.54.57-5.09,1.08-7.6,1.76-.85.23-.84-.11-.87-.68-.04-.84-.08-1.67-.12-2.51.06-2.43.06-2.42,2.39-3.04,4.85-1.29,9.69-2.6,14.54-3.87.45-.11.92-.15,1.37-.27,1.67-.43,1.74-.4,1.79,1.34.04,1.18,0,2.36-.1,3.55Z"/>
      <path class="cls-1" d="m190.57,36.71c.01,1.04-.3,1.06-1.15.84-2.55-.65-2.59-.62-2.61-3.23-.04-3.83-.01-7.66-.01-11.5h-.02c0-4.19-.01-8.38,0-12.57,0-1.26.17-1.37,1.37-.91q2.41.93,2.41,3.65c-.01,7.91-.03,15.81,0,23.72Z"/>
      <path class="cls-1" d="m198.85,49.9c-.06.92-.22,1.32-1.36.92-3.17-1.12-6.39-2.08-9.61-3.06-.59-.18-.96-.38-1-1.08-.13-2.39-.15-4.77.12-7.3,2.62.82,5.17,1.63,7.74,2.39,1.07.32,2.07.85,3.19,1.04.31.05.76.06.81.67.16,2.14.23,4.28.11,6.42Z"/>
      <path class="cls-1" d="m104.97,110.64c-.22,2.33-.05,4.71-.05,7.06h-.03c0,3.36-.02,6.71.02,10.07.01.87-.28.96-.95.6-.07-.03-.15-.06-.22-.09q-3.13-1.42-3.13-4.84c0-5.79.02-11.58-.02-17.37-.01-1.01.17-.95,1.12-.74,3.03.67,3.5,2.61,3.26,5.31Z"/>
      <path class="cls-1" d="m78.55,171.73c-.2.86-.67,1.16-1.31,1.24-2.09.26-4.17.51-6.24.96-.95.21-.76-.56-.63-.95.67-1.9.38-3.85.46-5.79.08-1.79-.57-3.39-1.3-5.17,2.44-.04,4.68-.59,6.97-.58.58,0,.98.08,1.22.67,1.26,3.12,1.59,6.3.83,9.62Z"/>
      <path class="cls-1" d="m156.39,122.41c-2.87-1.32-5.49-3.11-8.32-4.53-1.14-.57-2.24-1.2-3.37-1.8-.41-.22-.69-.47-.68-1,.03-1.52.02-3.03.02-4.55-.01-.67.25-.73.79-.43,3.7,2.02,7.42,3.99,11.1,6.05,1.55.87,1.51.94,1.5,3.61,0,.68-.02,1.36,0,2.04.05.92-.26.97-1.05.61Z"/>
      <path class="cls-1" d="m87.64,167.03c-.13,1.14-.07,2.32,0,3.47.04.61-.25,1-.71,1.02-1.78.07-3.48.65-5.25.8-.76.07-.83-.2-.78-.85.17-2.27.59-4.55-.22-6.79-.33-.93-.57-1.89-.97-2.79-.29-.65-.17-.93.52-.86,1.36.11,2.67-.48,3.78-.26,2.55-.06,3.04.43,3.63,2.77.3,1.2.14,2.31,0,3.49Z"/>
      <path class="cls-1" d="m125.08,182.23c0,1.44-.02,2.88.01,4.32.01.74-.11,1.1-.92.62-2.97-1.73-5.95-3.42-8.91-5.16-1.09-.65-1.1-1.98-1.67-2.97-.19-.32.35-.47.73-.53,2.28-.37,4.56-.76,6.84-1.15.31-.05.61-.17.91-.23,2.52-.55,3.03-.16,3.03,2.35v2.75h-.02Z"/>
      <path class="cls-1" d="m238.58,9.32c-.04,2.02.02,4.04-.26,6.06-.04.35-.15.44-.49.49-2.83.5-5.66,1.01-8.56.94-.54-.02-.7-.22-.7-.69v-2.75h-.07v-1.32c0-2.13,0-2.14,2.05-2.43,2.29-.32,4.57-.7,6.83-1.2.67-.15,1.21-.09,1.2.9Z"/>
      <path class="cls-1" d="m178.71,110.31c-5.32,1.44-10.59,3.07-16.01,4.18-.67.14-1.37.38-2.04.6-.53.18-.75-.03-.74-.55.01-.04,0-.08-.01-.12-.31-2.76-.28-2.73,2.4-3.4,4.97-1.24,10.04-2.09,14.98-3.48.41-.12.87-.08,1.3-.16,1.41-.27,1.4-.28,1.41,1.34.42,1.04-.39,1.34-1.29,1.59Z"/>
      <path class="cls-1" d="m76.99,194.83c-.64.59-1.5.52-2.28.72-.52.14-.73-.12-.91-.61-.71-1.97-1.31-3.97-1.9-5.96-.9-3.04-1.91-6.04-2.79-9.08-.12-.41-.18-.84-.31-1.25-.69-2.13-.6-2.24,1.67-2.26.85-.29.89.49,1.06,1,.91,2.85,1.76,5.72,2.66,8.57.89,2.82,1.81,5.62,2.71,8.43.05.15.15.39.09.44Z"/>
      <path class="cls-1" d="m115.79,240.67c.03.4-.16.65-.57.34-1.21-.9-2.41-1.84-3.62-2.75-.32-.24-.24-.57-.25-.87-.06-2.88-.1-5.76-.19-8.63-.02-.61.14-.97.7-1.21,1.12-.5,2.23-1.02,3.43-1.26.79,4.83.16,9.62.5,14.38Z"/>
      <path class="cls-1" d="m68.21,173.18c-.17.36-.36.72-.6,1.03-.75.94-1.1.91-1.82-.05-1.7-2.28-1.59-4.87-1.35-7.49.12-1.31.48-2.55,1.25-3.63.73-1.01,1.32-1.03,2.02,0,1.13,1.66,1.37,3.53,1.15,5.49.19,1.6.05,3.17-.65,4.65Z"/>
      <path class="cls-1" d="m157.42,112.84c0,.25.05.54-.01.81-.09.41-.18.67-.78.36-3.85-2-7.74-3.93-11.61-5.88-1.02-.52-1.76-2.61-1.2-3.56.29-.5.68-.16,1.02.02,2.96,1.61,5.93,3.22,8.89,4.85.95.52,1.85,1.12,2.79,1.65.69.39,1.12.88.9,1.75Z"/>
      <path class="cls-1" d="m92.56,175.64c-.14.36-.26.87-.68.89-.35.02-.47-.48-.65-.77-.75-1.18-1.02-2.58-1.12-3.88-.24-2.94-.36-5.93.84-8.76.22-.52.36-1.39.94-1.34.63.05.81.91.99,1.51.57,1.84.92,3.73.69,5.66.27,2.33-.19,4.54-1.01,6.69Z"/>
      <path class="cls-1" d="m45.48,167.51c-.06.48-.27.65-.75.71-1.44.19-2.86.44-4.29.68-.58.1-.87-.04-.86-.71.02-2.67.01-5.33.01-8.19,2.04.84,3.78,1.84,5.5,2.91.26.16.39.38.42.67.14,1.32.12,2.62-.03,3.93Z"/>
      <path class="cls-3" d="m311.51,229.46c-.1-4.05-1.04-7.93-2.23-11.78-1.07-3.48-2.49-6.78-4.64-9.73-2.42-3.32-5.37-5.66-9.8-5.17-.84.09-1.67.3-2.51.45-.84.16-1.08-.19-1.08-1.02,0-3.28-.14-6.56-.09-9.83.03-1.56-.41-2.69-1.81-3.45-.59-.31-1.08-.82-1.61-1.25-15.61-12.86-31.22-25.72-46.83-38.57-2.03-1.68-4.07-3.36-6.11-5.02-.81-.67-1.38-1.42-1.26-2.54.07-.68-.2-1-.89-1.28-1.29-.53-2.46-1.31-3.71-1.91-.63-.31-.82-.71-.82-1.4.04-5.08-.12-10.16.1-15.23.12-2.7-.49-4.55-3.2-5.37-.93-.29-1.12-.95-1.13-1.9-.07-20.55.28-41.1-.2-61.65-.02-.83-.28-1.88.12-2.45.44-.64,1.59-.35,2.42-.51,4.21-.8,8.46-1.38,12.67-2.15,2.42-.44,2.25.18,2.24-2.51-.01-9.19-.05-18.39-.09-27.58-.01-3.32-.05-6.64-.09-9.96-.01-.76-.05-1.51-.99-1.81-3.75-1.21-7.47-2.51-11.23-3.64-2.2-.66-4.35-1.41-6.5-2.2h-1.44c-.11.22-.32.19-.51.23-4.09.72-8.17,1.46-12.25,2.16-7.18,1.22-14.36,2.4-21.54,3.61-1.3.22-2.15,1.23-2.16,2.56-.06,7.96-.13,15.92-.15,23.87,0,5.24.06,10.48.09,15.72,0,.63.1.95.87,1.19,3.93,1.21,7.82,2.55,11.72,3.88,1.93.66,3.84,1.01,5.9.59.99-.21,1.96-.56,3-.55.69,0,.93.48.77.86-.3.73-.07,1.42-.07,2.11-.03,18.68-.05,37.35-.07,56.03q0,2.45-2.35,3.23c-1.67.55-2.05,1.02-1.95,2.83.1,1.74-.46,3.43-.22,5.19-.55.01-.88-.23-1.21-.42-3.82-2.25-7.93-3.95-11.71-6.3-1.76-1.09-3.62-2.01-5.47-2.97-.67-.35-.97-.77-.95-1.58.04-1.79-.08-3.59-.08-5.39,0-1.22-.51-1.99-1.62-2.54-5.15-2.54-10.35-5.01-15.38-7.78-2.52-1.39-4.77-1.68-7.39-.51-1.89.84-1.96.7-1.82-1.35v-.24c.1-3.68-.02-7.36.06-11.05.21-9.27.08-18.55.07-27.83,0-4.52-.06-9.03-.12-13.55-.04-2.76-.44-3.26-3.07-4.15-3.17-1.07-6.36-.77-9.49.11-2.06.59-2.95,2-2.97,3.96-.21,17-.05,33.99-.11,50.99v1.41c-.68-.58-.87-1.16-1.12-1.68-1.69-3.55-3.22-7.17-4.77-10.77-2.08-4.81-4.24-9.59-6.29-14.41-1.49-3.5-3.04-6.97-4.53-10.45-.32-.75-.79-1.09-1.62-1.13-.76-.03-1.32.51-2.05.54-2.41.09-4.81.35-7.2.7-2.13.32-4.27.6-6.41.89-1.95.26-3.89.54-5.85.76-2.2.24-4.4.54-6.6.83-3.67.47-7.33.94-11,1.37-1,.12-2.1.11-2.77,1.25-4.69,7.91-9.4,15.81-14.16,23.68-.77,1.28-1.26,2.4-.41,3.82.42.7.62,1.52.91,2.29,1.47,3.87,2.9,7.75,4.4,11.61,2.21,5.7,4.48,11.38,6.66,17.09.29.75.71,1.45.71,2.35-.05,10.99-.04,21.99-.05,32.99,0,1.51-.1,1.56-1.41.8-5.87-3.45-11.74-6.9-17.61-10.34-7.44-4.36-14.88-8.71-22.31-13.08-.82-.48-1.57-.58-2.47-.29-2.6.85-5.21,1.64-7.82,2.43-2.15.65-2.33.86-2.34,3.17,0,8.11-.03,16.23.01,24.35.01,1.15-.42,1.61-1.48,1.76-3.19.46-6.38.93-9.56,1.44-4.34.7-7.66,2.87-9.7,6.85-2.43,4.71-3.47,9.78-3.71,15.03-.24,5.31.12,10.58,1.39,15.78.91,3.72,2.4,7.17,4.33,10.47,1.05,1.79,2.24,3.39,3.92,4.59.76.55,1.58,1,2.5,1.28,2.05.64,4.03-.03,5.98-.36,2.78-.46,5.54-1.07,8.32-1.53.82-.13,1.01.22.88.93-.33,1.74-.46,3.49-.48,5.27-.05,4.19-.07,8.37.72,12.53.79,4.17,1.78,8.26,3.57,12.13,1.37,2.96,3,5.72,5.38,8,2.12,2.04,4.6,3.11,7.56,2.58,2.88-.52,5.72-1.18,8.58-1.78,4.76-.99,9.5-2.06,14.28-2.96,4.29-.81,8.58-1.67,12.85-2.62,1.92-.43,3.89-.69,5.92-1.04-.51,1.47-1.05,2.77-1.4,4.11-1.13,4.47-2.07,8.96-2.09,13.61-.01,1.72-.01,3.46-.03,5.17-.02,1.28.26,2.7.37,4.06.32,3.8,1.09,7.52,2.41,11.1,1.89,5.14,4.21,9.96,9.79,12.13h2.88c2.39-.78,4.87-1.12,7.32-1.64,3.98-.84,7.97-1.61,11.95-2.43,6.1-1.26,12.2-2.53,18.3-3.8,2.72-.57,5.43-1.18,8.16-1.7,1.04-.2,1.79-.69,2.44-1.5,2.75-3.43,4.14-7.44,5.11-11.65.84-3.65,1.13-7.36,1.28-11.11.1-2.35-.04-4.67-.15-6.98-.16-3.5-.85-6.96-1.82-10.36-1.22-4.31-2.71-8.49-5.58-12.01-1.58-1.94-3.36-3.62-5.96-4.12-1.88-.36-3.73-.06-5.56.25-.52.09-1.1-.09-1.61.3-.2.16-.55.04-.52-.38.09-.96-.26-1.86-.27-2.82-.01-3.22-.09-6.44-.21-9.66-.06-1.61-.94-3-1.51-4.45-1.96-5.05-3.97-10.08-6.06-15.07-1.82-4.35-3.43-8.79-5.31-13.12-.48-1.12-1.13-2.25-1.27-3.54.44-.29.76.06,1.07.25,8.75,5.16,17.63,10.1,26.28,15.44.98.6,1.86.08,2.72-.07,3.27-.56,6.49-1.38,9.76-1.91,4.14-.67,8.26-1.48,12.38-2.25,8.14-1.5,16.26-3.07,24.39-4.57,2.55-.47,5.11-.85,7.64-1.45.61-.14,1.05-.07,1.3.87.65,2.41,1.68,4.72,2.42,7.11.45,1.48.89,3,1.41,4.44.65,1.85,1.25,3.73,1.9,5.58.68,1.95,1.27,3.93,1.91,5.89.59,1.78,1.21,3.57,1.83,5.36.74,2.11,1.49,4.21,2.07,6.38.64,2.4,1.72,4.67,2.47,7.04,1.3,4.13,2.77,8.2,4.02,12.34.55,1.81,1.02,3.76,2.32,5.38-2.7.8-5.37,1.62-8.05,2.39-1.9.54-3.81,1.02-5.71,1.51-.83.21-1.19.7-1.2,1.54-.04,3.36-.11,6.72-.14,10.07-.01.98.48,1.63,1.33,2.16,4.11,2.55,8.22,5.11,12.23,7.83,2.24,1.52,4.58,2.89,6.83,4.4.99.66,1.94.76,3.05.43,4.58-1.37,9.18-2.67,13.76-4.04,6.3-1.89,12.66-3.6,19.01-5.36,1.46-.41,1.78-.77,1.77-2.3v-1.56c.02-1.67.3-2.08,1.88-2.36,3.92-.7,7.8-1.62,11.71-2.35,4.93-.93,9.83-2,14.76-2.94,3.3-.63,6.6-1.31,9.9-1.97,1.1-.22,1.96-.77,2.67-1.67,2.58-3.31,3.74-7.19,4.72-11.17.58-2.32.41-4.75,1.15-7.04v-8.4c-.32-.4-.47-.85-.48-1.37Zm-23.61-37.46c.65-.19.8.06.79.7-.03,2.4,0,4.79,0,7.19s-.02,4.63.02,6.94c.01.71-.16,1.09-.92,1.23-2.7.53-5.4,1.11-8.09,1.69-.82.18-1.05-.13-1.01-.92.22-4.43.04-8.85-.05-13.28-.02-.73.21-1.02.94-1.21,2.79-.73,5.55-1.55,8.33-2.34Zm-53.91-45.15c.37-.13.59.14.84.34,2.93,2.41,5.86,4.81,8.78,7.22,10.82,8.91,21.63,17.83,32.45,26.74,3.17,2.62,6.36,5.22,9.53,7.84.28.24.8.43.69.86-.09.34-.6.32-.93.41-2.15.61-4.31,1.16-6.45,1.81-.98.29-1.69,0-2.39-.64-3.06-2.74-6.14-5.48-9.21-8.21-8.13-7.22-16.25-14.43-24.38-21.64-2.66-2.36-5.29-4.75-7.98-7.06-.83-.71-1.32-1.41-1.15-2.54.08-.58.01-1.19.01-1.79h-.04c0-.84-.02-1.68.01-2.52.02-.27-.23-.66.22-.82Zm9.06,31.12c.65.49,1.29.98,1.94,1.47,4.77,3.61,9.41,7.4,14.14,11.07,1.2.92,1.43,2.02,1.39,3.22-.16,3.84.01,7.68-.1,11.51-.03,1.08.4,1.54,1.33,1.87.75.26,1.66.2,2.42,1.14-4.66.92-9.41,1.2-13.26,4.44,2.49-12.8-.22-24.27-7.86-34.72Zm-9.04-20.75c.4-.15.63.27.89.49,8.73,7.74,17.46,15.48,26.19,23.22,3.78,3.34,7.55,6.69,11.32,10.04.38.34.76.69,1.34,1.22-2.07.03-3.7-.73-5.42-1.05-1.82-.33-3.62-.71-5.42-1.12-.65-.15-1.25-.48-1.78-.9-8.89-7.06-17.78-14.11-26.67-21.15-.47-.38-.7-.77-.69-1.41.04-2.79.01-5.59.03-8.39,0-.32-.23-.78.21-.95Zm29.06,44.32c0-2.67.02-5.35-.04-8.02-.01-.83.34-.98.99-.84,3.69.79,7.37,1.64,11.08,2.37.95.19,1.19.55,1.15,1.47-.08,1.92-.02,3.83-.02,5.75h.01c0,1.95-.05,3.91.02,5.86.04,1.1-.28,1.3-1.28.94-2.91-1.04-5.84-2-8.75-3.02-3.17-1.1-3.16-1.11-3.16-4.51Zm-29.03-30.49c.68-.35,1.44.85,2.16,1.38.94.68,1.82,1.44,2.73,2.16.19.15.4.28.33.57-.08.34-.37.19-.58.24-1.27.3-2.53.62-3.81.9-.68.16-1.19.06-1.09-.86.07-.59.02-1.2.02-1.89.07-.81-.37-2.19.24-2.5Zm-.26,11.45c0-.91.05-1.84-.02-2.75-.06-.79.36-1.08.99-1.21,1.28-.25,2.56-.47,3.84-.69.67-.12,1.22.1,1.7.57,2.65,2.55,4.38,5.67,5.65,9.07.75,2.02,1.61,4.02,2.06,6.15.65,3.12,1.3,6.23,1.32,10.16-.18,2.68-.63,6.04-1.33,9.38-.49,2.33-1.34,4.5-2.24,6.66-.16.38-.4.57-.79.65-3.92.79-7.84,1.61-11.76,2.37-.53.1-1.2.33-1.65-.26-.5-.68-.32-1.3.01-2.06,1.51-3.41,1.92-7.06,2.34-10.72.25-2.19.32-4.37.15-6.56-.43-5.54-1.52-10.91-3.93-15.96-.65-1.37-.61-1.29.85-1.61,2.9-.64,2.78.22,2.81-3.19Zm11.72,63.98c-1.86-1.55-3.53-.3-5.22.03-.63.12-1.37.73-1.83.29-.32-.3.14-1.13.3-1.73.27-.96-.09-1.88-.4-2.77-1.08-3.2-2.22-6.38-3.33-9.57-.77-2.22-1.48-4.46-2.31-6.65-.3-.79.04-1.03.61-1.15,2.51-.53,5.02-1.03,7.52-1.52.97-.19,1.96-.28,2.9-.56.76-.24,1.47-.18,2.29-.12-1.88,7.87-1.81,15.74-.53,23.75Zm-14.87-40.54c-.19-4.5-.59-8.99-2.03-13.33-.57-1.73-1.16-3.42-1.93-5.07-.15-.31-.63-.75-.18-1.02.53-.31.97.1,1.24.6.86,1.62,1.59,3.3,2.14,5.05.77,2.47,1.41,4.99,1.69,7.56.24,2.28.52,4.56.5,6.86-.02,2.97-.39,5.9-.87,8.81-.14.9-.6,1.74-.99,2.79-.55-.8-.71-1.38-.59-2.28.45-3.31,1.16-6.61,1.02-9.97Zm-2.33,5.87c-.04.13-.16.29-.28.34-.27.1-.31-.16-.39-.33-.59-1.3-.64-2.77-1.27-4.07-.1-.2.09-.64.27-.85.23-.25.48.09.72.17,1.25.42,1.4,1.39,1.23,2.41.08.86-.06,1.6-.28,2.33Zm-.3-6.91c-.58.22-.96-.33-1.25-.69-1.01-1.26-.62-4.64.61-5.71.05-.04.15-.02.26-.03.55,1.73.76,3.5.6,5.3-.03.38.3.93-.22,1.13Zm-1.17-10.79c.13.54.1.86-.24,1.24-.29.33-.5.73-.82,1.03-.4.38-.59,1.28-1.28,1.02-.79-.29-1.56-.83-1.74-1.78-.27-1.53-.5-3.07-.73-4.6-.1-.66-.07-1.36-.29-1.97-.48-1.38-.33-1.72,1.7-1.91.47-.1.85.22,1.14.78,1,1.98,1.74,4.03,2.26,6.19Zm-4.27,10.2c.81,2.56,2.07,4.97,2.9,7.54,1.15,3.62,2.31,7.23,3.51,10.83.77,2.3,1.57,4.59,2.45,6.85.37.95.19,1.41-.81,1.46-1.39.07-2.76.23-4.08.72-.59.21-.57-.4-.64-.6-1.68-4.69-3.18-9.44-5-14.08-1.93-4.92-3.49-9.97-5.26-14.95-1.66-4.61-3.31-9.23-4.94-13.86-1.69-4.78-3.36-9.58-5.03-14.37-.35-1-.6-2.05-1.01-3.03-.3-.68-.12-1.03.47-1.34.82-.42,1.68-.71,2.37-.78,2.25-.03,2.99.5,3.64,2.38,2.06,5.97,4.2,11.91,6.19,17.91,1.7,5.12,3.61,10.17,5.24,15.32Zm1.91-82.97c.87-.28.93.05.92.75-.01,3.12,0,6.23,0,9.35h.1c0,3.08-.01,6.15.01,9.23,0,.72-.18,1.05-.96,1.18-2.41.4-4.81.88-7.21,1.38-1.02.21-.88-.44-.88-1.04-.02-4.83-.04-9.67-.06-14.51-.01-1.03-.02-2.07-.07-3.11-.03-.62.16-.9.8-1.07,2.46-.67,4.92-1.38,7.35-2.16Zm-15.28-57.34c0-3.43-.07-6.87-.12-10.3,0-.49-.09-.94.62-1.06,3.4-.57,6.8-1.18,10.21-1.76.97-.17,1.42.07,1.41,1.27-.06,10.35-.04,20.7-.04,31.05h-.13v27.82c0,.64-.01,1.28.02,1.92.15,3.34-2.15,5.88-5.5,6.08-1.79.1-3.38-.4-4.76-1.53-1.17-.96-1.74-2.12-1.74-3.73.05-16.58.04-33.17.03-49.76Zm14.7,54.68c.02.44-.44.41-.7.5-.84.29-1.71.51-2.56.75-.03-.07-.06-.15-.09-.22.54-.51,1.11-.99,1.62-1.53.35-.38.69-.29,1.04-.08.26.16.67.21.69.58Zm14.73-88.33c.02,1.27-.53,2.49-.3,3.77.1.52-.37.42-.63.47-1.54.32-3.08.65-4.63.91-2.66.43-5.34.78-8,1.23-4.04.68-8.06,1.42-12.1,2.11-3.25.56-6.51,1.09-9.77,1.64-1.69.29-1.7.29-1.7-1.38-.01-3.88,0-7.75,0-11.63h-.03c0-3.95.01-7.91-.01-11.86-.01-.76.18-1.09,1.03-1.23,5.69-.91,11.36-1.89,17.03-2.85,1.83-.32,3.66-.62,5.48-.97.91-.17,1.19.16,1.16,1.05-.06,2.04-.05,4.07-.06,6.11-.01,1.85.41,2.19,2.19,1.88,3.03-.54,6.08-.89,9.15-1.11.51-.04.83-.05.91.69.42,3.72.21,7.45.28,11.17Zm-.04-21.03c-.04,2.02.02,4.04-.26,6.06-.04.35-.15.44-.49.49-2.83.5-5.66,1.01-8.56.94-.54-.02-.7-.22-.7-.69v-2.75h-.07v-1.32c0-2.13,0-2.14,2.05-2.43,2.29-.32,4.57-.7,6.83-1.2.67-.15,1.21-.09,1.2.9Zm-51.8.93c0-1.26.17-1.37,1.37-.91q2.41.93,2.41,3.65c-.01,7.91-.03,15.81,0,23.72.01,1.04-.3,1.06-1.15.84-2.55-.65-2.59-.62-2.61-3.23-.04-3.83-.01-7.66-.01-11.5h-.02c0-4.19-.01-8.38,0-12.57Zm12.07,39.65c-.06.92-.22,1.32-1.36.92-3.17-1.12-6.39-2.08-9.61-3.06-.59-.18-.96-.38-1-1.08-.13-2.39-.15-4.77.12-7.3,2.62.82,5.17,1.63,7.74,2.39,1.07.32,2.07.85,3.19,1.04.31.05.76.06.81.67.16,2.14.23,4.28.11,6.42Zm.02-35.98c.02,4.23.02,8.46.02,12.69h-.13c0,4.23-.02,8.47.02,12.7.01.94-.2,1.21-1.14.85-1.2-.46-2.44-.85-3.69-1.16-.93-.22-1-.78-1-1.57.01-6.67.01-13.34-.01-20.01,0-1.75-.07-3.51-.13-5.26-.03-.92.17-1.35,1.22-.93,1.4.57,2.83,1.06,4.29,1.46.81.22.55.79.55,1.23Zm2.27-2.88c-3.23-1.18-6.63-1.89-10.04-3.36,1.31-.26,2.4-.54,3.5-.7,3.77-.52,7.5-1.21,11.24-1.9,3.37-.62,6.77-1.13,10.15-1.69,1.44-.23,2.86-.54,4.31-.7.94-.11,1.89-.14,2.84.17,3.43,1.15,6.87,2.26,10.3,3.38.17.06.3.09.29.37-3.4.7-6.84,1.26-10.28,1.8-2.94.46-5.87.99-8.8,1.5-3.41.6-6.83,1.08-10.21,1.82-1.15.25-2.23-.31-3.3-.69Zm1.05,40.44c-.69.17-.81-.11-.81-.61-.02-2.23-.02-4.47,0-6.71,0-1.56,1.44-1.28,2.2-1.38,6.13-.85,12.2-2.06,18.31-2.99,4.45-.68,8.86-1.56,13.29-2.34.23-.04.48-.02.72,0,.8.02,1.82-.76,2.33-.06.41.56.16,1.61.18,2.45.02.48,0,.96,0,1.44h.04c0,1.03,0,2.07,0,3.11.01.65-.21.98-.92,1.09-4.05.65-8.09,1.35-12.13,2.04-2.94.5-5.88,1.01-8.82,1.5-3.3.55-6.6,1.07-9.9,1.62-1.5.25-3.01.49-4.48.85Zm5.93,66.86c-.46-.25-.92-.5-1.57-.86,1.12-.68,1.37.08,1.57.86Zm-2.51,1.41c2.23,1.15,4.4,2.44,6.67,3.49,1.33.62,1.76,1.43,1.69,2.85-.12,2.31-.03,4.63-.03,6.95h-.06c0,2.63-.02,5.27.01,7.9.01.88-.25,1.07-1.03.66-2.6-1.38-5.2-2.75-7.83-4.08-.42-.21-.32-.5-.33-.78-.07-5.55-.13-11.1-.19-16.65,0-1.19.72-.54,1.1-.34Zm-27.02-12.37c1.41-.27,1.4-.28,1.41,1.34.42,1.04-.39,1.34-1.29,1.59-5.32,1.44-10.59,3.07-16.01,4.18-.67.14-1.37.38-2.04.6-.53.18-.75-.03-.74-.55.01-.04,0-.08-.01-.12-.31-2.76-.28-2.73,2.4-3.4,4.97-1.24,10.04-2.09,14.98-3.48.41-.12.87-.08,1.3-.16Zm1.27,10.07c-.1,1.19-.7,1.39-1.58,1.58-3.28.7-6.55,1.42-9.82,2.14-2.54.57-5.09,1.08-7.6,1.76-.85.23-.84-.11-.87-.68-.04-.84-.08-1.67-.12-2.51.06-2.43.06-2.42,2.39-3.04,4.85-1.29,9.69-2.6,14.54-3.87.45-.11.92-.15,1.37-.27,1.67-.43,1.74-.4,1.79,1.34.04,1.18,0,2.36-.1,3.55Zm-20.53-19.33c1.56-.58,2.92-.52,4.39.25,4.06,2.12,8.16,4.15,12.25,6.22.25.13.74.17.61.57-.06.2-.49.33-.78.4-4.44,1-8.94,1.78-13.3,3.04-2.99.86-5.4.24-7.88-1.33-2.23-1.42-4.61-2.59-6.93-3.87-.34-.19-.67-.4-1.3-.77,1.59-.59,2.91-1.11,4.24-1.57,2.9-.99,5.83-1.88,8.7-2.94Zm-15.29,12.41c-.01-.67.25-.73.79-.43,3.7,2.02,7.42,3.99,11.1,6.05,1.55.87,1.51.94,1.5,3.61,0,.68-.02,1.36,0,2.04.05.92-.26.97-1.05.61-2.87-1.32-5.49-3.11-8.32-4.53-1.14-.57-2.24-1.2-3.37-1.8-.41-.22-.69-.47-.68-1,.03-1.52.02-3.03.02-4.55Zm13.38,2.31c0,.25.05.54-.01.81-.09.41-.18.67-.78.36-3.85-2-7.74-3.93-11.61-5.88-1.02-.52-1.76-2.61-1.2-3.56.29-.5.68-.16,1.02.02,2.96,1.61,5.93,3.22,8.89,4.85.95.52,1.85,1.12,2.79,1.65.69.39,1.12.88.9,1.75Zm-3.97-72.49c-2.15,1.76-7.35,1.76-9.75-.01,3.33-1.13,6.46-1.05,9.75.01Zm-10.94,77.25c4.84,2.6,9.65,5.25,14.49,7.86,1.01.54,2.09.32,3.15.08,4.73-1.06,9.46-2.11,14.19-3.17,2.19-.49,4.37-.99,6.55-1.5,1.04-.25,1.75-.77,1.53-2.01-.06-.35-.01-.72-.01-1.08,0-1.73.08-1.79,1.6-.99,2.84,1.48,5.67,2.99,8.51,4.48-.03.11-.05.22-.08.32-4.53.84-9.03,1.82-13.54,2.76-4.14.85-8.28,1.69-12.41,2.6-3.35.73-6.71,1.41-10.07,2.11-4.2.87-8.41,1.75-12.61,2.62-6.5,1.33-13,2.64-19.49,3.98-3.95.82-7.89,1.66-11.83,2.49-.72.15-1.42.14-2.1-.23-8.93-4.84-17.87-9.67-26.8-14.51-.02-.01-.01-.08-.04-.26,2.17-.49,4.34-1.03,6.53-1.48,2.07-.42,4.15-.78,6.23-1.15,1.6-.28,1.69-.2,1.72,1.41.03,1.76.08,3.51.07,5.27,0,.78.32,1.28,1.02,1.6,1.94.89,3.87,1.79,5.8,2.71.66.31,1.3.32,1.98.11,2.52-.76,5.04-1.54,7.57-2.26.91-.26,1.35-.75,1.35-1.69.01-2.11.04-4.23.07-6.35.01-.26-.11-.62.15-.77.37-.2.56.2.79.39,1.94,1.6,3.89,3.19,5.8,4.83.69.58,1.31.72,2.25.53,4.03-.83,8.1-1.46,12.14-2.27,2.24-.45,4.53-.7,6.72-1.4,1.22-.4,1.32-.67.32-1.52-2.07-1.76-4.42-3.15-6.63-4.72-1.3-.92-2.63-1.81-3.94-2.72-.18-.13-.51-.25-.39-.52.07-.17.36-.28.58-.33,2.32-.5,4.65-.99,6.99-1.47.45-.09.75.03.72.62-.08,1.39.02,2.77.18,4.15.09.72.3,1.14.94,1.48Zm-26.72,123.07c.03.4-.16.65-.57.34-1.21-.9-2.41-1.84-3.62-2.75-.32-.24-.24-.57-.25-.87-.06-2.88-.1-5.76-.19-8.63-.02-.61.14-.97.7-1.21,1.12-.5,2.23-1.02,3.43-1.26.79,4.83.16,9.62.5,14.38Zm-1.6-16.63c-.86.32-1.71.68-2.58.95-.68.22-1.15.05-1.43-.75-1.84-5.13-3.71-10.24-5.62-15.33-1.59-4.26-3.28-8.48-4.87-12.73-1.33-3.56-2.59-7.15-3.89-10.73-.72-1.99-1.45-3.98-2.21-5.96-.2-.51-.15-.83.19-1.29.6-.82,1.06-1.75,1.67-2.78.97,2.37,1.9,4.62,2.81,6.89,1.83,4.59,3.63,9.19,5.51,13.76,1.52,3.68,3,7.38,4.53,11.06,1.82,4.37,3.68,8.73,5.29,13.18.28.8.65,1.62,1.07,2.38.39.67.23,1.09-.47,1.35Zm-37.66-38.72c-.88-2.84-1.71-5.7-2.64-8.52-.25-.76.01-.91.63-1,2.03-.31,4.06-.62,6.09-.93.71-.14,1.03.26,1.21.87,1.42,4.8,3.08,9.54,4.69,14.28,2.62,7.73,5.17,15.48,7.69,23.24.18.56,1.01,1.54-.51,1.87-.67.14-.9-.11-1-.57-.49-2.33-1.1-4.63-1.95-6.85-1.42-3.7-3.16-7.21-6.1-9.98-1.21-1.13-2.52-2.1-4.18-2.45-.89-.18-1.1-.85-1.33-1.58-.85-2.8-1.74-5.58-2.6-8.38Zm.46,9.51c-.64.59-1.5.52-2.28.72-.52.14-.73-.12-.91-.61-.71-1.97-1.31-3.97-1.9-5.96-.9-3.04-1.91-6.04-2.79-9.08-.12-.41-.18-.84-.31-1.25-.69-2.13-.6-2.24,1.67-2.26.85-.29.89.49,1.06,1,.91,2.85,1.76,5.72,2.66,8.57.89,2.82,1.81,5.62,2.71,8.43.05.15.15.39.09.44Zm21.01,30.87c-.82.83-2.11,1.05-3.28,1.32-.58.14-.54-.26-.58-.63-.3-2.61-.18-5.26-.73-7.86-.2-.9.72-.73,1.19-.95.47-.22.91-.31,1.11.37.53,1.78,1.4,3.44,1.76,5.27.01.08-.01.17,0,.24.15.78,1.14,1.62.53,2.24Zm-4.72,11.56c.15-1.52.49-3.03.57-4.56.04-.76.32-1.46.31-2.21-.01-.46.41-.54.74-.67,1.66-.63,3.31-1.27,4.98-1.87.64-.22,1-.49.97-1.26-.04-.77-.14-1.49-.38-2.22-2.25-6.65-4.48-13.31-6.7-19.98-1.59-4.77-3.15-9.55-4.73-14.33-1.59-4.81-3.17-9.62-4.76-14.44-.4-1.22-.32-1.33,1.04-1.53.24-.03.46-.12.7-.16,1.81-.3,1.94-.24,2.47,1.45.25.81.59,1.62,1.13,2.19,2.04,2.14,2.46,5,3.51,7.58.87,2.16,1.66,4.35,2.48,6.53,1.33,3.54,2.65,7.09,3.98,10.63.87,2.33,1.76,4.65,2.6,6.99,1.92,5.35,4.03,10.62,5.88,15.99.44,1.26.71,2.47.73,3.78.04,2.8.06,5.59.17,8.39.03.9-.34,1.31-1.14,1.39-2.98.32-5.89,1.05-8.85,1.43-2.22.28-4.2,1.13-6.13,2.15-.23.12-.49.18-.85.32.32-1.97,1.1-3.71,1.28-5.59Zm-5.4-78.45c-1.96-.77-3.89-.42-5.81-.25-.83.07-1.12-.18-1.12-1.04.02-7.63.02-15.26,0-22.9,0-.9.29-.94.96-.51,1.89,1.19,3.79,2.37,5.7,3.51.41.24.54.52.52.96-.25,6.71-.18,13.42-.25,20.23Zm4.68,16.83c-.14.36-.26.87-.68.89-.35.02-.47-.48-.65-.77-.75-1.18-1.02-2.58-1.12-3.88-.24-2.94-.36-5.93.84-8.76.22-.52.36-1.39.94-1.34.63.05.81.91.99,1.51.57,1.84.92,3.73.69,5.66.27,2.33-.19,4.54-1.01,6.69Zm3.72-4.59c-.2-1.01-.35-2.02-.22-3.15-.05-2.09-.35-4.24-1.27-6.24-.27-.59-.18-.85.4-.87,3.07-.15,6.08-.88,9.15-1,.84-.03,1.35.31,1.83.88,1.72,2.02,2.37,4.5,3.06,6.95.23.84.16,1.73.26,2.58.14,1.2-.33,1.6-1.43,1.79-2.76.46-5.51,1.03-8.27,1.53-2.29.41-3.06-.14-3.51-2.47Zm13.05-9.28c-.09-.08-.16-.19-.23-.29-.1-.16-.19-.34-.3-.48-1.33-1.72-1.32-1.75.77-2.06,3.07-.44,6.15-.86,9.22-1.27.28-.04.56-.06.84-.03.95.09,1.62.76,1.75,1.54.11.65-.85.49-1.29.59-3.23.77-6.48,1.45-9.73,2.15-.11.03-.23.03-.36.05-.31.05-.51-.04-.67-.2Zm17.17-49.9c-.56.01-.82-.1-1.08-.75-1.44-3.62-3.01-7.19-4.51-10.78-.91-2.18-1.75-4.38-2.66-6.55-1.09-2.63-2.24-5.23-3.33-7.85-1.04-2.48-2-4.99-3.06-7.45-1-2.33-1.83-4.73-2.98-7-.25-.51-.46-1.01.56-1.23,2.18-.48,4.42-.6,6.59-1.11.6-.15.95.13,1.19.69,1.18,2.68,2.39,5.36,3.58,8.04,1.13,2.52,2.27,5.04,3.37,7.57,2.13,4.91,4.38,9.76,6.47,14.69,1.29,3.05,2.78,6.02,4.04,9.1.23.57.31.91-.34,1.04-2.61.55-5.22,1.07-7.84,1.59Zm3.9,2.56c2.79,1.95,5.59,3.86,8.39,5.79.25.17.66.29.62.66-.05.49-.57.36-.87.42-3.74.7-7.48,1.36-11.23,2.04-.18.03-.35.15-.54.2-1.64.46-2.97.19-4.38-.99-1.93-1.62-3.9-3.19-5.76-4.91-.28-.26-.77-.43-.65-.9.12-.46.67-.44.99-.51,2.99-.63,5.99-1.21,8.99-1.77.88-.16,1.71-.59,2.65-.46.65-.09,1.23.04,1.79.43Zm-21.63-37.17c1.01,2.43,2.08,4.84,3.04,7.3,1.74,4.43,3.61,8.81,5.42,13.21,1.88,4.55,3.8,9.1,5.74,13.63.13.33.25.66.38.99-2.26.76-4.58.97-6.82,1.52-.84.21-.63-.42-.64-.75-.08-2.6-.2-5.2-.14-7.79.04-1.54-.43-2.54-1.89-3.17-1.39-.59-2.67-1.44-4.05-2.05-1.15-.51-1.79-1.36-2.25-2.47-1.58-3.8-3.15-7.6-4.79-11.36-1.69-3.85-3.09-7.82-5.01-11.57-.04-.06-.03-.15-.05-.22-.88-2.69-.86-2.68,2.61-3.02,1.59-.15,3.19-.28,4.75-.69.75-.2,1.17.31,1.44.96.75,1.82,1.5,3.65,2.26,5.48Zm-1.44,31.84c-.28-1.7.01-2.13,1.71-2.71,1.08-.36,2.22-.56,3.34-.8.63-.13,1,0,.99.84-.09,6.63-.14,13.27-.17,19.91-.01.69-.29.98-.88,1.2-1.54.58-3.11.97-4.81,1.2,0-5.31.01-10.63,0-15.94,0-1.24.03-2.46-.18-3.7Zm-2.41,8.6h-.03c0,3.36-.02,6.71.02,10.07.01.87-.28.96-.95.6-.07-.03-.15-.06-.22-.09q-3.13-1.42-3.13-4.84c0-5.79.02-11.58-.02-17.37-.01-1.01.17-.95,1.12-.74,3.03.67,3.5,2.61,3.26,5.31-.22,2.33-.05,4.71-.05,7.06Zm-1.92-14.62c2.58-1.2,5.14-2.13,7.55.35-2.5,1.13-5.04,1.84-7.55-.35Zm-2.11-14.98c1.33,3.25,2.7,6.51,4.17,9.72.74,1.63.7,1.66-1.01,2.25-1.22.42-2.49.71-3.67,1.22-.86.38-1.17.09-1.49-.66-1.73-4.08-3.5-8.13-5.24-12.2-1.68-3.92-3.39-7.83-4.99-11.78-.32-.8-.53-1.66-.9-2.45-.27-.58.01-.7.48-.77,1.68-.26,3.37-.52,5.05-.78.8-.15,1.23.15,1.53.93,1.85,4.91,4.08,9.66,6.07,14.52Zm25.55-19.31c1.27,3.32,2.91,6.47,4.21,9.78,1.22,3.12,2.74,6.12,4.1,9.19,2.18,4.92,4.39,9.82,6.44,14.8.5,1.19.5,2.62.4,3.83q0,2.46-2.26,2.78c-1.82.27-1.83.27-2.56-1.37-2.96-6.63-5.9-13.27-8.87-19.9-2.74-6.11-5.5-12.22-8.27-18.32-.22-.49-.05-.74.4-.85,1.8-.44,3.64-.65,5.48-.85.67-.07.77.5.93.91Zm-42.52-5.41c1.9-.27,3.81-.51,5.71-.77,2.57-.34,5.14-.69,7.71-1.03,2.1-.28,4.19-.57,6.29-.84,2.37-.31,4.74-.61,7.11-.91,2.18-.27,4.36-.56,6.54-.79.79-.08,1.49-.6,2.53-.32,2.3-1.25,2.54.87,3.22,2.31.57,1.23,1.06,2.49,1.63,3.72.26.55.18.75-.45.84-3.03.43-6.05.89-9.08,1.35-2.83.44-5.66.91-8.5,1.33-3.1.46-6.21.87-9.32,1.33-2.71.4-5.43.8-8.13,1.3-.69.12-1.42.02-2.09.34-.24.11-.55.09-.73-.35-.95-2.3-1.96-4.57-2.96-6.84-.25-.57.19-.62.52-.67Zm-3.02,65.93c.1-1.46.02-2.94.02-4.61,3.36,1.82,6.54,3.56,9.72,5.28,3.38,1.82,6.76,3.63,10.13,5.45,2.59,1.39,5.14,2.88,7.78,4.16,1.16.56,1.41,1.29,1.34,2.43-.19,2.85-.36,5.71-.42,8.56-.03,1.79-.11,3.57-.23,5.36-.03.55-.32.69-.73.74-3.78.42-7.54,1.09-11.33,1.5-1.86.2-3.76.36-5.59.75-1.03.22-.96-.19-.96-.85,0-1.12-.02-2.24-.02-3.35-.03-5.16-.11-10.31-.06-15.47.01-2.04-.72-3.41-2.59-4.32-1.92-.93-3.73-2.11-5.61-3.15-1.01-.55-1.54-1.25-1.45-2.48Zm-.67,31.72c1.36.11,2.67-.48,3.78-.26,2.55-.06,3.04.43,3.63,2.77.3,1.2.14,2.31,0,3.49-.13,1.14-.07,2.32,0,3.47.04.61-.25,1-.71,1.02-1.78.07-3.48.65-5.25.8-.76.07-.83-.2-.78-.85.17-2.27.59-4.55-.22-6.79-.33-.93-.57-1.89-.97-2.79-.29-.65-.17-.93.52-.86Zm-3.73.41c.58,0,.98.08,1.22.67,1.26,3.12,1.59,6.3.83,9.62-.2.86-.67,1.16-1.31,1.24-2.09.26-4.17.51-6.24.96-.95.21-.76-.56-.63-.95.67-1.9.38-3.85.46-5.79.08-1.79-.57-3.39-1.3-5.17,2.44-.04,4.68-.59,6.97-.58Zm-12.06,5.23c.12-1.31.48-2.55,1.25-3.63.73-1.01,1.32-1.03,2.02,0,1.13,1.66,1.37,3.53,1.15,5.49.19,1.6.05,3.17-.65,4.65-.17.36-.36.72-.6,1.03-.75.94-1.1.91-1.82-.05-1.7-2.28-1.59-4.87-1.35-7.49Zm-.94,7.5c.16.47.43,1,.81,1.3,2.02,1.6,2.15,4.06,2.88,6.22.95,2.79,1.75,5.63,2.61,8.46.52,1.71,1.03,3.44,1.59,5.15.15.48-.14.62-.42.67-2.63.52-5.26,1.01-7.89,1.5-.43.08-.7-.05-.64-.56.1-.91.17-1.82.25-2.72.25-3.15.07-6.26-.2-9.4-.36-4.12-1.13-8.11-2.45-12.01-.15-.44-.32-.88-.48-1.32,1.59.55,3.32.83,3.94,2.71Zm-15.67-4.54c.35-1.34.18-2.69.24-4.02.04-.76.24-.93.92-.54,2.11,1.21,4.23,2.4,6.36,3.58.67.37,1.02.99,1.31,1.65,1.71,3.97,3.09,8.02,3.37,12.37.09,1.25.37,2.49.56,3.72.3,2.55.09,5.09-.07,7.62-.07.99-.15,1.98-.28,2.96-.11.9-.75,1.26-1.59,1.41-3.61.64-7.22,1.36-10.84,1.96-2.68.45-2.67.4-2.43-2.3.32-3.56.17-7.09-.41-10.65-.85-5.31-2.47-10.32-4.85-15.11-.45-.91-.01-1.11.75-1.19,2.07-.24,4.14-.49,6.21-.73.47-.05.62-.26.75-.73Zm-8.24-9.63c2.04.84,3.78,1.84,5.5,2.91.26.16.39.38.42.67.14,1.32.12,2.62-.03,3.93-.06.48-.27.65-.75.71-1.44.19-2.86.44-4.29.68-.58.1-.87-.04-.86-.71.02-2.67.01-5.33.01-8.19Zm-22.38,57.44c-1.82,1.69-3.97,1.88-5.96.39-1.92-1.43-3.31-3.25-4.55-5.37-2.31-3.93-3.05-8.26-3.91-12.54-.55-2.73-.87-5.59-.59-7.95-.08-6.04.66-11.45,2.95-16.58.85-1.91,1.99-3.61,3.57-5.04,1.43-1.29,4.29-1.19,5.66-.19,2.88,2.13,4.45,5.15,5.8,8.34,1.15,2.7,1.91,5.52,2.36,8.39.63,4.01,1.15,8.03.83,12.13-.19,2.36-.35,4.73-.84,7.01-.61,2.85-.99,5.79-2.78,8.33-.78,1.11-1.57,2.17-2.54,3.08Zm10.21-1.39c-2.27.64-4.57,1.14-7.09,1.33.29-.67.46-1.28.8-1.78,2.37-3.55,3.17-7.6,3.88-11.71.63-3.58.75-7.18.46-10.79-.5-6.3-1.61-12.44-4.57-18.12-1.3-2.5-2.91-4.75-5.32-6.48,1.21-.59,2.45-.52,3.63-.71,2.37-.38,4.77-.66,7.15-.99.63-.09,1.17.15,1.71.43,2.95,1.5,5.81,3.17,8.86,4.47.45.19.65.52.84.93,2.22,5.04,4.15,10.15,4.77,15.69.25,2.25.58,4.48.45,6.75-.1,1.8-.34,3.59-.49,5.39-.07.85-.68,1-1.32,1.09-5.12.7-8.76,3.38-11,8.07-.86,1.8-1.45,3.68-2.03,5.57-.14.48-.27.73-.73.86Zm18.94,40.14c-2.26,2.24-4.89,2.7-7.61.56-1.96-1.54-3.34-3.54-4.51-5.68-2.25-4.12-3.56-8.55-4.43-13.14-.66-3.44-.77-6.92-.88-10.39-.1-5.55.66-10.97,2.83-16.09.85-1.99,2.04-3.86,3.79-5.29,1.96-1.6,4.02-1.75,6.37-.24,2.18,1.39,3.59,3.5,4.84,5.7,2.18,3.81,3.45,7.98,4.3,12.25.99,4.99,1.45,10.04,1.05,15.14-.36,4.6-1.14,9.12-3.13,13.34-.67,1.42-1.49,2.73-2.62,3.84Zm22.55-4.45c-.2.53-.57.81-1.11.92-3.75.75-7.49,1.54-11.25,2.24-2.4.45-4.76,1.13-7.46,1.42,2.44-3.62,3.67-7.42,4.33-11.4.28-1.74.59-3.47.67-5.26.07-1.78.29-3.57.17-5.35-.33-5.12-.79-10.19-2.3-15.16-1.37-4.47-3.12-8.66-6.08-12.3-.85-1.05-1.93-1.87-3.13-2.93,1.75-.33,3.25-.63,4.75-.9,4.02-.73,8.04-1.48,12.07-2.15,1.13-.19,2.09.01,3.04,1.01,3.5,3.68,5.63,8.06,7.27,12.77.78,2.24,1.52,4.49,2.1,6.79.41,1.64.59,3.33.78,5.02.2,1.69.48,3.38.42,5.1-.18,5.46-.87,10.84-2.62,16.04-.47,1.41-1.11,2.76-1.65,4.14Zm13.88-2.09c-3.27.32-6.49,1.25-9.73,1.92-.47.1-.94.19-1.54.09,2.05-4.44,3.14-9.02,3.67-13.78.33-2.92.68-5.84.42-8.77-.4-4.44-1.18-8.81-2.66-13.05-1.93-5.57-4.38-10.84-8.45-15.21-.17-.19-.5-.37-.32-.69.15-.27.46-.24.74-.29,2.92-.5,5.84-1.04,8.76-1.55,1.71-.29,3.42-.56,5.14-.83,1.63-.25,2.95.38,4.13,1.46,3.03,2.79,4.8,6.35,6.07,10.16.83,2.48,1.64,4.98,2.05,7.58.76,4.95,1.29,9.92.84,14.93-.32,3.58-.82,7.15-1.98,10.58-.3.89-.71,1.75-1.05,2.63-1.07,2.82-2.83,4.5-6.09,4.82Zm16.93,48.85c-2.98,1.93-5.33,1.63-8.13-1.27-2.17-2.24-3.47-5.01-4.55-7.9-1.34-3.63-2.07-7.38-2.57-11.21-.14-1.05-.33-2.08-.33-3.3-.29-2.66-.14-5.47.15-8.26.64-6.21,1.87-12.28,5.13-17.74.93-1.55,2.06-2.95,3.54-4.03,2.41-1.76,4.8-1.7,7.12.2,2.96,2.41,4.46,5.76,5.74,9.22,1.1,2.95,1.77,6.02,2.12,9.11.47,4.08.83,8.17.39,12.32-.28,2.61-.51,5.22-1.03,7.78-.93,4.55-2.28,8.97-5.21,12.73-.69.89-1.43,1.74-2.37,2.35Zm25.75-6.1c-.28.72-.78,1.1-1.53,1.25-5.94,1.21-11.88,2.43-17.82,3.65-.85.17-1.68.36-2.88.62,2.31-2.91,3.69-5.9,4.66-9.03.84-2.67,1.5-5.38,1.86-8.2.52-3.98.9-7.96.64-11.96-.24-3.73-.65-7.43-1.6-11.09-.94-3.62-2.13-7.09-4.1-10.28-.94-1.55-2.1-2.91-3.53-4.04-.23-.17-.65-.32-.51-.69.1-.27.45-.22.73-.27,2.76-.45,5.52-.94,8.28-1.4.91-.16,1.71.12,2.43.67,1.33,1.03,2.68,2.02,3.98,3.08.59.48,1.13.63,1.83.29,1.56-.75,3.29-.67,4.94-.97.68-.13,1,.28,1.28.8,1.52,2.8,2.7,5.75,3.73,8.75.87,2.56,1.56,5.18,1.98,7.84.65,4.08.97,8.16.54,12.32-.49,4.69-1.36,9.27-2.89,13.72-.57,1.68-1.36,3.29-2.02,4.94Zm4.8-50.06c.69-.16,1.18-.37,1.06-1.29-.13-.95-.04-1.92-.05-2.88,0-.4-.05-.79.53-.88,2.44-.37,4.8-1.34,7.35-.73.58.13,1.03.37,1.47.7,2.93,2.22,4.66,5.24,6.07,8.58.89,2.12,1.53,4.29,2.12,6.49.42,1.58.73,3.2.93,4.83.4,3.37.86,6.76.7,10.16-.22,4.84-.64,9.68-2.21,14.3-.73,2.18-1.59,4.34-2.87,6.31-.64.99-1.42,1.67-2.57,1.9-4.82.97-9.65,1.94-14.47,2.9-.11.02-.23-.04-.32-.06,7.09-16.77,6.8-33.19-2.35-49.26,1.62-.38,3.11-.73,4.61-1.07Zm-2.07-17.11c0,.24-.02.48-.04.72.22,3.71.36,7.43.53,11.15.14,3,.28,2.95-2.47,3.58-2.43.57-4.83,1.25-7.25,1.86-.75.18-.92-.28-.86-.89.38-4.52.1-9.03-.24-13.54,0-.04,0-.08-.01-.12-.26-2.31-.01-2.82,2.35-3.09,2.19-.26,4.35-.7,6.53-1,1.38-.19,1.48-.08,1.46,1.33Zm-8.82-25.38c1.88,4.84,3.89,9.62,5.73,14.47.78,2.06,1.64,4.11,2.56,6.12.28.6.08.91-.47,1-3.07.51-6.14.98-9.31,1.48-.45.1-.68-.21-.87-.67-1.26-3.16-2.54-6.32-3.83-9.48-1.26-3.1-2.57-6.18-3.83-9.28-1.14-2.81-2.2-5.66-3.34-8.47-1.22-3-2.51-5.97-3.73-8.98-1.22-3-2.39-6.03-3.57-9.05-.11-.29-.37-.74.25-.84,3.1-.5,6.13-1.44,9.28-1.71.76-.06,1.11.22,1.38.94,1.06,2.79,2.19,5.55,3.29,8.33,1.17,2.94,2.32,5.88,3.5,8.82.98,2.44,2.02,4.86,2.96,7.32Zm5.72-17.62h-.02c0,1.44-.02,2.88.01,4.32.01.74-.11,1.1-.92.62-2.97-1.73-5.95-3.42-8.91-5.16-1.09-.65-1.1-1.98-1.67-2.97-.19-.32.35-.47.73-.53,2.28-.37,4.56-.76,6.84-1.15.31-.05.61-.17.91-.23,2.52-.55,3.03-.16,3.03,2.35v2.75Zm-1.01-8.84c-.26.8-.71,1.24-1.68,1.37-3.14.42-6.26,1-9.38,1.55-.38.07-.54-.07-.63-.35-.4-1.25-1.24-2.36-.79-3.85.72-2.38.02-4.68-.7-6.94-.28-.88-.22-1.16.8-1.37,3.6-.76,7.25-1.24,10.8-2.25.69-.2,1.02.33,1.22.86.77,2.11,1.35,4.26,1.36,6.8.14,1.32-.52,2.73-1,4.18Zm1.04-16.79c-.03.94,0,1.88,0,3.19-.84-.9-1.49-1.47-2-2.15-1.73-2.3-4.05-2.71-6.64-2.07-1.27.32-2.57.28-3.83.62-.56.16-.82-.07-.83-.74-.08-4.14.27-8.26.3-12.4,0-1.03.43-1.24,1.36-.74,3.54,1.91,7.06,3.85,10.6,5.75.76.4,1.08.72,1.06,1.8-.04,2.24.04,4.49-.01,6.74Zm9.95-1.74c-.06,12.47-.12,24.94-.17,37.42-.01.69-.11.95-.85.59-2-1-3.91-2.17-5.82-3.32-.57-.33-.56-.79-.56-1.32,0-6.2,0-12.39,0-19.69-.09-5.13.14-11.36-.1-17.58-.01-.4.12-.56.54-.44,2.42.73,4.5,2.13,6.66,3.37.4.22.3.62.3.97Zm8.96,22.78h-.17c0,5.91,0,11.83,0,17.74,0,.75-.11,1.51-.09,2.26.01.66-.33.67-.74.45-1.74-.9-3.45-1.84-5.07-2.94-.51-.34-.35-.85-.35-1.31-.02-8.63-.02-17.26-.04-25.9-.01-3.88-.03-7.75-.09-11.63-.01-.82.16-1.01.91-.58,1.56.88,3.14,1.74,4.74,2.56.68.36.92.82.92,1.6-.03,5.92-.02,11.83-.02,17.75Zm49.24-7.28c0,6.4-.01,12.8.01,19.19,0,.49-.11.67-.62.76-2.81.52-5.6,1.11-8.4,1.65-5.77,1.11-11.55,2.22-17.32,3.31-3.52.66-7.04,1.29-10.56,1.94-2.95.54-5.91,1.08-8.86,1.66-.8.16-1.02-.04-1.02-.86-.04-12.72-.09-25.43-.16-38.15,0-.62.05-.9.83-1.08,3.12-.7,6.29-1.15,9.43-1.78,2.35-.48,4.77-.74,7.09-1.34,4.9-1.28,9.95-1.71,14.89-2.77,4.5-.97,9.03-1.77,13.55-2.64.75-.14,1.37-.07,1.31.93-.38,6.39-.16,12.79-.17,19.18Zm-15.76-34.69c-.67-.46-1.36-.41-2.06-.26-6.07,1.36-12.13,2.73-18.19,4.11-5.66,1.29-11.32,2.62-16.99,3.9-3.76.85-7.53,1.62-11.26,2.61-1.67.44-3.3.53-4.99-.65-2.24-1.57-4.79-2.68-7.21-4-.62-.33-1.23-.7-2.14-1.22,1.99-.46,3.64-.86,5.31-1.21,5.24-1.09,10.5-2.06,15.71-3.29,3.34-.78,6.74-1.32,10.1-1.99,3.48-.7,6.96-1.37,10.41-2.17,6.4-1.48,12.87-2.56,19.27-4.03,6.13-1.42,12.34-2.52,18.51-3.77,1.37-.28,2.66-.23,3.9.57.96.63,2,1.16,3.04,1.66.82.39,1.15.9,1.13,1.85-.07,3.11.04,6.23-.06,9.35-.04,1.25.43,1.85,1.51,2.32,2.93,1.27,5.67,2.89,8.45,4.43-.01.1-.02.21-.04.31-3.86.73-7.74,1.44-11.6,2.19-1.13.22-2.27.29-3.38.81-.76.36-1.77.32-2.69-.31-5.55-3.77-11.16-7.47-16.73-11.21Zm22.77,53.3c-1.3.32-2.64.4-3.94.79-.64.19-.5-.48-.5-.81-.02-1.96.01-3.92.02-5.88v-11.03h-.03c0-5.31.04-10.63-.02-15.95-.02-1.82-.24-3.64-.24-5.47.01-.72.25-.98.89-1.1,3.1-.57,6.19-1.13,9.29-1.72,4.89-.93,9.77-1.89,14.66-2.81,3.17-.59,6.35-1.14,9.53-1.71.76-.13,1.19-.09,1.19.96-.03,12.51-.03,25.02.03,37.52.01,1.2-.5,1.59-1.5,1.78-2.93.54-5.86,1.11-8.8,1.64-.42.08-.88,0-1.31.07-.78.13-1.11-.25-1.35-.95-1.2-3.53-2.44-7.06-3.66-10.59-.51-1.47-1.02-2.95-1.53-4.42-.57-1.66-2.29-2.62-4.55-2.79-2.48-.19-4.52.71-6.3,2.28-2.08,1.85-3.29,4.16-4.03,6.91-.77,2.84.21,5.24,1.03,7.76.5,1.53.99,3.06,1.53,4.58.18.5.22.78-.41.94Zm18.36,45.63c-.82-2.5-1.64-5.01-2.47-7.51-1.27-3.83-2.54-7.66-3.82-11.5-2.08-6.24-4.17-12.49-6.25-18.74-1.77-5.29-3.55-10.56-5.29-15.86-.85-2.59-.53-5.14.62-7.59.22-.46.49-.91,1.06-1.19.67,1.88,1.33,3.72,1.98,5.57,1.84,5.21,3.67,10.41,5.51,15.61,1.66,4.67,3.23,9.37,5.04,13.97,1.03,2.63,2.1,5.26,2.88,7.96.69,2.41,1.53,4.76,2.32,7.13,1.01,3.04,2.13,6.05,3.26,9.05.31.82.21,1.29-.59,1.74-.98.54-1.94,1.15-2.77,1.88-.94.83-1.21.29-1.48-.52Zm1.41,4.19c-.18-.51-.08-.71.27-1.05,2.82-2.72,6.25-4.15,10.06-4.73,1.58-.24,2.35.33,2.86,1.83,1,2.98,1.97,5.97,3.01,8.93.37,1.03,0,1.87-.51,2.65-1.82,2.82-4.48,4.16-8.17,4.35-.47.1-1.23-.23-2.03-.42-1.81-.42-2.3-1.93-2.8-3.39-.93-2.72-1.75-5.46-2.69-8.17Zm14.48,19.02c.06.96-.31,1.48-1.17,1.78-.66.22-1.32.47-2.12.76,0-2.44,0-4.78-.01-7.13,0-.73.63-.75,1.05-.96,2.3-1.1,2.3-1.09,2.27,1.49-.01,1.35-.09,2.71-.02,4.06Zm-5.82-1.46h-.02c0,.8.02,1.6,0,2.4-.01.24.1.57-.34.63-.85.12-2.54-1.3-2.55-2.18,0-1.08.03-2.16-.01-3.24-.02-.62.19-.89.83-.81.35.04.72.05,1.07,0,.85-.12,1.05.32,1.02,1.04-.02.72,0,1.44,0,2.16Zm-.19,21.56c-.15,1.34-.59.97-1.3.51-2.24-1.47-4.49-2.9-6.73-4.35-3.41-2.2-6.81-4.42-10.23-6.6-.58-.36-.79-.76-.76-1.43.03-.42.03-.85.03-1.28,0-.57-.01-1.14-.02-1.71v-1.44c0-.47,0-.95.01-1.43.01-.34-.17-.79.17-.99.41-.23.73.19,1.05.39,1.95,1.25,3.89,2.51,5.83,3.77,3.57,2.32,7.14,4.66,10.73,6.96.81.52,1.44,1.11,1.38,2.14-.1,1.82.03,3.63-.16,5.46Zm-.65-9.98c-4.9-3.31-9.88-6.48-14.83-9.7-.36-.24-.78-.41-1.15-1,2.23-.66,4.37-1.3,6.52-1.92,1.28-.36,2.58-.66,3.84-1.07.88-.3,1.04.06.99.82-.02.48.12.97.06,1.44-.28,2.08.84,3.26,2.53,4.14.92.47,1.75,1.14,2.69,1.52,1.12.46,2.28.91,3.56.33,1.18-.54,2.42-.96,3.65-1.37.98-.33,1.37-.97,1.35-1.98-.05-2.72-.02-5.44-.1-8.16-.03-.83.21-1.16,1.03-1.34,1.37-.28,2.71-.69,4.04-1.11.94-.31,1.74-.2,2.57.35,5.01,3.28,10.04,6.53,15.07,9.79.13.09.28.16.4.26.26.23.77.34.71.73-.07.44-.6.42-.96.52-2.08.62-4.15,1.26-6.23,1.83-5.43,1.47-10.79,3.21-16.25,4.59-2.01.51-3.96,1.22-5.93,1.86-1.28.41-2.36.28-3.56-.53Zm26.35-46.63c.65,3.19,1.2,6.4,1.77,9.61.06.35-1.49,3.2-1.82,3.25-1.06.19-1.96-.37-2.91-.7-.38-.13-.24-.46-.25-.71-.03-.51-.01-1.03-.01-1.58.17-3.33.83-6.59,1.87-9.78.2-.6.48-1.47.95-1.47.68,0,.3.9.4,1.38Zm8.99,8.77c-.31.31-.51.73-.84,1-.61.52-.71,1.68-1.72,1.6-.88-.06-2.24-2.06-2.41-3.08-.44-2.6-1.01-5.18-1.39-7.78-.22-1.47-.35-2.94-.76-4.37-.09-.3,0-.54.41-.54.68.01,1.3.05,1.87.55,2.3,2.04,3.47,4.74,4.37,7.55.37,1.17,1.02,2.28,1.04,3.8.09.38-.16.84-.57,1.27Zm1.37,2.54c.63,1.84.6,3.55.86,5.21.17,1.13.15,2.28.21,3.42.02.35-.01.61-.48.62-.87,0-2.22-.99-2.35-1.86-.2-1.35-.2-2.74-.69-4.05-.08-.22.01-.43.19-.64.73-.83,1.42-1.69,2.26-2.7Zm-8.05,2.08c.21-.64.48-1.34,1.25-1.44.9-.11,1.18.68,1.54,1.27,1.16,1.92,1.29,4.09,1.6,6.11-.17,1.81-.21,3.52-1.04,5.07-.75,1.38-1.28,1.46-2.21.23-1.16-1.55-1.52-3.37-1.88-5.25-.42-2.13.1-4.05.74-5.99Zm5.26,22.19l-.21.18c-2.73-1.78-5.45-3.56-8.18-5.35-.55-.36-.66-.66-.01-1.13.84-.59,1.57-1.35,2.36-2.02.76-.64,2.99-.24,3.34.69.96,2.52,1.81,5.08,2.7,7.63Zm-10.16-20.79c1.44.07,2.01.59,2.03,1.99.01.36,0,.72,0,1.08.01,1.97.26,3.89,1.16,5.67.27.51.29.92-.25,1.31-.58.42-1.07.96-1.61,1.43-.5.43-.81.39-.95-.33-.51-2.7-.87-5.43-.99-8.18-.04-.71-.13-1.41-.23-2.11-.1-.69.17-.89.84-.86Zm11.26,26.94c-.05,1.04-.01,2.08-.01,3.11h-.1c0,1-.05,2,.02,3,.05.78-.25,1.1-.99,1.31-4.63,1.37-9.25,2.75-13.89,4.1-4.1,1.2-8.21,2.38-12.31,3.58-1.21.36-2.44.64-3.64,1.02-.81.26-1.14.15-1.11-.8.06-1.8.02-3.59.02-5.39,0-1.95-.01-1.97,1.83-2.5,5.49-1.58,10.97-3.15,16.46-4.7,4.21-1.2,8.44-2.35,12.63-3.58.95-.28,1.12,0,1.09.85Zm1.6-8.65c-.14.45-.16.94-.62,1.32-.88-2.53-1.73-5.03-2.6-7.52-.08-.24-.14-.45.04-.66.78-.94.86-2.13,1.14-3.24.22-.89.58-1.2,1.51-.75,1.66.79,2.05,1.58,1.68,3.92-.37,2.31-.43,4.68-1.15,6.93Zm.87,7.72c-.55-1.94.05-3.64.65-5.32,1.08-3.04,1.35-6.2,1.61-9.38.15-1.75.27-3.5.18-5.24-.27-5.6-.96-11.13-2.64-16.51-.91-2.91-2.18-5.63-3.96-8.1-1.1-1.53-2.49-2.63-4.47-2.81-1.53-.13-2.62.61-3.51,1.69-1.63,1.97-2.51,4.29-3.17,6.76-1.42,5.28-1.34,10.66-1.15,16.03.12,3.09.62,6.16,1.32,9.18.09.37.06.7.04,1.21-1.36-.58-2.08-1.37-2.42-2.79-1.2-5.13-1.42-10.33-1.06-15.51.36-5.21,1.37-10.35,4.27-14.88,3.11-4.87,7.09-5.18,10.89-.81,2.85,3.28,4.49,7.17,5.67,11.3.49,1.72.95,3.44,1.3,5.18.45,2.21.65,4.44.85,6.67.2,2.07.34,4.13.21,6.19-.32,5.25-.9,10.46-3.31,15.26-.33.66-.6,1.37-1.3,1.88Zm21.28-2.59c-.37.87-1.16.94-1.83,1.04-3.13.48-6.2,1.24-9.3,1.86-2.78.55-5.57,1.06-8.62,1.64,1.12-1.88,2-3.57,2.65-5.4,1.17-3.25,1.8-6.58,2.18-10.02.36-3.23.42-6.43.17-9.64-.42-5.47-1.49-10.8-3.48-15.97-1.29-3.36-2.94-6.43-5.34-9.1-.55-.62-1.24-1.12-1.86-1.68-.17-.15-.47-.27-.34-.55.06-.14.31-.24.49-.27,2.54-.47,5.09-.91,7.63-1.42.93-.18,1.98.11,2.87.53,1.53.72,3.17,1.13,4.73,1.72,1.16.44,2.55.22,3.78-.18,1.21-.39,2.05-.22,2.83.88,1.41,2.02,2.43,4.22,3.33,6.47,1.17,2.93,2.27,5.89,3,8.98,1.04,4.41,1.66,8.87,1.32,13.39-.3,4.12-.85,8.22-2.05,12.19-.58,1.89-1.39,3.7-2.16,5.53Zm23.15-22c-.35,5.32-.98,10.59-3.36,15.48-.28.57-.62,1.11-.91,1.68-.7,1.41-1.83,2.06-3.38,2.34-3.81.68-7.6,1.52-11.4,2.29-.42.08-.96.32-1.25,0-.31-.33.16-.7.31-1.05,1.68-3.73,2.46-7.67,3.05-11.69.32-2.23.57-4.49.54-6.69-.04-2.36-.12-4.76-.52-7.15-.47-2.81-1.12-5.55-1.96-8.26-1.4-4.55-3.34-8.82-6.04-12.74-.07-.1-.11-.21-.23-.44,1.87-.64,3.74-.86,5.57-1.27.68-.14.93-.37.93-1.07-.01-.94-.45-2.13.21-2.73.58-.52,1.72-.45,2.62-.59,1.31-.2,2.61-.63,3.98-.4,1.73.28,2.88,1.4,3.96,2.64,2.56,2.93,4.1,6.39,5.26,10.05,1.14,3.57,1.89,7.2,2.21,10.95.24,2.88.6,5.76.41,8.65Z"/>
      <path class="cls-1" d="m121.38,159.18c.11.65-.85.49-1.29.59-3.23.77-6.48,1.45-9.73,2.15-.11.03-.23.03-.36.05-.31.05-.51-.04-.67-.2-.09-.08-.16-.19-.23-.29-.1-.16-.19-.34-.3-.48-1.33-1.72-1.32-1.75.77-2.06,3.07-.44,6.15-.86,9.22-1.27.28-.04.56-.06.84-.03.95.09,1.62.76,1.75,1.54Z"/>
      <path class="cls-1" d="m98,225.7c-.82.83-2.11,1.05-3.28,1.32-.58.14-.54-.26-.58-.63-.3-2.61-.18-5.26-.73-7.86-.2-.9.72-.73,1.19-.95.47-.22.91-.31,1.11.37.53,1.78,1.4,3.44,1.76,5.27.01.08-.01.17,0,.24.15.78,1.14,1.62.53,2.24Z"/>
      <path class="cls-1" d="m234.56,253.75c-.01,1.35-.09,2.71-.02,4.06.06.96-.31,1.48-1.17,1.78-.66.22-1.32.47-2.12.76,0-2.44,0-4.78-.01-7.13,0-.73.63-.75,1.05-.96,2.3-1.1,2.3-1.09,2.27,1.49Z"/>
      <path class="cls-1" d="m239.26,175.16c-.08.34-.37.19-.58.24-1.27.3-2.53.62-3.81.9-.68.16-1.19.06-1.09-.86.07-.59.02-1.2.02-1.89.07-.81-.37-2.19.24-2.5.68-.35,1.44.85,2.16,1.38.94.68,1.82,1.44,2.73,2.16.19.15.4.28.33.57Z"/>
      <path class="cls-1" d="m228.72,256.35h-.02c0,.8.02,1.6,0,2.4-.01.24.1.57-.34.63-.85.12-2.54-1.3-2.55-2.18,0-1.08.03-2.16-.01-3.24-.02-.62.19-.89.83-.81.35.04.72.05,1.07,0,.85-.12,1.05.32,1.02,1.04-.02.72,0,1.44,0,2.16Z"/>
      <path class="cls-1" d="m153.45,40.35c-2.15,1.76-7.35,1.76-9.75-.01,3.33-1.13,6.46-1.05,9.75.01Z"/>
      <path class="cls-1" d="m110.55,103.43c-2.5,1.13-5.04,1.84-7.55-.35,2.58-1.2,5.14-2.13,7.55.35Z"/>
      <path class="cls-1" d="m223.89,118.68c.02.44-.44.41-.7.5-.84.29-1.71.51-2.56.75-.03-.07-.06-.15-.09-.22.54-.51,1.11-.99,1.62-1.53.35-.38.69-.29,1.04-.08.26.16.67.21.69.58Z"/>
      <path class="cls-1" d="m208.12,118.34c-.46-.25-.92-.5-1.57-.86,1.12-.68,1.37.08,1.57.86Z"/>
      <path class="cls-1" d="m231.17,181.76c.01,1.2-.5,1.59-1.5,1.78-2.93.54-5.86,1.11-8.8,1.64-.42.08-.88,0-1.31.07-.78.13-1.11-.25-1.35-.95-1.2-3.53-2.44-7.06-3.66-10.59-.51-1.47-1.02-2.95-1.53-4.42-.57-1.66-2.29-2.62-4.55-2.79-2.48-.19-4.52.71-6.3,2.28-2.08,1.85-3.29,4.16-4.03,6.91-.77,2.84.21,5.24,1.03,7.76.5,1.53.99,3.06,1.53,4.58.18.5.22.78-.41.94-1.3.32-2.64.4-3.94.79-.64.19-.5-.48-.5-.81-.02-1.96.01-3.92.02-5.88v-11.03h-.03c0-5.31.04-10.63-.02-15.95-.02-1.82-.24-3.64-.24-5.47.01-.72.25-.98.89-1.1,3.1-.57,6.19-1.13,9.29-1.72,4.89-.93,9.77-1.89,14.66-2.81,3.17-.59,6.35-1.14,9.53-1.71.76-.13,1.19-.09,1.19.96-.03,12.51-.03,25.02.03,37.52Z"/>
      <path class="cls-3" d="m217.46,19.48c-2.89-4.65-8.38-5.29-11.75-.91-3.57,4.64-3.59,11.09.14,15.78,2.99,3.74,7.77,3.59,10.75.07,2-2.36,2.6-5.18,2.81-8.45-.38-2.05-.68-4.43-1.95-6.49Zm-2.18,13.46c-.95,1.32-2.3,2.1-3.88,2.28-1.21.14-2.31-.48-3.21-1.28-1.76-1.58-2.55-3.63-3-5.92-.53-2.68.21-5.04,1.43-7.34,2.08-3.87,6.7-3.94,9-.47,1.28,1.93,1.96,3.74,1.95,6.12-.04,2.45-.88,4.63-2.29,6.61Z"/>
      <path class="cls-3" d="m227.26,27.22c-.26-1.33-1.03-2.07-2.17-2.53-1.65-.67-3.44.25-3.95,1.95-.26.88-.46,1.77-.56,2.67-.24,2.02,1.56,4.28,3.4,4.29,1.04.01,1.88-.39,2.55-1.21,1.32-1.59,1.1-3.33.73-5.17Zm-2.09,3.72c-.66.96-1.48,1.06-2.08.11-.69-1.08-1.03-2.29-.5-3.59.3-.74.73-1.15,1.58-1.17.87-.02,1.16.57,1.44,1.18.16.36.22.76.33,1.15-.34.76-.29,1.62-.77,2.32Z"/>
      <path class="cls-3" d="m236.53,28.23c0-.53.07-.95-.01-1.33-.3-1.4-.76-2.82-2.22-3.37-1.71-.65-2.44-.35-3.55,1.11-1.74,2.29-1.41,5.97.87,7.39.89.56,2.79.65,3.2-.12.66-1.21,2.12-2.12,1.71-3.68Zm-2.57,1.9c-.42.39-.87.53-1.39.17-1.55-1.05-1.41-4.43.22-5.3.1-.06.23-.07.32-.09.39.04.71.18.97.45,1.04,1.05.97,3.77-.12,4.77Z"/>
      <path class="cls-2" d="m105.63,265.39c.05-1.47-.34-2.61-.46-3.78-.34-3.34-1.23-6.53-2.52-9.61-.82-1.95-1.86-3.8-3.56-5.18-1.75-1.41-3.64-1.51-5.36-.11-2.86,2.34-4.14,5.64-5.1,9.05-.98,3.44-1.55,6.97-1.81,10.56-.31,4.27-.28,8.52.14,12.75.3,2.9.9,5.8,1.8,8.62.87,2.7,1.88,5.34,3.74,7.48,2.49,2.86,4.93,2.87,7.56.08,1.08-1.14,1.82-2.52,2.45-3.95,2.27-5.15,2.97-10.63,3.37-16.17.23-3.34.21-6.68-.25-9.74Zm-8.74-17.56c.64.25,1.23.62,1.65,1.15,2.52,3.19,3.75,6.88,4.2,10.87.06.58-.15,1-.52,1.39-.35.38-.66.81-1.04,1.16-.63.6-.94,1.79-1.87,1.75-1-.04-2.58-2.55-2.52-3.68.04-.89-.47-1.7-.26-2.58-.22-2.13-.43-4.24-.65-6.36-.1-.94-.27-1.87-.32-2.81-.05-.97.41-1.25,1.33-.89Zm-.61,16.65c1.15,0,1.47,1.22,1.86,2.09.69,1.55.79,3.21.75,5.11.18,1.56-.23,3.28-.76,4.95-.3.94-.7,2.11-1.8,2.18-1.16.08-1.57-1.18-1.9-2.04-1.29-3.34-1.49-6.73-.04-10.09.4-.93.65-2.2,1.89-2.2Zm-6.94-3.22c.72-3.69,1.51-7.38,3.57-10.63.08-.12.18-.22.41-.49.29,2.88.61,5.55.83,8.24.08.99.03,2.03.38,3.02.33.93-.21,1.65-.74,2.38-1.6,2.19-1.98,2.27-4.37.95-.4-.22-.32-.47-.36-.76-.14-.93.11-1.83.28-2.71Zm-.3,18.23c-.34-1.23-.31-2.5-.4-3.74-.18-2.58-.03-5.18-.07-7.78,0-.65.28-.7.78-.66,1.89.16,2.42.78,2.31,2.68-.02.4-.05.8-.07,1.2-.09,1.92.17,3.81.69,5.63.18.64.07.97-.35,1.33-.66.57-1.34,1.13-1.99,1.71-.59.52-.72.26-.9-.37Zm7.99,15.65c-.79.28-1.41.14-2.04-.37-2.12-1.71-3.06-4.13-3.99-6.56-.46-1.2-.79-2.45-1.14-3.69-.19-.68-.17-1.32.47-1.83.97-.77,1.9-1.59,2.85-2.38.22-.18.47-.31.71-.47.52.31.99.75,1.53.89.96.25,1.2.92,1.43,1.75.79,2.89,1.64,5.78,2.48,8.66.45,1.57-.62,3.39-2.3,4Zm6.5-15.94c-.32,2.56-.83,5.06-1.49,7.54-.19.68-.35,1.36-.92,2.04-.43-1.37-.93-2.59-1.19-3.87-.3-1.42-.8-2.77-1.17-4.16-.14-.51-.19-1.01.16-1.46.76-.98,1.11-2.15,1.42-3.32.23-.85.72-.9,1.41-.56,2.12,1.04,2.09,1.28,1.78,3.79Zm.45-6.15c-.08.67-.25.66-.81.44-1.63-.67-2.58-1.72-2.34-3.59.03-.26-.06-.55-.12-.82-.26-1.24-.34-2.4.77-3.36.65-.57,1.16-1.31,1.77-2.02.81.84.51,1.84.57,2.67.17,2.22.45,4.45.16,6.68Z"/>
      <path class="cls-2" d="m49.77,230.32c-.03-.4-.01-.8-.09-1.19-.51-2.51-.69-5.06-1.34-7.57-.83-3.18-1.75-6.3-3.28-9.21-.93-1.77-2.07-3.42-3.8-4.55-1.84-1.21-3.85-1.01-5.43.51-1,.96-1.65,2.14-2.21,3.38-1.68,3.73-2.35,7.72-2.58,11.73-.25,4.38-.11,8.78.65,13.14.69,3.93,1.51,7.81,3.08,11.5.91,2.15,1.95,4.21,3.55,5.92.96,1.02,2.04,1.92,3.52,2.04,2.3.19,3.68-1.21,4.72-2.99,1.33-2.26,2.1-4.72,2.47-7.34.39-2.81.95-5.61.98-8.47.03-2.3.06-4.61-.24-6.9Zm-2.03,3.79c-2.53-.31-2.55-2.33-3.08-4.13-.71-2.37.87-3.52,2.29-5.21.48,3.35,1,6.32.79,9.34Zm-8.69-24.9c.8-.03,1.38.28,1.9.81,1.76,1.81,2.85,4.01,3.71,6.34.45,1.24.83,2.52,1.24,3.77.09.27.17.53.2.63.07.48-.09.71-.25.94-.37.52-.71,1.06-1.12,1.55-2.1,2.52-1.21,2.25-3.71.23-.21-.16-.37-.36-.42-.68-.71-4.29-1.44-8.58-2.16-12.88-.08-.47.04-.68.61-.71Zm.27,16.81c.5-.8.99-.79,1.58-.09,1.43,1.68,1.88,3.73,2.06,5.8.15,1.71.18,3.48-.41,5.17-.16.48-.37.97-.64,1.41-.59.96-1.29,1-1.95.05-1.46-2.1-2.13-4.46-2-7.17-.2-1.79.35-3.54,1.36-5.17Zm-3.29-14.03s.08-.01.21-.03c.45,3.09.88,6.2,1.59,9.21.5,2.07-.13,3.4-1.1,4.92-.26.41-.57.54-.98.41-.75-.23-1.49-.51-2.23-.79-.23-.08-.37-.26-.37-.55.08-4.58.74-9.03,2.88-13.17Zm-1.38,28.18c-.73-1.22-.79-2.55-.96-3.8-.34-2.37-.64-4.77-.54-7.19.03-.84.25-1.01,1.05-.78,1.71.51,1.74.47,1.71,2.26-.03,2.16.21,4.29,1.08,6.28.29.67.19,1.11-.31,1.58-.61.57-1.21,1.15-2.03,1.65Zm8.4,13.7c-.31.17-.64.28-.96.29-.22.01-.42-.02-.61-.08-.08-.02-.17-.05-.25-.09-.14-.06-.26-.13-.38-.2-.23-.15-.44-.33-.65-.53-1.05-1-1.84-2.2-2.52-3.47-.95-1.79-1.6-3.7-2.29-5.59-.17-.46-.15-.92.29-1.29.46-.39.86-.84,1.31-1.23,1.87-1.68,1.93-1.68,3.99-.47.39.23.45.64.58,1,1.04,2.88,2.08,5.76,3.11,8.63.35.98-.53,2.43-1.62,3.03Zm4.15-8.31c-.18.7-.48,1.38-.84,2.37-1.07-1.87-1.54-3.62-2.17-5.31-.53-1.43-.96-2.83.02-4.24.43-.63.56-1.38.67-2.08.11-.69.33-.58.79-.45,1.73.52,1.98,1.02,2.14,2.79.21,2.36-.04,4.65-.61,6.92Z"/>
      <path class="cls-2" d="m21.39,193.43c.05-1.08-.11-2.13-.2-3.2-.33-3.96-1.18-7.81-2.55-11.52-.85-2.29-1.97-4.44-3.78-6.17-1.79-1.72-4.74-1.75-6.46.28-1.04,1.23-1.82,2.62-2.35,4.11-1.31,3.72-1.95,7.57-2.09,11.52-.16,4.93.02,9.81,1.15,14.63,1.07,4.61,2.44,9.06,5.94,12.53,1.83,1.81,5.14,1.47,6.45-.76,1.42-2.4,2.48-4.97,3.1-7.68s.82-5.5,1.04-8.28c.14-1.84-.36-3.63-.25-5.46Zm-9.63-20.19c.46-.18.85.09,1.19.39,2.14,1.85,3.19,4.35,4.06,6.93.23.69.47,1.4.62,2.14.15.77.73,1.56.28,2.27-.67,1.07-1.57,2-2.38,2.99-.12.14-.29.13-.42,0-.9-.96-2.16-1.54-2.16-3.29.01-1.9-.54-3.79-.82-5.69-.22-1.56-.39-3.12-.58-4.66.1-.37-.31-.86.21-1.08Zm-.22,16.1c.74-1.17,1.22-1.18,1.94-.01,1.17,1.88,1.48,3.98,1.42,6.26.08,1.53-.12,3.13-.94,4.56-.65,1.13-1.26,1.17-1.87.05-1.81-3.3-2.38-6.74-.82-10.33.08-.18.16-.36.27-.53Zm-5.22-3.92c.38-2.47.81-4.95,1.68-7.32.24-.62.47-1.27,1.12-1.98.35,2.19.7,4.19,1,6.2.19,1.24.33,2.5.46,3.74.15,1.37-.96,2.12-1.57,3.11-.15.26-.53.15-.86,0-2.03-.89-2.25-1.07-1.83-3.75Zm.86,16.33c-.3-.15-.43-.52-.39-.91.06-.59-.51-1.1-.17-1.73-.46-2.25-.58-4.53-.51-6.82.01-.46-.32-1.27.56-1.29,1.12-.02,1.61.67,1.54,1.69-.16,2.15.3,4.23.96,6.25.27.84.2,1.4-.56,1.85-.24.15-.42.38-.65.53-.25.17-.45.59-.78.43Zm7.44,13.17c-1.16.53-1.86.12-2.76-.85-2.28-2.44-3.24-5.4-3.97-8.51-.03-.11-.1-.22-.11-.33-.05-.45,2.29-2.76,2.94-2.93.68-.16,2.22.71,2.51,1.48.32.88.61,1.77.89,2.66.53,1.68,1.5,3.19,1.89,4.93.08.38.2.76.25.98.01,1.36-.61,2.11-1.64,2.57Zm4.6-14.02c.1,2.8-.73,5.14-1.04,7.56-.03.22.03.63-.4.62-.33-.02-.46-.29-.5-.57-.27-1.95-1.16-3.71-1.66-5.59-.08-.3-.35-.6-.17-.91.61-1.14,1.11-2.32,1.4-3.59.07-.33.28-.3.54-.23,1.23.34,1.83,1.13,1.83,2.44v.27Zm-.92-4.77c-1.38-.55-1.13-1.77-1.38-2.77-.63-2.46-.38-3.12,1.73-4.89.53,2.35.88,4.63.79,6.97-.05,1.15-.11,1.1-1.14.69Z"/>
      <path class="cls-1" d="m215.62,20.21c-2.3-3.47-6.92-3.4-9,.47-1.22,2.3-1.96,4.66-1.43,7.34.45,2.29,1.24,4.34,3,5.92.9.8,2,1.42,3.21,1.28,1.58-.18,2.93-.96,3.88-2.28,1.41-1.98,2.25-4.16,2.29-6.61.01-2.38-.67-4.19-1.95-6.12Zm-.93,9.27c-.29,1.41-1.73,2.43-3.22,2.44-.86.19-1.51-.3-2.08-.96-2-2.32-2.09-6.26-.21-8.68,1.45-1.87,3.81-1.55,4.98.46,1.3,2.22,1,4.46.53,6.74Z"/>
      <path class="cls-1" d="m225.94,28.62c-.34.76-.29,1.62-.77,2.32-.66.96-1.48,1.06-2.08.11-.69-1.08-1.03-2.28-.5-3.59.3-.74.73-1.15,1.58-1.17.87-.02,1.16.57,1.44,1.18.16.36.22.76.33,1.15Z"/>
      <path class="cls-1" d="m233.11,24.91c.39.04.71.18.97.45,1.04,1.05.97,3.77-.12,4.77-.43.39-.87.53-1.4.18-1.55-1.05-1.41-4.43.22-5.31.1-.05.23-.06.32-.09Z"/>
      <path class="cls-1" d="m93.89,279.84c.52.31.99.74,1.54.88.96.25,1.19.93,1.42,1.75.8,2.9,1.64,5.78,2.48,8.66.46,1.57-.62,3.39-2.3,4-.79.29-1.41.14-2.04-.37-2.12-1.71-3.06-4.14-3.99-6.56-.46-1.2-.79-2.45-1.14-3.7-.19-.67-.17-1.32.47-1.83.97-.77,1.9-1.59,2.85-2.38.21-.18.46-.31.7-.46Z"/>
      <path class="cls-1" d="m96.53,257.89c-.22-2.13-.43-4.24-.65-6.36-.1-.94-.26-1.87-.32-2.81-.05-.97.41-1.26,1.32-.89.64.25,1.23.62,1.66,1.15,2.52,3.18,3.75,6.88,4.2,10.87.07.58-.15,1-.52,1.39-.35.38-.66.81-1.04,1.16-.63.6-.94,1.79-1.87,1.75-1.01-.04-2.58-2.55-2.53-3.69.04-.89-.47-1.7-.25-2.58Z"/>
      <path class="cls-1" d="m93.32,250.14c.29,2.88.62,5.55.84,8.24.08.99.03,2.03.38,3.02.33.94-.21,1.65-.74,2.38-1.6,2.19-1.98,2.27-4.37.95-.4-.22-.31-.47-.36-.76-.14-.93.11-1.83.28-2.71.72-3.69,1.51-7.38,3.57-10.63.08-.12.18-.22.4-.49Z"/>
      <path class="cls-1" d="m101.12,288.78c-.43-1.36-.93-2.59-1.2-3.86-.29-1.42-.8-2.77-1.17-4.16-.14-.52-.18-1.01.16-1.46.76-.98,1.11-2.15,1.42-3.32.23-.85.71-.91,1.41-.57,2.12,1.04,2.09,1.28,1.78,3.8-.32,2.56-.82,5.05-1.49,7.53-.18.69-.35,1.37-.91,2.04Z"/>
      <path class="cls-1" d="m91.59,271.19c-.09,1.92.17,3.81.69,5.63.18.64.07.96-.35,1.32-.66.57-1.34,1.13-2,1.72-.58.52-.72.26-.89-.37-.34-1.23-.32-2.5-.4-3.74-.18-2.58-.03-5.19-.07-7.78,0-.65.28-.71.78-.67,1.88.16,2.42.78,2.31,2.69-.02.4-.05.8-.07,1.2Z"/>
      <path class="cls-1" d="m103.25,263.7c.81.83.51,1.84.58,2.67.16,2.21.45,4.44.16,6.68-.08.67-.26.66-.81.43-1.63-.67-2.58-1.72-2.35-3.59.03-.26-.06-.55-.12-.82-.26-1.24-.34-2.4.77-3.37.65-.57,1.16-1.31,1.77-2.01Z"/>
      <path class="cls-3" d="m214.16,22.74c-1.17-2.01-3.53-2.33-4.98-.46-1.88,2.42-1.79,6.36.21,8.68.57.66,1.22,1.15,2.08.96,1.49-.01,2.93-1.03,3.22-2.44.47-2.28.77-4.52-.53-6.74Zm-1.67,6.7c-.56.79-1.26.81-1.82,0-.62-.9-.94-1.9-.91-2.89,0-1.18.34-2.15.95-3,.55-.78,1.16-.76,1.73-.03,1.14,1.44.99,4.59.05,5.92Z"/>
      <path class="cls-1" d="m209.76,26.55c0-1.18.35-2.14.95-3,.55-.78,1.16-.76,1.73-.03,1.14,1.44,1,4.59.05,5.92-.56.79-1.27.81-1.82,0-.62-.89-.94-1.9-.91-2.89Z"/>
    </g>
  </g>
</svg>