<?xml version="1.0" encoding="UTF-8"?>
<svg id="Capa_2" data-name="Capa 2" xmlns="http://www.w3.org/2000/svg" viewBox="0 0 464.72 276.34">
  <defs>
    <style>
      .cls-1 {
        fill: #575756;
      }

      .cls-2 {
        fill: #009fe3;
      }

      .cls-3 {
        fill: #1d1d1b;
      }
    </style>
  </defs>
  <g id="Capa_1-2" data-name="Capa 1">
    <g>
      <path class="cls-2" d="m104.08,128.8c4.03,6.84,8.17,13.61,12.72,20.11l-12.72-20.11Zm-8.55-115.51c-.03.54-.12,1.08-.01,1.59h.16l-.15-1.59Z"/>
      <path class="cls-1" d="m463.32,189.56c-2.28-2.57-5.08-4.72-7.12-7.46-3.53-4.79-8.15-8.54-12.03-12.99-4.37-5-9.5-9.4-14.12-14.27-11.18-11.81-22.31-23.67-33.79-35.22-9.37-9.45-18.33-19.3-27.47-28.98-2.63-2.6-5.24-5.23-7.91-7.78-1.14-1.1-2.35-2.02-3.63-2.74-8.32,1.34-17.39,1.48-26.75.22-29.09-3.93-51.89-20.26-57.21-39.09-.01-.04-.03-.07-.04-.11h0c-.52-7.11-6.45-12.51-13.45-12.51-.33,0-.68.01-1.02.04l-25.04,1.88V10.99c-.01.06-.01.13-.04.19.03-.15.04-.31.04-.46,0-1.26-.51-2.4-1.35-3.23-.82-.82-1.96-1.33-3.21-1.33h-35.59c.12-.92.17-1.64.03-2.16,0-1.11-.44-2.11-1.17-2.83-.71-.72-1.71-1.17-2.83-1.17h-21.76c-1.87,0-3.38,1.51-3.38,3.38v3.17c-.24.52-.35,1.19-.25,2.1-.11.19-.12.39-.03.59-.15.5-.16,1.06-.15,1.62h-24.16c-.01-.28-.04-.5-.1-.7h0c-.05-1.11-.97-1.97-2.05-1.97h-.1l-29.58,1.34c-2.88.13-5.13,2.59-5,5.48v.04l-1.44,1.44h-.52c-.11-.51-.03-1.05.01-1.59h0s-.1-.97-.1-.97h0c-.15-1.7-1.58-2.97-3.23-2.97-.1,0-.22,0-.31.01l-23.25,2.16c-1.77.16-3.05,1.71-2.89,3.47l.36,3.93.43,4.58.35,3.71-.29.03L0,36.32l.51,4.93v-1.1c0-.09.03-.17.05-.24.04-.08.08-.15.14-.2.04-.04.08-.08.12-.09.03-.02.05-.04.09-.04.03-.02.07-.03.12-.04.04,0,.09,0,.15,0,.57.04,1.15.07,1.74.11.07-.05.13-.11.2-.16h75.12v5.16c0,.27.18.5.43.59.81.25,1.61.52,2.39.8.57.19,1.14.39,1.7.61.55.19,1.1.4,1.63.62.48.18.94.37,1.41.57,1.06.43,2.09.88,3.12,1.36.53.24,1.07.5,1.59.76,1.15.55,2.25,1.13,3.35,1.73.57.31,1.12.62,1.67.95.29.16.59.34.89.53.38.22.76.46,1.14.7.56.34,1.12.7,1.66,1.06.53.36,1.08.72,1.59,1.1,1.06.74,2.06,1.5,3.05,2.28.49.39.96.79,1.44,1.19,8.01,6.79,13.43,14.93,15.19,23.49.69,3.31.84,6.68.38,10.07-.2,1.57-.55,3.11-1,4.6-.28.94-.62,1.86-1,2.76,0,.03,0,.06-.02.08-.53,1.25-1.13,2.47-1.82,3.65t-.02.02c-.6,1.05-1.27,2.07-2.01,3.06-.4.56-.83,1.11-1.28,1.65-.89,1.06-1.84,2.08-2.85,3.07-.32.3-.63.6-.94.88-.32.29-.64.58-.98.86-.33.29-.66.57-1.01.84-.33.28-.69.56-1.05.82-.77.59-1.58,1.17-2.4,1.72-.31.21-.62.41-.93.6-.37.25-.76.48-1.14.72-.03.01-.05.02-.06.03-.38.23-.77.46-1.17.68-1.25.72-2.55,1.39-3.89,2.02-.33.16-.68.32-1.02.47-1.42.64-2.89,1.24-4.39,1.78-.34.13-.7.25-1.06.38-1.79.63-3.65,1.19-5.58,1.68-.43.11-.87.22-1.31.32-1,.25-2.01.47-3.05.67-.45.09-.64.61-.36.98.15.2.33.4.5.6.09.11.2.23.29.34.16.17.29.33.42.5.11.14.2.28.3.43,9.32,15.06,18.59,30.14,27.96,45.17,8.35,13.37,16.69,26.72,25.05,40.07,6.96,11.12,13.93,22.25,20.88,33.38.23.35.44.69.66,1.04,3.4,5.46,6.65,11.02,10.09,16.44.89,1.4,1.94,2.51,3.08,3.32.13.09.27.18.4.26.26.17.52.32.79.45.17.09.35.16.52.23.17.08.36.15.56.22.14.05.27.09.4.13.94.27,1.94.38,2.99.34h.09c.87-.02,1.79-.16,2.73-.41,16.64-4.34,33.29-8.74,49.93-13.16,18.07-4.81,36.13-9.7,54.21-14.49,16.05-4.26,32.13-8.4,48.18-12.66,9.64-2.56,19.26-5.14,28.89-7.73,4.81-1.29,9.64-2.58,14.44-3.87,2.41-.65,4.81-1.3,7.23-1.94,2.41-.65,4.81-1.3,7.21-1.94,1.56-.42,3.14-.83,4.7-1.24.19-.06.38-.11.58-.16,1.06-.28,2.12-.56,3.18-.84.31-.09.62-.17.93-.24,6.25-1.66,12.51-3.31,18.77-4.96,3.13-.82,6.25-1.65,9.38-2.47,12.51-3.31,25.04-6.62,37.56-9.93,2.25-1.61,1.13-3.32-.11-4.71ZM95.47,14.88c-.11-.51-.02-1.05.01-1.59l.15,1.59h-.16Zm24.78,141.76c-.23.88-.78,1.67-1.61,2.2-1.73,1.1-4.03.58-5.13-1.15l-18.66-29.49c-.33-.52-.52-1.1-.55-1.67-.03-.11-.03-.21-.03-.32,0-.32.04-.64.12-.95.23-.87.78-1.67,1.61-2.19,1.73-1.1,4.03-.58,5.13,1.15l1.57,2.49c.32.43.62.9.92,1.4.14.23.27.46.41.69l12.72,20.11,3.04,4.8c.39.62.58,1.31.58,1.99,0,.32-.04.63-.12.94Zm16.06-17.06c-.36.71-.95,1.3-1.66,1.66-4.31,2.21-8.62-2.09-6.42-6.43.36-.72.97-1.32,1.69-1.68,4.35-2.17,8.6,2.14,6.39,6.45Zm32.46,11.43c-1.73,1.09-4.03.58-5.13-1.16l-18.29-28.89-.38-.6c-.26-.41-.43-.86-.51-1.31v-.03c-.04-.21-.06-.43-.06-.64,0-1.23.61-2.44,1.73-3.14,1.73-1.1,4.03-.59,5.12,1.15l18.67,29.49c.08.13.16.27.22.41.1.09.2.17.31.25-.06.03-.12.05-.18.07.16.41.23.83.23,1.25,0,1.23-.62,2.44-1.73,3.15Zm85.1-37.18c-7.82,9.3-29.81,3.7-49.13-12.52-19.31-16.21-28.63-36.9-20.82-46.21,7.81-9.3,29.8-3.69,49.11,12.52,19.32,16.22,28.65,36.91,20.84,46.21Zm86.48,6.73c-1.5,1.41-3.85,1.33-5.25-.16l-23.92-25.42c-.68-.72-1.01-1.63-1.01-2.55,0-.99.39-1.97,1.17-2.7,1.49-1.41,3.84-1.34,5.25.16l23.92,25.42c.67.72,1.01,1.63,1.01,2.54,0,.99-.4,1.98-1.17,2.71Zm5.93-19.36c-.06.48-.23.92-.48,1.31h-.01c-.85,1.36-2.71,2.06-4.54,1.08-.52-.28-.94-.72-1.19-1.24-1.53-3.2,1.8-6.28,4.96-4.33.76.47,1.21,1.31,1.27,2.21.02.3.05.66-.01.97Zm31.11,12.77c-1.5,1.41-3.85,1.34-5.26-.16l-23.91-25.42c-.54-.57-.86-1.27-.96-1.99h-.01c-.04-.12-.05-.24-.03-.36h0c-.01-.07-.01-.14-.01-.2,0-.99.39-1.97,1.17-2.7,1.49-1.41,3.84-1.34,5.25.16l23.92,25.42c.67.72,1.01,1.63,1.01,2.54,0,.99-.4,1.98-1.17,2.71Z"/>
      <path class="cls-2" d="m357.3,80.12c-8.32,1.34-17.39,1.48-26.75.22-29.09-3.93-51.89-20.26-57.21-39.09-.01-.04-.03-.07-.04-.11h0c-.52-7.11-6.45-12.51-13.45-12.51-.33,0-.68.01-1.02.04l-25.04,1.88v-15.68l55.77,12.92c.1.02.17.04.27.06,2.63.69,4.02,3.46,3.27,6.07-2.51,8.91,2.38,20.27,12.33,29.56,3.24,3.02,6.99,5.82,11.19,8.25,7.19,4.15,14.67,6.62,21.55,7.44,5.11.62,9.89.33,14-.87,1.81.28,3.52.9,5.13,1.82Z"/>
      <path class="cls-2" d="m464,195.48c-1.59,3.32-4.32,5.14-8.21,5.65-2.2.29-4.31,1.17-6.46,1.78-20.5,5.5-41,10.98-61.48,16.5-36.68,9.89-73.36,19.82-110.04,29.71-8.46,2.28-16.94,4.51-25.4,6.76-11.67,2.75-23.13,6.19-34.64,9.51-12.66,3.36-25.3,6.69-37.94,10.09-7.54,2.04-11.29.62-15.42-6.01-5.07-8.15-10.17-16.29-15.19-24.47-.72-1.15-1.6-2.03-2.7-2.77-7.58-5.06-15.15-10.12-22.69-15.19L.85,149.8c-.18-.11-.29-.31-.29-.52V40.15c0-.09.03-.17.05-.24.04-.08.08-.15.14-.2.04-.04.08-.08.12-.09.03-.02.05-.03.09-.04.03-.02.07-.03.12-.04.04,0,.09,0,.15,0,.57.04,1.15.07,1.74.11.07-.05.13-.11.2-.16h75.12v5.16c0,.27.18.5.43.59.81.25,1.61.52,2.39.8.57.19,1.14.39,1.7.61.55.19,1.1.4,1.63.62.48.18.94.37,1.41.57,1.06.43,2.09.88,3.12,1.36.53.25,1.07.5,1.59.76,1.15.55,2.25,1.13,3.35,1.73.56.31,1.12.63,1.67.95.29.16.59.34.89.53.38.23.76.46,1.14.7.56.35,1.12.7,1.66,1.06.53.36,1.07.73,1.59,1.1,1.06.74,2.06,1.5,3.05,2.28.49.39.96.79,1.44,1.19,8.01,6.79,13.43,14.93,15.19,23.49.69,3.31.84,6.68.38,10.07-.2,1.57-.55,3.11-1,4.6-.28.94-.62,1.86-1,2.76,0,.03,0,.06-.02.08-.53,1.25-1.13,2.47-1.82,3.65t-.02.02c-.6,1.05-1.27,2.07-2.01,3.06-.4.56-.83,1.11-1.28,1.65-.89,1.06-1.84,2.08-2.85,3.07-.32.3-.63.6-.94.88-.32.29-.64.58-.98.86-.33.29-.66.57-1.01.84-.33.28-.69.55-1.05.82-.77.59-1.58,1.17-2.4,1.72-.31.21-.62.41-.93.6-.37.25-.76.48-1.14.72-.03.01-.05.02-.06.03-.38.23-.77.46-1.17.68-1.25.72-2.55,1.39-3.89,2.02-.33.16-.68.32-1.02.47-1.42.64-2.89,1.24-4.39,1.78-.34.13-.7.25-1.06.38-1.79.63-3.65,1.19-5.58,1.68-.43.11-.87.22-1.31.32-1,.25-2.01.47-3.05.67-.45.09-.64.61-.36.98.15.2.33.4.5.6.09.11.2.23.29.34.16.17.29.33.42.5.11.14.2.28.3.43,9.32,15.06,18.59,30.14,27.96,45.17,8.35,13.37,16.69,26.72,25.05,40.07,6.96,11.12,13.93,22.25,20.88,33.38.23.35.44.69.66,1.04,3.4,5.46,6.65,11.02,10.09,16.44.89,1.4,1.94,2.51,3.08,3.32.13.09.27.18.4.26.26.17.52.32.79.45.17.09.35.16.52.23.17.08.36.15.56.22.14.05.27.09.4.13.94.27,1.94.38,2.99.34h.09c1.18.07,2.43-.07,3.75-.41,16.66-4.34,33.29-8.74,49.93-13.16,18.09-4.81,36.14-9.7,54.23-14.49,16.05-4.26,32.13-8.4,48.18-12.66,9.64-2.56,19.26-5.14,28.89-7.73,4.81-1.29,9.63-2.58,14.44-3.87,2.4-.65,4.81-1.3,7.21-1.94,2.41-.64,4.81-1.28,7.23-1.93,1.56-.41,3.12-.83,4.68-1.25.19-.06.38-.11.58-.16,1.06-.28,2.12-.56,3.18-.84.31-.09.62-.17.93-.24,6.25-1.66,12.51-3.31,18.77-4.96,3.13-.82,6.25-1.65,9.38-2.47,12.11-3.2,24.23-6.4,36.35-9.6.5-.14.94.4.71.88Z"/>
      <path class="cls-2" d="m72.52,28.82l-.35-3.71c.1,1.24.13,2.49.06,3.74l.29-.03Zm28.54-14.89l.1.96c0-.32,0-.65-.1-.96Z"/>
      <path class="cls-3" d="m95.68,14.88h-.16c-.11-.51-.02-1.05.01-1.59l.15,1.59Z"/>
      <path class="cls-2" d="m334.31,52.49c0,.12-.05.21-.11.21-.05,0-.1-.09-.1-.21s.05-.21.1-.21c.06,0,.11.09.11.21Z"/>
      <path class="cls-2" d="m334.31,52.49c0,.12-.05.21-.11.21-.05,0-.1-.09-.1-.21s.05-.21.1-.21c.06,0,.11.09.11.21Z"/>
      <path class="cls-3" d="m116.8,148.91c-4.55-6.5-8.69-13.27-12.72-20.11l12.72,20.11Z"/>
    </g>
  </g>
</svg>